<svg width="45" height="28" viewBox="0 0 45 28" fill="none" xmlns="http://www.w3.org/2000/svg">
<rect width="45" height="28" fill="black" fill-opacity="0"/>
<rect width="16" height="28" fill="black" fill-opacity="0" transform="translate(25)"/>
<path fill-rule="evenodd" clip-rule="evenodd" d="M39.6856 7.26215C40.5153 6.59179 41 5.58882 41 4.50062C41 2.54119 39.4169 0.947498 37.4705 0.947498C37.135 0.947498 36.8022 0.998658 36.4766 1.09578C35.5716 0.411209 34.452 0 33.2355 0C30.2514 0 27.8236 2.44407 27.8236 5.44812C27.8236 5.60161 27.833 5.76026 27.849 5.92418C26.1935 6.50405 25 8.0869 25 9.94873C25 12.0929 26.5822 13.8676 28.6321 14.1641L28.6034 14.193L28.7126 14.3029L32.8661 27.6679C32.9268 27.8641 33.107 27.9981 33.3108 28H33.3151C33.5179 28 33.6977 27.8697 33.7617 27.6755L38.9962 11.8157C39.6555 11.0639 40.0588 10.08 40.0588 9.00077C40.0588 8.39011 39.9266 7.80128 39.6856 7.26215ZM40.0588 4.50062C40.0588 5.25151 39.744 5.94787 39.1995 6.43725C39.1331 6.34913 39.0625 6.26443 38.9886 6.18153C38.9524 6.13984 38.9152 6.09861 38.8776 6.05835C38.8249 6.00339 38.7712 5.94935 38.7152 5.89677C38.6875 5.87071 38.6625 5.84185 38.6343 5.81627C38.6432 5.69214 38.647 5.56892 38.647 5.44812C38.647 5.27141 38.6371 5.09665 38.6206 4.92278C38.615 4.86498 38.6051 4.80858 38.5976 4.75126C38.583 4.63613 38.567 4.52144 38.5453 4.40774C38.5331 4.34379 38.5171 4.28176 38.5025 4.21875C38.4781 4.11263 38.4522 4.00699 38.4216 3.90276C38.4037 3.8426 38.3839 3.7834 38.3642 3.72418C38.3289 3.61759 38.2907 3.51241 38.2493 3.40866C38.2286 3.35702 38.207 3.3054 38.1844 3.25471C38.1359 3.14433 38.0837 3.03573 38.0282 2.92866C38.0065 2.88745 37.9853 2.84576 37.9627 2.80502C37.8992 2.6899 37.8305 2.57768 37.7585 2.46683C37.7387 2.43698 37.7204 2.40621 37.7001 2.37684C37.6192 2.25793 37.5326 2.14226 37.4423 2.02951C37.4272 2.01009 37.4131 1.98971 37.3975 1.97076C37.3778 1.94707 37.3608 1.92158 37.3406 1.89789C38.8145 1.82493 40.0588 3.02062 40.0588 4.50062ZM28.7648 5.44812C28.7648 2.96662 30.7705 0.947498 33.2355 0.947498C34.3899 0.947498 35.4398 1.3943 36.2342 2.11961C36.2949 2.17504 36.3571 2.22951 36.414 2.28778C36.4714 2.34605 36.5241 2.40849 36.5782 2.4696C36.6258 2.52314 36.6733 2.57667 36.718 2.63257C36.7698 2.69747 36.8182 2.7648 36.8667 2.83255C36.9081 2.89035 36.9486 2.94866 36.9872 3.00835C37.0309 3.07657 37.0728 3.14572 37.1128 3.21631C37.15 3.28169 37.1853 3.34799 37.2192 3.41479C37.254 3.48348 37.2874 3.55216 37.319 3.62275C37.3524 3.69807 37.382 3.77536 37.4112 3.8521C37.4361 3.91795 37.4615 3.9833 37.4837 4.05104C37.5124 4.13916 37.5354 4.22913 37.559 4.31914C37.5736 4.37978 37.591 4.43903 37.6041 4.50062C37.6267 4.60532 37.6418 4.71244 37.6569 4.81903C37.6639 4.86878 37.6743 4.91756 37.6794 4.96777C37.6964 5.12648 37.7058 5.28657 37.7058 5.44812C37.7058 5.60872 37.6954 5.77545 37.6766 5.94268C37.6743 5.96495 37.6696 5.98681 37.6667 6.00907C37.6639 6.03276 37.6587 6.05548 37.6554 6.07916C37.6554 6.07964 37.655 6.08008 37.655 6.08055C37.6535 6.0905 37.6517 6.10091 37.6502 6.11086C37.6418 6.16865 37.6333 6.22646 37.6225 6.28331C37.615 6.32737 37.6074 6.37145 37.598 6.41551C37.5957 6.4264 37.5924 6.43733 37.59 6.4487C37.5834 6.47713 37.5754 6.50461 37.5684 6.53256C37.5679 6.5335 37.5669 6.53437 37.5669 6.5358C37.5505 6.60023 37.5335 6.66419 37.5156 6.72814C37.5006 6.78025 37.4846 6.83196 37.4672 6.88313C37.4667 6.88455 37.4672 6.88552 37.4667 6.88694C37.4597 6.90732 37.4526 6.92718 37.4455 6.94755C37.4437 6.95229 37.4422 6.95704 37.4404 6.96178C37.4394 6.96415 37.4375 6.96555 37.4371 6.96744C37.3919 7.09346 37.342 7.2162 37.287 7.33606C37.286 7.33748 37.2865 7.33938 37.286 7.3408C36.9608 8.0429 36.4653 8.64973 35.8469 9.09932C35.846 9.10026 35.8446 9.10068 35.8431 9.10163C35.7354 9.1798 35.6238 9.25281 35.509 9.3215C35.4897 9.33287 35.469 9.34333 35.4497 9.3547C35.3528 9.4106 35.2535 9.46414 35.1523 9.51246C35.1179 9.52904 35.0822 9.54321 35.0473 9.55884C34.9589 9.59863 34.8699 9.63658 34.7786 9.67022C34.7311 9.68775 34.6826 9.70281 34.6346 9.71891C34.5532 9.74592 34.4713 9.77206 34.388 9.79433C34.3311 9.80949 34.2732 9.82224 34.2153 9.8355C34.1381 9.85303 34.0605 9.86966 33.9819 9.88292C33.9184 9.89382 33.8539 9.90182 33.7894 9.90987C33.7137 9.91935 33.6379 9.92743 33.5612 9.93312C33.5311 9.93549 33.5005 9.93598 33.4699 9.9374C33.4699 9.8616 33.4624 9.78717 33.4581 9.71232C33.4544 9.64505 33.4544 9.57682 33.4478 9.51049C33.4398 9.4328 33.4247 9.35706 33.413 9.28079C33.4031 9.21636 33.3965 9.15099 33.3833 9.08798C33.3692 9.01881 33.3485 8.95193 33.3311 8.88419C33.3137 8.81597 33.2991 8.74638 33.2784 8.67958C33.2605 8.62178 33.237 8.56686 33.2167 8.51048C33.1899 8.4361 33.1659 8.36031 33.1353 8.2883C33.1141 8.23808 33.0878 8.19068 33.0647 8.14141C33.0294 8.06561 32.996 7.98883 32.9565 7.91587C32.9343 7.87513 32.908 7.83676 32.8845 7.79697C32.8388 7.7188 32.7941 7.63969 32.7438 7.56484C32.724 7.53499 32.7004 7.50803 32.6797 7.47913C32.6214 7.3967 32.563 7.31463 32.4995 7.23694C32.4826 7.21656 32.4633 7.19809 32.4459 7.17772C32.3748 7.09434 32.3028 7.01193 32.2261 6.93471C32.2073 6.91576 32.1866 6.89964 32.1677 6.88116C32.0892 6.80489 32.0096 6.72955 31.9249 6.65944C31.9179 6.65375 31.9099 6.64858 31.9028 6.6429C31.8049 6.56236 31.7037 6.48566 31.5988 6.41412C31.5917 6.40938 31.5842 6.40556 31.5776 6.40082C31.4712 6.32928 31.3626 6.26197 31.2496 6.20038C31.2491 6.20038 31.2486 6.19992 31.2482 6.19992C31.1286 6.13454 31.0058 6.07487 30.8797 6.02133C30.8585 6.01233 30.8355 6.00569 30.8143 5.99716C30.7084 5.95405 30.6016 5.91237 30.4915 5.87826C30.4482 5.86452 30.403 5.856 30.3588 5.84368C30.2684 5.81857 30.1785 5.79207 30.0863 5.77312C29.9837 5.75181 29.8783 5.73852 29.7729 5.72478C29.7371 5.72004 29.7027 5.71202 29.6665 5.7087C29.5248 5.69259 29.3808 5.68499 29.2354 5.68499C29.0792 5.68499 28.9258 5.6949 28.7742 5.71148C28.7681 5.62146 28.7648 5.53339 28.7648 5.44812ZM25.9412 9.94873C25.9412 8.38299 27.0264 7.07028 28.4782 6.72444C28.7361 6.66333 28.9902 6.63486 29.2378 6.63249C30.4736 6.63344 31.5517 7.32413 32.1146 8.34127C32.1235 8.35785 32.1329 8.37396 32.1419 8.39054C32.18 8.46255 32.2148 8.53648 32.2477 8.6118C32.2633 8.64781 32.2783 8.68382 32.2929 8.72029C32.3183 8.78378 32.3418 8.84819 32.3635 8.91356C32.3804 8.96615 32.395 9.01918 32.4096 9.07271C32.4247 9.12814 32.4402 9.18405 32.4525 9.24042C32.4675 9.31054 32.4783 9.38216 32.4892 9.45417C32.4958 9.49822 32.5047 9.54182 32.5094 9.58683C32.5221 9.70574 32.5301 9.82604 32.5301 9.94827C32.5301 10.0847 32.5198 10.2173 32.5038 10.349V10.3504C32.5038 10.3509 32.5033 10.3515 32.5033 10.3519C32.4891 10.4699 32.468 10.5873 32.4407 10.7043C32.4393 10.71 32.4379 10.7157 32.4365 10.7209C32.4096 10.8332 32.3767 10.945 32.3376 11.0549C32.3273 11.0843 32.3169 11.1137 32.3056 11.1426C32.2967 11.1592 32.284 11.1734 32.2769 11.1914C31.964 11.9665 31.3903 12.571 30.6844 12.9225C30.6627 12.9329 30.6416 12.9438 30.6194 12.9537C30.3564 13.0774 30.0754 13.165 29.7832 13.2148C29.7484 13.2205 29.7135 13.2261 29.6782 13.2309C29.5324 13.2512 29.3851 13.265 29.2354 13.265C29.1902 13.265 29.1465 13.2603 29.1018 13.2584L29.0556 13.2555C29.0547 13.2555 29.0542 13.256 29.0533 13.256C27.3219 13.1598 25.9412 11.7153 25.9412 9.94873ZM33.3287 25.9832L32.2666 22.5652L32.5965 22.233L31.9659 21.5983L31.315 19.5033L31.931 18.8831L31.2656 18.2133L30.9978 18.4828L30.1479 15.7483L30.5997 16.2036L31.2651 15.5338L30.5997 14.8639L30.0458 15.4215L29.7286 14.401L29.9343 14.194L29.8966 14.1561C29.9757 14.1438 30.0548 14.1319 30.1319 14.1153C30.1766 14.1054 30.2199 14.0921 30.2641 14.0812C30.3724 14.0537 30.4797 14.0239 30.5842 13.9879C30.6336 13.9708 30.6825 13.9523 30.731 13.9334C30.7973 13.9083 30.8637 13.8837 30.9287 13.8549L31.2651 14.1935L31.9306 13.5236L31.7673 13.3592C32.2261 13.0129 32.6125 12.5771 32.9009 12.0754C32.9136 12.0877 32.9273 12.0977 32.94 12.11C33.0082 12.1744 33.0769 12.2379 33.1489 12.2976L32.596 12.8543L33.2614 13.5242L33.9268 12.8543L33.8327 12.7595C33.8534 12.7709 33.8732 12.7826 33.8939 12.7935C33.9104 12.8021 33.9278 12.8087 33.9447 12.8173C34.0671 12.8788 34.1928 12.9343 34.3208 12.984C34.3551 12.9973 34.3899 13.0087 34.4247 13.021C34.5367 13.0608 34.6506 13.0963 34.7659 13.1266C34.8074 13.1375 34.8483 13.1479 34.8897 13.1574C35.0036 13.1835 35.1184 13.2043 35.2346 13.2204C35.2751 13.2261 35.3156 13.2338 35.3565 13.2385C35.5104 13.2555 35.6657 13.2668 35.8229 13.2668C35.9495 13.2668 36.0747 13.2588 36.1985 13.2474L35.9231 13.5246L36.5886 14.1944L37.254 13.5246L36.8634 13.1314C36.9782 13.102 37.0916 13.0688 37.2027 13.03C37.2234 13.0224 37.2441 13.0149 37.2653 13.0068C37.3919 12.9604 37.5157 12.9082 37.6361 12.8504C37.646 12.8457 37.6568 12.8424 37.6672 12.8371L33.3287 25.9832ZM38.2164 11.2733C38.1538 11.3406 38.0879 11.4036 38.0211 11.4647C38.0032 11.4808 37.9863 11.4974 37.9684 11.5131C37.9086 11.5652 37.846 11.6135 37.7834 11.6609C37.7543 11.6827 37.726 11.7058 37.6959 11.7267C37.647 11.7613 37.5957 11.7921 37.5448 11.8234C37.4992 11.8518 37.4545 11.8812 37.4074 11.9072C37.3735 11.9262 37.3383 11.9417 37.3039 11.9593C37.2399 11.992 37.1759 12.0252 37.1091 12.0537C37.0926 12.0608 37.0752 12.0659 37.0582 12.073C36.7759 12.1886 36.4752 12.2672 36.1608 12.2994C36.0497 12.3113 35.9368 12.3175 35.8234 12.3175C35.701 12.3175 35.5801 12.3104 35.4601 12.2967C35.3702 12.2867 35.2822 12.2692 35.1942 12.2517C35.165 12.246 35.1344 12.2431 35.1052 12.2365C35.022 12.2176 34.9405 12.1914 34.8586 12.1658C34.8252 12.1554 34.7909 12.1478 34.7579 12.1365C34.6986 12.1161 34.6422 12.0896 34.5843 12.0655C34.5288 12.0422 34.4723 12.0219 34.4186 11.9963C34.389 11.9821 34.3607 11.964 34.3316 11.9489C34.2501 11.9062 34.1683 11.8636 34.0901 11.8144C34.0887 11.8139 34.0878 11.813 34.0869 11.812C33.7956 11.6273 33.5325 11.3927 33.3047 11.118C33.3071 11.1094 33.309 11.1009 33.3113 11.0924C33.3297 11.0265 33.3475 10.9607 33.3621 10.8948C33.492 10.892 33.62 10.8821 33.7476 10.8702C33.7626 10.8688 33.7786 10.8687 33.7937 10.8673C33.9621 10.8498 34.1283 10.8233 34.292 10.7906C34.333 10.7826 34.373 10.7716 34.4134 10.7626C34.5372 10.7347 34.6601 10.7035 34.7805 10.6675C34.8252 10.6542 34.869 10.6399 34.9132 10.6252C35.0365 10.585 35.1575 10.54 35.277 10.4912C35.3085 10.4784 35.3405 10.4661 35.3716 10.4528C35.8398 10.25 36.2742 9.98242 36.6639 9.66027C36.6733 9.65269 36.6822 9.64508 36.6912 9.63703C36.8154 9.53327 36.9345 9.42376 37.0493 9.30959C37.0554 9.30343 37.0615 9.29781 37.0672 9.29212C37.4225 8.93302 37.7288 8.52461 37.974 8.07502C37.9914 8.04328 38.0074 8.01112 38.0239 7.9789C38.0804 7.87042 38.1336 7.76052 38.1825 7.64777C38.2056 7.59565 38.2277 7.54351 38.2489 7.49093C38.2865 7.3976 38.3204 7.30234 38.3529 7.20617C38.3755 7.14032 38.3985 7.07496 38.4187 7.00816C38.4197 7.00437 38.4216 7.00061 38.4225 6.99682C38.5096 7.11242 38.5999 7.22514 38.6738 7.35352C38.6743 7.35447 38.6757 7.35547 38.6766 7.35641C38.9599 7.85101 39.1181 8.41282 39.1181 9.00216C39.1176 9.88049 38.7731 10.6792 38.2164 11.2733ZM34.5932 13.5227L35.2587 14.1926L34.5932 14.8625L33.9278 14.1926L34.5932 13.5227ZM35.9255 16.2031L35.2601 15.5333L35.9255 14.8634L36.5909 15.5333L35.9255 16.2031ZM32.5969 14.1926L33.2624 14.8625L32.5969 15.5323L31.9315 14.8625L32.5969 14.1926ZM34.5927 16.2036L33.9273 16.8735L33.2619 16.2036L33.9273 15.5338L34.5927 16.2036ZM35.2573 18.2129L34.5918 17.5429L35.2573 16.873L35.9227 17.5429L35.2573 18.2129ZM31.9301 16.2022L32.5955 16.8721L31.9301 17.542L31.2647 16.8721L31.9301 16.2022ZM33.2619 18.8827L32.5965 18.2129L33.2619 17.5429L33.9273 18.2129L33.2619 18.8827ZM34.5937 20.2229L33.9283 19.553L34.5937 18.8831L35.2591 19.553L34.5937 20.2229ZM32.5974 19.5526L33.2628 20.2225L32.5979 20.8924L31.9324 20.2225L32.5974 19.5526ZM33.9283 22.233L33.2628 21.5632L33.9283 20.8933L34.5937 21.5632L33.9283 22.233ZM33.2619 24.2432L32.5965 23.5733L33.2619 22.9034L33.9273 23.5733L33.2619 24.2432Z" fill="#1ED9AC"/>
<rect width="20" height="23" fill="black" fill-opacity="0" transform="translate(5 5)"/>
<path fill-rule="evenodd" clip-rule="evenodd" d="M25 17.2416C25 16.336 24.527 15.4671 23.6284 14.7167C23.6545 14.5697 23.6678 14.4223 23.6678 14.2761C23.6678 13.1258 22.8944 12.0537 21.4838 11.2407C21.4505 10.4445 21.2178 7.88277 19.631 6.38888C18.7358 5.54656 17.5723 5.19168 16.1693 5.33552C16.0395 5.34881 15.9256 5.43007 15.8677 5.55085C15.8099 5.67201 15.8163 5.81507 15.8844 5.92959C16.1239 6.33218 16.5435 7.30348 16.3123 7.73539C16.2128 7.92183 15.9608 8.01838 15.5635 8.02229C14.5873 8.03245 13.6342 8.15874 12.7784 8.3788C12.663 8.21112 12.5358 8.05006 12.3921 7.90153C11.484 6.96384 10.2861 6.54288 9.19674 6.6617C9.0314 6.33728 8.78812 5.99176 8.42791 5.69861C7.66815 5.07987 6.62272 4.87038 5.32114 5.07715C5.11455 5.10998 4.97267 5.30933 5.00446 5.52274C5.03586 5.73655 5.23146 5.88309 5.43578 5.84986C6.51715 5.67906 7.36394 5.83231 7.95193 6.30643C8.15511 6.4702 8.3057 6.65896 8.42299 6.84735C8.02987 6.99666 7.66738 7.22649 7.36015 7.54387L7.01432 7.90114C5.7222 9.23595 5.87771 11.5678 7.36015 13.0992C7.45058 13.1927 7.54519 13.2791 7.64319 13.3608C7.52665 13.6652 7.46724 13.9721 7.46724 14.2758C7.46724 14.4223 7.48049 14.5697 7.50622 14.7163C6.60798 15.4668 6.13464 16.3356 6.13464 17.2413C6.13464 17.9003 6.38284 18.5335 6.86791 19.1256L8.29662 22.7615L8.31477 22.8013C9.51949 25.0894 10.5354 25.6722 12.7356 26.5435C13.5037 26.8475 14.5843 27 15.6638 27C16.7437 27 17.8224 26.8476 18.5852 26.5431C20.7892 25.6632 21.8043 25.082 22.9856 22.8381L24.821 18.1876L24.8203 18.1867C24.9387 17.876 25 17.559 25 17.2416ZM9.27016 9.37042C9.67993 9.37042 10.0901 9.20936 10.4026 8.8869C10.5505 8.73446 10.5505 8.48706 10.4026 8.33424C10.2547 8.18141 10.0152 8.18141 9.86722 8.33424C9.53804 8.6739 9.0019 8.6739 8.67273 8.33424C8.52478 8.18141 8.28528 8.18141 8.13771 8.33424C7.98977 8.48706 7.98977 8.73407 8.13771 8.8869C8.44987 9.20936 8.86001 9.37042 9.27016 9.37042ZM7.54933 8.45381L7.89516 8.09658C8.13429 7.84955 8.41998 7.67718 8.72986 7.56539C8.77072 7.72486 8.78434 7.83547 8.7851 7.84251C8.8025 8.04576 8.96747 8.19897 9.16157 8.19897C9.17217 8.19897 9.18276 8.19857 9.19335 8.1974C9.40183 8.17942 9.55621 7.99064 9.53881 7.77528C9.53729 7.75886 9.52518 7.62557 9.47789 7.42545C9.50551 7.42466 9.53199 7.41805 9.55962 7.41805C10.3504 7.41805 11.1953 7.77018 11.8567 8.45381C12.0228 8.625 12.162 8.81616 12.2797 9.01863C12.2804 9.01981 12.2801 9.02137 12.2808 9.02255C12.5218 9.43999 12.6482 9.89965 12.6705 10.3601C12.6713 10.3785 12.6728 10.3968 12.6732 10.4156C12.6774 10.5586 12.6721 10.7017 12.6558 10.8436C12.6539 10.8588 12.6512 10.8741 12.6493 10.8893C12.6115 11.1801 12.5305 11.465 12.4083 11.7332C12.4011 11.7492 12.394 11.7653 12.3864 11.7809C12.3251 11.9091 12.2543 12.0334 12.1738 12.1526C12.1624 12.1694 12.1499 12.1854 12.1382 12.2022C12.0534 12.3222 11.9611 12.4383 11.857 12.5462C11.7454 12.6615 11.6251 12.7631 11.4999 12.8553C11.4897 12.8628 11.4798 12.8714 11.4696 12.8784C11.3432 12.9683 11.2112 13.0469 11.0746 13.1133C11.0674 13.1168 11.0606 13.1204 11.0534 13.1235C10.6289 13.326 10.1631 13.4139 9.70074 13.385C9.68977 13.3842 9.67917 13.3842 9.6682 13.3834C9.5214 13.3725 9.37497 13.3486 9.23044 13.3139C9.21682 13.3103 9.20318 13.3068 9.18956 13.3033C9.04465 13.2658 8.90125 13.2173 8.76201 13.1548C8.75595 13.152 8.74991 13.1485 8.74385 13.1458C8.60008 13.0801 8.4597 13.0023 8.325 12.9097C8.32387 12.9089 8.32234 12.9089 8.32159 12.9081C8.16986 12.8034 8.02683 12.6822 7.89516 12.5458C6.70785 11.3196 6.55272 9.48374 7.54933 8.45381ZM15.6611 12.8738C17.2976 12.8738 18.8565 12.6572 20.1686 12.2479C20.3688 12.1858 20.4819 11.9677 20.4214 11.7609C20.3608 11.5546 20.1493 11.4381 19.9496 11.4999C18.7074 11.8872 17.2242 12.092 15.6608 12.092C15.4519 12.092 15.2824 12.2667 15.2824 12.4829C15.2824 12.699 15.4523 12.8738 15.6611 12.8738ZM8.71584 15.8048C9.09421 16.0092 9.49907 16.1934 9.91944 16.3513C9.96219 16.3673 10.0061 16.3751 10.0488 16.3751C10.2032 16.3751 10.3485 16.2766 10.4041 16.1183C10.4756 15.915 10.3746 15.6911 10.1782 15.6172C9.78926 15.4706 9.41507 15.3006 9.06622 15.1126C8.8812 15.0118 8.65267 15.0868 8.55543 15.2775C8.45895 15.4687 8.53082 15.7048 8.71584 15.8048ZM13.2661 17.1478C14.0255 17.2444 14.7943 17.2925 15.5666 17.2925C16.402 17.2925 17.242 17.2358 18.0804 17.1232C18.2878 17.0959 18.4338 16.8996 18.407 16.6855C18.3801 16.4713 18.1909 16.3208 17.9828 16.3485C16.4323 16.5564 14.8764 16.5647 13.3584 16.3724C13.1541 16.3458 12.9623 16.4982 12.9365 16.7124C12.9112 16.927 13.0587 17.1217 13.2661 17.1478ZM19.7702 16.4103C19.8164 16.5842 19.9685 16.6983 20.1349 16.6983C20.1679 16.6983 20.2016 16.6941 20.2349 16.6847C21.0714 16.4486 21.821 16.1519 22.4623 15.8021C22.6469 15.7009 22.7177 15.4648 22.6201 15.2736C22.5228 15.0829 22.2935 15.0102 22.1089 15.1103C21.5164 15.4335 20.8187 15.7095 20.0354 15.9303C19.8341 15.9874 19.7153 16.202 19.7702 16.4103ZM8.1555 15.1861C8.28301 15.0887 8.33824 14.9187 8.2936 14.7616C8.24744 14.5998 8.22397 14.4364 8.22397 14.2761C8.22397 14.1186 8.24818 13.9576 8.29699 13.7946C8.32461 13.8087 8.35261 13.82 8.38061 13.8329C8.58153 13.9295 8.79076 14.0057 9.00643 14.0616C9.03897 14.0702 9.07152 14.0795 9.10444 14.087C9.16763 14.1014 9.23118 14.1128 9.29512 14.1237C9.33296 14.13 9.37081 14.1358 9.40902 14.1409C9.47259 14.1495 9.53615 14.1573 9.6001 14.162C9.63604 14.1647 9.67198 14.1659 9.70792 14.1675C9.76392 14.1702 9.81954 14.1761 9.8763 14.1761C10.0579 14.1761 10.2361 14.1577 10.4124 14.1304C10.4276 14.128 10.4423 14.1261 10.4575 14.1237C10.54 14.1097 10.6213 14.0929 10.7019 14.0729C10.7095 14.071 10.717 14.069 10.7246 14.0671C10.9838 14.0018 11.2339 13.9076 11.4715 13.7841C11.4764 13.7817 11.481 13.7794 11.4859 13.777C11.5479 13.7446 11.6081 13.709 11.6683 13.6727C11.7019 13.6523 11.7356 13.632 11.7685 13.6105C11.8169 13.5788 11.8646 13.5464 11.9119 13.5124C11.9596 13.478 12.0061 13.4413 12.0527 13.4045C12.0871 13.3768 12.1223 13.3502 12.1556 13.3209C12.2369 13.2509 12.316 13.1778 12.3921 13.0992C12.5082 12.9792 12.6119 12.8507 12.7095 12.7178C12.7299 12.69 12.75 12.6627 12.7693 12.6345C12.9581 12.3625 13.1083 12.0674 13.2177 11.7555C13.226 11.7316 13.2343 11.7085 13.2422 11.6847C13.3433 11.3775 13.4042 11.0554 13.4235 10.7248C13.4254 10.6896 13.4273 10.6548 13.4284 10.6196C13.4295 10.5797 13.4341 10.5402 13.4341 10.5C13.4341 10.1986 13.3951 9.90434 13.3274 9.61901C13.3247 9.60845 13.3225 9.59789 13.3198 9.58694C13.2774 9.41457 13.2264 9.24495 13.1602 9.08157C13.9067 8.90802 14.7307 8.81263 15.5715 8.80364C16.2624 8.79582 16.7346 8.56364 16.9752 8.1118C17.3059 7.49189 17.0554 6.64488 16.8148 6.08633C17.7373 6.09845 18.511 6.39277 19.119 6.96382C20.726 8.47373 20.7328 11.4447 20.7328 11.4744C20.7324 11.6206 20.8111 11.7554 20.9367 11.8231C22.2099 12.5075 22.9114 13.3783 22.9114 14.2754C22.9114 14.4352 22.888 14.5986 22.8418 14.7608C22.7972 14.9179 22.852 15.088 22.9799 15.1853C23.5565 15.6262 24.244 16.3403 24.244 17.2409C24.244 17.3835 24.2262 17.5274 24.1903 17.6716C24.1827 17.6677 24.1744 17.6669 24.1668 17.6634C24.0692 17.6169 23.9682 17.5794 23.8626 17.554C23.8498 17.5508 23.8365 17.5493 23.8237 17.5465C23.7196 17.5243 23.6129 17.5109 23.5021 17.5086C23.4934 17.5086 23.485 17.507 23.4763 17.507C23.364 17.5062 23.2478 17.5184 23.1293 17.5379C23.1063 17.5419 23.0832 17.5454 23.0597 17.5501C22.9432 17.5731 22.8244 17.6048 22.7029 17.647C22.6806 17.6548 22.6583 17.6642 22.636 17.6724C22.5156 17.7173 22.3934 17.7697 22.2686 17.833C22.2595 17.8377 22.2508 17.8412 22.2413 17.8459C22.1119 17.9128 21.9802 17.9925 21.8474 18.0789C21.8202 18.0965 21.7933 18.1137 21.7665 18.1316C21.6359 18.2196 21.5043 18.3169 21.3711 18.4233C21.3454 18.4436 21.32 18.4655 21.2943 18.4866C21.1543 18.6019 21.0135 18.7234 20.8709 18.8586C19.864 18.152 18.4622 18.6202 17.4138 19.5567C16.3997 18.7531 14.9729 18.7539 13.9596 19.5575C13.8802 19.4876 13.7985 19.4207 13.7156 19.3562C13.691 19.3371 13.666 19.3187 13.6411 19.3003C13.579 19.2538 13.5162 19.2093 13.4526 19.1663C13.4269 19.1487 13.4012 19.1311 13.3754 19.1143C13.2892 19.0584 13.2022 19.0048 13.1136 18.9556C13.1129 18.9552 13.1125 18.9548 13.1117 18.9544C13.0224 18.9048 12.9316 18.8602 12.8408 18.8184C12.8147 18.8063 12.789 18.7957 12.7629 18.7844C12.6944 18.7547 12.6255 18.7273 12.5566 18.7019C12.5302 18.6921 12.504 18.6824 12.4779 18.6738C12.386 18.6429 12.2937 18.6148 12.2017 18.5929H12.2014C12.1087 18.5706 12.016 18.5546 11.9236 18.5421C11.8991 18.5385 11.8745 18.5366 11.8495 18.5342C11.7799 18.5268 11.7102 18.5225 11.6414 18.521C11.6255 18.5206 11.6096 18.5178 11.5941 18.5178C11.5846 18.5178 11.5752 18.5198 11.5657 18.5198C11.3845 18.5221 11.207 18.5464 11.0352 18.5945C11.0118 18.6011 10.9891 18.6093 10.9656 18.6167C10.9013 18.6375 10.8381 18.6616 10.7761 18.6898C10.7526 18.7003 10.7295 18.7101 10.7064 18.7218C10.6255 18.7625 10.5456 18.807 10.4688 18.8606C10.3791 18.7758 10.2899 18.6953 10.201 18.6183C10.1722 18.5936 10.1442 18.571 10.1158 18.5471C10.0553 18.4963 9.99512 18.4459 9.93496 18.399C9.90204 18.3732 9.86912 18.349 9.83658 18.3244C9.78171 18.2829 9.72685 18.2419 9.67199 18.2032C9.63756 18.1789 9.60311 18.1559 9.56906 18.1328C9.51685 18.0977 9.46501 18.0636 9.41318 18.0312C9.37837 18.0097 9.34355 17.9886 9.30912 17.9683C9.25804 17.9382 9.20735 17.9096 9.15702 17.8827C9.12335 17.8643 9.08929 17.8463 9.05562 17.8295C9.00454 17.8037 8.95422 17.7807 8.90389 17.758C8.87173 17.7435 8.83958 17.7287 8.8078 17.7154C8.75521 17.6935 8.70336 17.6747 8.65153 17.6564C8.62315 17.6462 8.5944 17.6349 8.5664 17.6259C8.50662 17.6067 8.44797 17.5911 8.38932 17.5762C8.37002 17.5715 8.35034 17.5649 8.33142 17.5606C8.25386 17.5434 8.17781 17.5297 8.10289 17.5207C8.08775 17.5188 8.07301 17.5192 8.05788 17.5176C7.99885 17.5118 7.93981 17.5074 7.8823 17.5066C7.85543 17.507 7.83047 17.509 7.80512 17.5098C7.75896 17.5114 7.71318 17.5129 7.66815 17.518C7.64053 17.5211 7.6133 17.5258 7.58605 17.5301C7.54443 17.5368 7.50319 17.5442 7.46308 17.5535C7.43546 17.5602 7.40858 17.568 7.38172 17.5758C7.34275 17.5876 7.30379 17.6004 7.26595 17.6149C7.24022 17.6251 7.21449 17.636 7.18914 17.6474C7.15093 17.6645 7.11346 17.6833 7.07638 17.7037C7.05292 17.7166 7.02946 17.7291 7.00638 17.7435C6.99427 17.751 6.98142 17.7568 6.96931 17.7646C6.91786 17.5915 6.89174 17.4168 6.89174 17.2416C6.89174 16.3411 7.57887 15.627 8.1555 15.1861ZM11.1226 21.3227C11.0341 21.1273 10.8093 21.0432 10.6194 21.1347C10.4302 21.2257 10.3485 21.4587 10.437 21.6542L11.4829 23.9618C11.5472 24.1037 11.6834 24.187 11.8256 24.187C11.8794 24.187 11.9339 24.1752 11.9857 24.1498C12.1749 24.0588 12.2566 23.8258 12.1681 23.6303L11.1226 21.3227ZM20.7014 21.1347C20.5126 21.0428 20.2867 21.1269 20.1982 21.3227L19.1523 23.6303C19.0638 23.8258 19.1451 24.0588 19.3347 24.1498C19.3865 24.1748 19.441 24.187 19.4948 24.187C19.637 24.187 19.7732 24.1037 19.8376 23.9618L20.8834 21.6542C20.9719 21.4587 20.8906 21.2257 20.7014 21.1347ZM17.4618 21.9211C17.2552 21.8894 17.0615 22.0337 17.0293 22.2471L16.6809 24.5547C16.6487 24.7681 16.7902 24.9683 16.9964 25.0015C17.0161 25.0046 17.0358 25.0062 17.0554 25.0062C17.2386 25.0062 17.3997 24.8682 17.4289 24.6755L17.7774 22.3678C17.8091 22.1544 17.668 21.9543 17.4618 21.9211ZM13.859 21.9211C13.6528 21.9543 13.5113 22.1544 13.5434 22.3678L13.8919 24.6755C13.921 24.8682 14.0822 25.0062 14.2653 25.0062C14.2846 25.0062 14.3047 25.0046 14.3244 25.0015C14.5306 24.9683 14.6721 24.7681 14.6399 24.5547L14.2915 22.2471C14.2589 22.0337 14.0656 21.8894 13.859 21.9211ZM22.311 22.4843C21.2455 24.5012 20.4115 24.9765 18.3127 25.8145C16.9798 26.3465 14.3512 26.3469 13.0069 25.8141C10.9126 24.9843 10.0787 24.5082 8.99017 22.4476L7.54933 18.7809C7.54933 18.7805 7.54934 18.7801 7.54896 18.7797L7.40329 18.4099C8.33748 17.8651 9.86759 19.3394 10.1831 19.6603L10.4488 19.93L10.7144 19.6603C11.5517 18.8086 12.9509 19.613 13.6872 20.3619L13.9539 20.6332L14.2196 20.3604C15.0281 19.529 16.3449 19.529 17.1542 20.3604L17.4209 20.6344L17.6881 20.3604C18.3604 19.6689 19.5928 18.9322 20.4278 19.4981C20.4952 19.5439 20.5606 19.5954 20.6223 19.6587L20.8887 19.9324L21.1554 19.6599C21.1554 19.6599 21.1558 19.6599 21.1558 19.6596C21.197 19.6173 21.2595 19.5548 21.3382 19.4802C21.3454 19.4731 21.354 19.4653 21.3616 19.4583C21.3934 19.4285 21.4271 19.3973 21.4634 19.3641C21.4804 19.3488 21.499 19.3324 21.5168 19.3164C21.547 19.2894 21.5773 19.2624 21.6102 19.2343C21.6337 19.214 21.659 19.1928 21.6836 19.1721C21.7135 19.1471 21.7434 19.1221 21.7748 19.0963C21.8039 19.0725 21.8342 19.0486 21.8649 19.0252C21.8947 19.0017 21.9246 18.9787 21.9553 18.9552C21.9886 18.9298 22.023 18.9048 22.0575 18.8802C22.0877 18.8583 22.1184 18.8368 22.1494 18.8153C22.1853 18.7903 22.2217 18.766 22.2587 18.7418C22.2905 18.7211 22.3223 18.7011 22.3545 18.6812C22.3919 18.6577 22.4301 18.6351 22.4684 18.6132C22.5013 18.5944 22.5342 18.5765 22.5671 18.5589C22.6053 18.5385 22.6435 18.5182 22.6821 18.4998C22.7166 18.483 22.751 18.4682 22.7858 18.4533C22.8236 18.4369 22.8615 18.4205 22.8989 18.406C22.9349 18.3924 22.9708 18.3814 23.0068 18.3701C23.0431 18.3583 23.079 18.3462 23.1153 18.3372C23.1543 18.3275 23.1925 18.3212 23.2311 18.3146C23.2637 18.3087 23.2962 18.3017 23.3284 18.2982C23.3734 18.2935 23.4169 18.2942 23.4612 18.2946C23.4861 18.2946 23.5115 18.2923 23.5357 18.2942C23.67 18.3044 23.7979 18.3419 23.9167 18.4115L22.311 22.4843Z" fill="#1ED9AC"/>
</svg>
