<svg width="45" height="28" viewBox="0 0 45 28" fill="none" xmlns="http://www.w3.org/2000/svg">
<rect width="45" height="28" fill="black" fill-opacity="0"/>
<rect width="18" height="20" fill="black" fill-opacity="0" transform="translate(26 8)"/>
<path fill-rule="evenodd" clip-rule="evenodd" d="M43.9895 9.56907C43.9915 9.55764 43.991 9.54522 43.992 9.53332C43.997 9.49903 44 9.46429 44 9.42857C44 8.91048 43.5205 8.55715 41.069 8.28239C39.4445 8.10048 37.2895 8 35 8C32.7105 8 30.5555 8.10048 28.931 8.28239C26.4795 8.55715 26 8.91048 26 9.42857C26 9.46381 26.003 9.49811 26.0075 9.53192C26.009 9.54431 26.0085 9.55716 26.0105 9.56907L26.641 16.7671C26.641 16.7691 26.6405 16.7709 26.641 16.7728L27.31 24.4171C27.3105 24.4205 27.312 24.4233 27.3125 24.4262L27.5 26.5714C27.5 27.0743 27.9575 27.4229 30.2955 27.7167C31.7045 27.8938 33.4635 28 35 28C36.5365 28 38.2955 27.8938 39.7045 27.7167C42.0425 27.4229 42.5 27.0738 42.498 26.611L43.3615 16.7433C43.3645 16.7195 43.367 16.6957 43.368 16.6719L43.9895 9.56907ZM27.8475 19.0933L27.704 17.4557C27.9365 17.5153 28.218 17.5709 28.555 17.6233C28.5755 17.6267 28.5965 17.63 28.6175 17.6333C28.6625 17.64 28.706 17.6471 28.7525 17.6538C28.607 18.1233 28.713 18.651 29.0885 19.0338L30.691 20.6671C30.9635 20.9452 31.335 21.1057 31.736 21.1185C31.7535 21.119 31.771 21.1195 31.7885 21.1195C31.793 21.1195 31.797 21.1185 31.8015 21.1185C31.8255 21.4443 31.957 21.7505 32.1935 21.9914L33.796 23.6248C34.091 23.9257 34.4915 24.0776 34.8925 24.0776C35.2595 24.0776 35.627 23.95 35.9155 23.6934L37.6305 22.1671C37.9225 21.9076 38.0905 21.5538 38.1045 21.1714C38.118 20.7895 37.9755 20.4262 37.7025 20.1481L37.4625 19.9033C37.7265 19.8505 37.971 19.7324 38.1725 19.5533L39.8875 18.0271C39.9685 17.9552 40.037 17.8762 40.0975 17.7928C41.108 17.6976 41.811 17.5862 42.295 17.4628L41.7215 24.0167C40.403 24.3524 37.53 24.6128 35 24.6128C32.47 24.6128 29.597 24.3524 28.2785 24.0167L27.8475 19.0933ZM42.915 10.3848L42.4385 15.8357C41.854 15.669 40.903 15.5238 39.374 15.4109L38.3575 14.3747C37.7925 13.7995 36.8415 13.7681 36.2375 14.3062L35.1605 15.2643L35.0405 15.2638C34.23 15.2638 33.4295 15.279 32.6545 15.3067C32.1465 15.0233 31.502 15.0466 31.016 15.3871C29.243 15.5038 28.1885 15.6676 27.5625 15.8467L27.0855 10.3848C28.2505 10.7029 30.568 10.8571 35 10.8571C39.4325 10.8571 41.7495 10.7029 42.915 10.3848ZM29.147 16.7448C29.1355 16.7433 29.1235 16.7419 29.112 16.7405C28.828 16.7033 28.593 16.6662 28.4 16.6305C28.7465 16.5672 29.2075 16.5014 29.8055 16.4409L29.556 16.6633L29.425 16.7791C29.4235 16.7791 29.422 16.7786 29.421 16.7786C29.3245 16.7676 29.234 16.7562 29.147 16.7448ZM31.5585 16.1848C31.655 16.099 31.7775 16.0566 31.9 16.0566C32.034 16.0566 32.167 16.1071 32.2655 16.2071L33.061 17.0181C32.204 16.9929 31.4305 16.9524 30.752 16.9019L31.026 16.6581L31.5585 16.1848ZM35.698 16.0891L36.92 15.0014C37.0165 14.9157 37.139 14.8733 37.2615 14.8733C37.3955 14.8733 37.5285 14.9238 37.6265 15.0238L39.229 16.6576C39.27 16.6991 39.297 16.7476 39.319 16.7971C39.327 16.8162 39.3335 16.8357 39.339 16.8552C39.3435 16.8705 39.344 16.8862 39.347 16.9019C38.21 16.9876 36.7825 17.0462 35.083 17.0472C35.0815 17.0438 35.0785 17.0414 35.077 17.0381C35.0755 17.0343 35.0765 17.03 35.075 17.0262C35.015 16.8547 35.058 16.6586 35.205 16.5276L35.698 16.0891ZM40.2505 16.4424C40.8375 16.5029 41.2895 16.569 41.6285 16.6314C41.3215 16.6886 40.9065 16.7505 40.3495 16.8095C40.349 16.8067 40.3475 16.8043 40.3475 16.8014C40.332 16.6833 40.301 16.5676 40.2545 16.4552C40.2525 16.4514 40.2525 16.4467 40.2505 16.4424ZM34.1955 16.2624C34.181 16.2914 34.1695 16.321 34.157 16.3505C34.1365 16.4 34.1185 16.4505 34.104 16.5014C34.0945 16.5343 34.086 16.5672 34.079 16.6005C34.0755 16.6167 34.0695 16.6324 34.067 16.649L33.6555 16.2295C33.8405 16.2257 34.027 16.2224 34.2135 16.2204C34.2065 16.2343 34.2025 16.2485 34.1955 16.2624ZM29.793 17.7771C31.2455 17.9186 32.892 17.971 33.9635 17.9895C34.0375 18.1667 33.998 18.3757 33.8435 18.5138L32.128 20.0395C32.0315 20.1257 31.905 20.1691 31.77 20.1667C31.6355 20.1624 31.512 20.109 31.4215 20.0171L29.819 18.3838C29.6515 18.2124 29.6505 17.9586 29.793 17.7771ZM32.948 20.6681L34.663 19.1419C34.7555 19.0595 34.876 19.0148 35.0035 19.0148H35.0215C35.156 19.0195 35.2795 19.0724 35.37 19.1643L36.9725 20.7976C37.1605 20.9895 37.15 21.2914 36.9485 21.4709L35.2335 22.9972C35.1365 23.0833 35.0075 23.1291 34.8755 23.1238C34.741 23.1195 34.6175 23.0662 34.527 22.9743L32.9245 21.3409C32.7365 21.1486 32.747 20.8472 32.948 20.6681ZM36.7835 18.8343L35.957 17.9919C36.6295 17.9814 37.571 17.9576 38.5625 17.9029L37.49 18.8572C37.2885 19.0362 36.971 19.0257 36.7835 18.8343ZM35 8.95238C38.5075 8.95238 41.098 9.18619 42.334 9.42857C41.098 9.67095 38.5075 9.90476 35 9.90476C31.4925 9.90476 28.902 9.67095 27.666 9.42857C28.902 9.18619 31.4925 8.95238 35 8.95238ZM35 27.0476C32.1675 27.0476 29.1435 26.6886 28.4855 26.3833L28.3655 25.0143C30.003 25.3619 32.833 25.5643 35 25.5643C37.1675 25.5643 39.9985 25.3614 41.636 25.0138L41.5165 26.3829C40.862 26.6876 37.835 27.0476 35 27.0476Z" fill="#D56A9E"/>
<rect width="26" height="28" fill="black" fill-opacity="0" transform="translate(1)"/>
<path fill-rule="evenodd" clip-rule="evenodd" d="M26.7586 0.0905887C26.5091 -0.0737448 26.1697 -0.00841404 26.0024 0.237283L24.05 3.10159C22.0132 2.24727 18.6554 1.77088 15.3673 1.77088C13.2057 1.77088 11.1318 1.97487 9.32162 2.34903C8.48597 1.21154 7.12954 0.466898 5.59607 0.466898C3.06189 0.466898 1 2.49302 1 4.98372C1 7.47442 3.06189 9.50048 5.59607 9.50048C6.10705 9.50048 6.60712 9.41532 7.08868 9.25152C7.51195 9.83499 7.97281 10.4474 8.45437 11.0715C8.50122 11.1732 8.57531 11.2675 8.67391 11.3547C10.4999 13.702 12.5574 16.1471 13.8196 17.6224C14.153 18.0126 14.6013 18.2765 15.0949 18.3851V24.2594C13.3517 24.2974 9.10262 24.5512 9.10262 26.1265C9.10262 27.9096 14.5485 28 15.6402 28C16.7319 28 22.1766 27.9096 22.1766 26.1265C22.1766 24.5512 17.9276 24.2974 16.1844 24.2594V18.3648C16.6698 18.2428 17.1066 17.973 17.427 17.579C19.3516 15.2146 20.9471 13.1725 22.2262 11.4419C22.3722 11.3236 22.4675 11.1936 22.5155 11.0501C24.6362 8.14889 25.7905 6.19826 25.9627 5.2219C25.9801 5.14428 25.9904 5.06504 25.9904 4.98261C25.9904 4.46766 25.6342 4.00627 25.0197 3.60427L26.9084 0.833602C27.075 0.587905 27.008 0.255458 26.7586 0.0905887ZM9.86746 3.32375C11.5175 3.01114 13.4421 2.84146 15.3673 2.84146C19.0612 2.84146 21.8503 3.41852 23.4301 4.01162L22.0083 6.09762C20.4803 6.37651 18.3035 6.58848 15.3673 6.58848C13.3974 6.58848 11.5567 6.48568 9.99438 6.28816C10.0058 6.25176 10.0096 6.21433 10.02 6.17793C10.0587 6.04089 10.0903 5.90225 10.1153 5.76254C10.1262 5.70205 10.1387 5.64211 10.1469 5.58109C10.1741 5.38356 10.1916 5.18499 10.1916 4.98372C10.1916 4.83705 10.1834 4.69146 10.1692 4.54586C10.1611 4.457 10.1453 4.37025 10.1311 4.28246C10.1224 4.22947 10.117 4.17595 10.1061 4.12296C10.0843 4.01216 10.0554 3.90346 10.0254 3.79533C10.0178 3.76803 10.0118 3.73971 10.0037 3.71241C9.96824 3.59411 9.92683 3.47899 9.88216 3.36551C9.87671 3.35212 9.87291 3.33767 9.86746 3.32375ZM21.9108 10.0352C21.6608 9.90671 21.3241 9.78628 20.8774 9.68082L22.6615 7.06384C23.2095 6.94983 23.721 6.81384 24.1721 6.65218C23.691 7.47599 22.9556 8.5899 21.9108 10.0352ZM20.221 10.6438C20.5724 10.7022 20.8622 10.7637 21.0817 10.8258C20.8066 10.9125 20.4073 11.003 19.9192 11.0871L20.221 10.6438ZM18.4789 11.2749C17.6634 11.3536 16.7139 11.4061 15.6396 11.4061C13.1212 11.4061 10.9379 11.109 9.94262 10.8269C10.8932 10.5828 12.948 10.3355 15.6396 10.3355C16.953 10.3355 18.0937 10.3965 19.0149 10.4881L18.4789 11.2749ZM19.7067 9.47369C18.7088 9.34415 17.3877 9.26439 15.6396 9.26439C11.7272 9.26439 9.88163 9.63858 9.04326 10.0609C8.58675 9.46408 8.15259 8.88061 7.75873 8.3298L7.73094 8.29072C7.70315 8.25165 7.67919 8.21686 7.65195 8.17885C7.55172 8.037 7.45257 7.8962 7.35778 7.75863C7.32074 7.70511 7.28696 7.6553 7.2521 7.60338C7.15786 7.46581 7.06634 7.32936 6.97755 7.19446C6.95412 7.15914 6.92961 7.12215 6.90728 7.08789C6.81794 6.95139 6.73296 6.81811 6.65234 6.6891C6.96993 6.79616 7.33 6.8947 7.72876 6.98569C7.94993 7.03601 8.18091 7.08467 8.42714 7.13017L8.42168 7.14088L9.15165 7.25171L9.54877 7.31169L9.55095 7.30685C11.2244 7.53542 13.2215 7.65748 15.3667 7.65748C16.5363 7.65748 18.9479 7.61516 21.1781 7.31326L19.7067 9.47369ZM5.59607 8.42931C3.6622 8.42931 2.0895 6.88341 2.0895 4.98313C2.0895 3.08286 3.66275 1.53695 5.59607 1.53695C6.87406 1.53695 7.99134 2.21463 8.60419 3.22097C8.76325 3.48272 8.88527 3.76216 8.96916 4.05121C8.97406 4.06781 8.97789 4.08441 8.98224 4.10101C9.01493 4.22091 9.03944 4.34245 9.05905 4.46503C9.06395 4.49554 9.0694 4.526 9.07321 4.55651C9.09119 4.69783 9.10317 4.83969 9.10317 4.98261C9.10317 5.15658 9.08465 5.3284 9.0585 5.49862C9.05196 5.54091 9.04434 5.58323 9.03617 5.62552C9.00294 5.79467 8.96154 5.96217 8.90162 6.1265C8.73656 6.09813 8.58239 6.06982 8.43477 6.04038C8.33835 6.02111 8.24845 6.00182 8.15857 5.98255C8.1139 5.97292 8.06651 5.96324 8.02348 5.9536C7.91943 5.93005 7.82082 5.90653 7.72603 5.88245C7.70479 5.87709 7.68246 5.87172 7.66121 5.86637C7.56098 5.84068 7.46673 5.81503 7.37685 5.78933C7.36432 5.78559 7.3518 5.78236 7.33981 5.77862C7.24993 5.75239 7.16495 5.7267 7.08488 5.70047C7.07344 5.69672 7.06199 5.69297 7.05055 5.68923C6.97537 5.6646 6.90456 5.63995 6.8381 5.61532C6.81958 5.60837 6.80214 5.60196 6.7847 5.595C6.73077 5.57466 6.67958 5.55482 6.63164 5.53502C6.59297 5.51896 6.55592 5.50291 6.52106 5.48738C6.49981 5.47775 6.47802 5.46866 6.45787 5.45902C5.90549 5.19941 5.83956 5.00028 5.83902 4.99653L5.83739 4.99764C5.8363 4.99229 5.83412 4.98637 5.83412 4.98209H5.82976C5.74859 4.72301 5.48493 4.57369 5.21364 4.62669C5.01971 4.66255 4.87372 4.8065 4.80998 4.98261H4.74461C4.74461 5.36106 4.90967 6.01677 6.00734 7.69329C6.01279 7.70186 6.01716 7.70883 6.02315 7.71793C6.03132 7.73024 6.04058 7.74364 6.04875 7.75596C6.16751 7.93635 6.29335 8.12479 6.43444 8.32927C6.16043 8.39565 5.88043 8.42931 5.59607 8.42931ZM21.0022 26.1265C20.5162 26.4439 18.6848 26.9294 15.6402 26.9294C12.5956 26.9294 10.7636 26.4439 10.2782 26.1265C10.7342 25.8284 12.3771 25.3825 15.0954 25.3289V25.9343C15.0954 26.2303 15.3395 26.4696 15.6402 26.4696C15.9409 26.4696 16.1849 26.2303 16.1849 25.9343V25.3289C18.9032 25.3819 20.5457 25.8284 21.0022 26.1265ZM16.5761 16.911C16.3429 17.1974 15.9948 17.3649 15.6222 17.3692H15.6064C15.2381 17.3692 14.8917 17.2108 14.6536 16.933C13.6464 15.7559 12.1298 13.9573 10.6345 12.0902C12.4844 12.4478 14.9189 12.4766 15.6396 12.4766C16.3342 12.4766 17.0331 12.4521 17.7064 12.4087L15.3106 15.9234C15.1434 16.169 15.2104 16.5015 15.4599 16.6664C15.553 16.7274 15.6582 16.7568 15.7628 16.7568C15.9382 16.7568 16.1109 16.6738 16.216 16.5197L19.1026 12.285C19.4654 12.2427 19.8108 12.194 20.1306 12.1389C20.2215 12.1234 20.2983 12.1063 20.3833 12.0902C19.3314 13.4734 18.073 15.0723 16.5761 16.911ZM24.9004 4.98261C24.9004 5.16675 24.4788 5.45049 23.5712 5.7283L24.4232 4.47895C24.7315 4.66897 24.9004 4.84451 24.9004 4.98261Z" fill="#D56A9E"/>
</svg>
