<svg width="45" height="28" viewBox="0 0 45 28" fill="none" xmlns="http://www.w3.org/2000/svg">
<rect width="45" height="28" fill="black" fill-opacity="0"/>
<path d="M27.364 12.4967C27.3075 12.4967 27.2493 12.4883 27.1928 12.4705C26.9139 12.3828 26.7646 12.1024 26.8589 11.8452C27.2141 10.8784 28.357 10.3606 29.4018 10.6863C29.8919 10.84 30.4258 10.5971 30.5922 10.1443C30.6871 9.8866 30.9889 9.74854 31.2689 9.83576C31.5479 9.92347 31.6972 10.2039 31.6023 10.4611C31.2476 11.4284 30.1058 11.9473 29.0594 11.6201C28.5698 11.4668 28.0359 11.7097 27.869 12.1621C27.7938 12.3676 27.5864 12.4967 27.364 12.4967Z" fill="#CAB7A2"/>
<path d="M28.6258 9.06318C28.5693 9.06318 28.5111 9.05482 28.4546 9.03706C28.1757 8.94935 28.0258 8.6695 28.1213 8.41181C28.2935 7.94318 28.653 7.56422 29.133 7.34547C29.613 7.12617 30.1565 7.0937 30.6642 7.25282C31.1554 7.40656 31.6881 7.16364 31.8545 6.71033C31.9489 6.45264 32.2519 6.31312 32.5308 6.4018C32.8092 6.48951 32.9591 6.76991 32.8642 7.02717C32.509 7.99488 31.3676 8.5138 30.3212 8.18659C30.0839 8.11219 29.8295 8.12696 29.6045 8.22944C29.3794 8.33192 29.2114 8.50935 29.1309 8.72858C29.0557 8.93409 28.8482 9.06318 28.6258 9.06318Z" fill="#CAB7A2"/>
<path d="M29.8871 5.62977C29.8301 5.62977 29.7725 5.62135 29.7154 5.60358C29.4365 5.51588 29.2877 5.23597 29.3821 4.97779C29.6935 4.12977 30.6957 3.67445 31.614 3.96076C31.79 4.01643 31.9777 4.00513 32.1436 3.9297C32.3094 3.85432 32.4337 3.72321 32.4935 3.5611C32.5884 3.30341 32.8903 3.1645 33.1702 3.25269C33.4492 3.3404 33.5985 3.6208 33.5036 3.878C33.3521 4.28944 33.0369 4.62159 32.6156 4.81373C32.1937 5.00544 31.7164 5.034 31.2711 4.89454C30.91 4.7812 30.5149 4.96107 30.3922 5.29511C30.317 5.50062 30.1095 5.62977 29.8871 5.62977Z" fill="#CAB7A2"/>
<path fill-rule="evenodd" clip-rule="evenodd" d="M33.3759 12.021C33.3244 12.1803 33.4372 12.3446 33.5788 12.4341C33.782 12.5632 33.8956 12.7755 33.8807 13.0027L33.8804 13.0071L33.8801 13.0116L32.9494 25.3441C32.8673 26.8297 31.534 28 29.9149 28H14.944C13.3248 28 11.9916 26.8297 11.9089 25.3352L11.0012 13.4171C10.9835 13.0925 11.0737 12.7548 11.0349 12.4321C10.9753 11.9359 11.0474 11.4939 11.2635 11.1165C11.4846 10.7314 11.8231 10.4461 12.207 10.2284C12.7943 9.89532 12.9776 9.03559 12.3024 9.03559C12.2952 9.03559 12.288 9.03584 12.2808 9.03614C12.2711 9.03651 12.2612 9.03687 12.2508 9.03657C11.9638 9.03657 11.727 8.82569 11.7179 8.55909C11.7089 8.28712 11.9403 8.05994 12.2347 8.05109C12.7892 8.03229 13.3037 8.2162 13.7425 8.49733C13.872 8.58024 14.1856 8.38167 14.1856 8.22797C14.1856 8.08596 14.2022 7.94605 14.2343 7.8103C14.3633 7.26567 14.4715 6.67621 14.4715 6.11652C14.4715 5.53456 14.6878 4.99952 15.0517 4.57737C15.6967 3.82918 16.4109 2.9417 17.1105 2.24424C17.6692 1.68717 18.3128 1.04064 18.9574 0.585756C19.2875 0.35288 19.6996 0.214363 20.146 0.214363C20.7587 0.214363 21.4178 0.205695 22.0304 0.214334C22.0941 0.215232 22.1581 0.21917 22.2222 0.226204C22.931 0.304085 23.5438 0.786995 23.747 1.4286C23.7765 1.51928 23.849 1.5914 23.9415 1.6145C24.7093 1.80609 25.3367 2.32298 25.6332 2.99728C25.74 3.24024 25.9126 3.45426 26.1392 3.59246C26.7105 3.94089 27.1353 4.4542 27.3561 5.04731C27.3969 5.15687 27.5577 5.17404 27.6109 5.06995C28.5261 3.27436 29.6653 1.04078 31.2583 0.281441C32.2748 -0.201958 33.0577 0.026619 33.5355 0.304085C34.5313 0.88105 35.0251 2.12775 34.999 3.06153C34.9185 5.93443 34.3715 8.94622 33.3759 12.021ZM28.5757 5.48975C28.332 5.96821 28.1016 6.41956 27.8904 6.7837C27.3256 7.75837 26.8126 8.77491 26.3475 9.82301C26.3001 9.93049 26.2544 10.0394 26.2088 10.1483C26.1888 10.1961 26.1687 10.244 26.1486 10.2916C26.0003 10.6409 25.8568 10.9928 25.7198 11.3491C25.6547 11.5181 25.5896 11.6876 25.5272 11.858C25.3629 12.307 25.2062 12.7593 25.06 13.218C25.0543 13.2357 25.0482 13.2533 25.0421 13.2709C25.0301 13.306 25.0584 13.3409 25.0951 13.3359C25.3052 13.3073 25.5114 13.2505 25.7 13.1461L26.0797 12.9352C26.5224 12.6893 27.0195 12.5696 27.5154 12.5726C27.5187 12.5726 27.5218 12.5723 27.5249 12.572C27.5279 12.5718 27.5307 12.5715 27.5336 12.5715C28.0237 12.5715 28.5138 12.6928 28.9512 12.9352L29.3314 13.1461C29.5938 13.2915 29.8877 13.3634 30.1821 13.3663C30.4764 13.3634 30.7708 13.2915 31.0332 13.1461C31.0519 13.1353 31.0711 13.1264 31.0908 13.118L31.4114 12.9864C31.7868 12.8323 32.0909 12.5334 32.2204 12.1488C33.2753 9.0149 33.8513 5.94904 33.9329 3.0359C33.9505 2.40223 33.5868 1.49702 32.9687 1.13831C32.6103 0.931831 32.2108 0.936287 31.7468 1.15705C30.4759 1.76313 29.3773 3.91694 28.5757 5.48975ZM21.0966 7.9466L21.0915 7.95258L21.0908 7.95344C20.6308 8.49567 20.1552 9.05628 20.3748 9.98164C20.5698 10.8063 21.2722 11.517 22.0975 11.3244C22.4989 11.2307 22.8773 11.0493 23.3102 10.7651C23.9577 10.3393 24.4908 10.088 25.0315 9.94459C25.1102 9.92371 25.1761 9.86906 25.2098 9.79493C25.2249 9.76173 25.24 9.72852 25.2547 9.69489C25.4106 9.33549 25.5705 8.97833 25.7372 8.62577C25.8372 8.4142 25.831 8.16445 25.6739 7.99097C25.6275 7.93977 25.5774 7.89295 25.5267 7.84711C25.4798 7.80524 25.4323 7.76435 25.3827 7.72688C25.3261 7.68452 25.2696 7.64259 25.2104 7.60462C25.1592 7.57166 25.107 7.5406 25.0542 7.51051L25.0258 7.49397C24.9734 7.46345 24.9213 7.43299 24.8675 7.4051C24.8429 7.39246 24.8179 7.38013 24.7931 7.36781L24.763 7.35285L24.7236 7.33308C24.6644 7.30323 24.6054 7.27357 24.5464 7.24494L24.5256 7.23469C24.4455 7.1955 24.3677 7.15742 24.2931 7.11927C24.0451 6.98823 23.867 6.80048 23.7673 6.57484C23.724 6.47654 23.6272 6.40788 23.5219 6.42916L22.2298 6.69029C21.8231 6.7725 21.5902 7.21584 21.3833 7.57557C21.3525 7.62899 21.316 7.68241 21.2741 7.7339C21.2737 7.73447 21.2733 7.73507 21.273 7.73571C21.2726 7.73637 21.2722 7.73699 21.2717 7.73757C21.2159 7.80535 21.157 7.87507 21.0966 7.9466ZM23.7779 4.95612C23.7641 4.95612 23.7502 4.95765 23.7364 4.96009L20.7871 5.55628C20.6703 5.57996 20.5929 5.6908 20.6185 5.79871C20.6441 5.90614 20.7636 5.9781 20.8809 5.95441L23.827 5.35871C23.9033 5.34345 23.9454 5.29658 23.9641 5.26997C23.9833 5.24287 24.0121 5.1872 23.995 5.11622C23.9731 5.02259 23.8787 4.95612 23.7779 4.95612ZM21.9712 12.5836C21.985 12.5829 21.9989 12.5822 22.0126 12.5814C22.0295 12.5805 22.0464 12.5794 22.0633 12.5782C22.1024 12.5755 22.1417 12.5728 22.1812 12.5735C22.1844 12.5735 22.1877 12.5732 22.191 12.573C22.1944 12.5728 22.1977 12.5726 22.2009 12.5726C22.691 12.5726 23.1811 12.6937 23.6185 12.9362C23.8016 13.0374 24.0315 12.9452 24.0964 12.7462C24.1994 12.4309 24.307 12.1175 24.4185 11.8058C24.4377 11.7517 24.4582 11.6982 24.4787 11.6447C24.4934 11.6062 24.5082 11.5676 24.5225 11.5289C24.5733 11.3905 24.4315 11.2632 24.3037 11.3366C24.1844 11.4051 24.06 11.4816 23.9283 11.5683C23.0676 12.134 22.3187 12.3898 21.3886 12.3898C21.2465 12.3898 21.0948 12.3781 20.9426 12.3663C20.9406 12.3662 20.939 12.3681 20.9395 12.3701L20.9932 12.5976C21.0179 12.7022 21.1305 12.7594 21.2325 12.7255C21.4464 12.6545 21.6674 12.6096 21.8905 12.5888C21.9173 12.5862 21.9443 12.5849 21.9712 12.5836ZM15.7563 6.85859C15.8846 7.06316 15.8358 7.33184 15.6437 7.47818L15.6335 7.48591C15.392 7.6692 15.2533 7.9397 15.2528 8.22797C15.2528 8.42034 15.4726 8.49116 15.6463 8.40839C15.7862 8.34168 15.9309 8.28409 16.0799 8.23737C16.0893 8.23438 16.0985 8.23194 16.1078 8.2295C16.1138 8.22791 16.1198 8.22633 16.1258 8.22456C16.2266 8.19501 16.3285 8.17036 16.4335 8.1526C16.46 8.14802 16.4866 8.14521 16.5131 8.14234C16.5266 8.14094 16.5401 8.13947 16.5536 8.13783C16.6341 8.12843 16.7141 8.11958 16.7967 8.11854C16.8035 8.11854 16.8102 8.11781 16.8169 8.11707C16.8234 8.11634 16.8299 8.11561 16.8362 8.11561C16.8613 8.11561 16.8861 8.11848 16.911 8.12141C16.9285 8.12342 16.946 8.12543 16.9636 8.12647C16.987 8.128 17.01 8.12836 17.033 8.12879C17.0699 8.12946 17.1069 8.1302 17.145 8.13532C17.1547 8.13667 17.1642 8.13911 17.1737 8.14149C17.1821 8.14362 17.1904 8.14576 17.1989 8.14716C17.2035 8.14783 17.2081 8.14802 17.2127 8.14814C17.2182 8.14832 17.2237 8.14857 17.2293 8.1496C17.3178 8.16486 17.4058 8.18555 17.4933 8.21119C17.5084 8.21564 17.5236 8.22144 17.5388 8.22724C17.5503 8.23164 17.5618 8.23597 17.5733 8.23981C17.6538 8.26643 17.7338 8.29694 17.8133 8.33295C17.8511 8.34968 17.888 8.36793 17.9253 8.38667C18.0021 8.42512 18.0778 8.46845 18.1535 8.51527C18.165 8.52241 18.1765 8.52924 18.188 8.53608C18.205 8.54621 18.222 8.55628 18.2388 8.56745C18.3396 8.63447 18.4399 8.70991 18.5397 8.79218C18.5556 8.80543 18.5714 8.81953 18.5871 8.83363C18.5971 8.8426 18.607 8.85151 18.617 8.86018C18.6959 8.92915 18.7743 9.00257 18.8527 9.08088C18.8825 9.11048 18.9124 9.14057 18.9417 9.17164C19.0351 9.27015 19.1279 9.37409 19.2207 9.48695C19.225 9.49244 19.2295 9.49757 19.2341 9.50275L19.2426 9.51252C19.2448 9.51508 19.249 9.51353 19.249 9.51016C19.2495 9.47254 19.2529 9.43685 19.2564 9.40107C19.2581 9.38282 19.2598 9.36463 19.2612 9.34608C19.2623 9.33131 19.2631 9.31654 19.2639 9.30177C19.2656 9.27161 19.2673 9.24165 19.2708 9.21253C19.2842 9.10413 19.3049 9.00013 19.3305 8.8996C19.3327 8.89094 19.3343 8.88209 19.336 8.87324C19.3379 8.8625 19.3399 8.85175 19.3428 8.84144C19.3759 8.72321 19.4175 8.61085 19.4644 8.50343C19.4742 8.48017 19.4853 8.45844 19.4963 8.43659C19.501 8.42738 19.5057 8.41816 19.5103 8.40882C19.546 8.33491 19.5823 8.26246 19.6222 8.19343C19.6436 8.1565 19.6655 8.12159 19.6879 8.08607C19.7263 8.02497 19.7653 7.96534 19.8058 7.90766L19.812 7.89881C19.8333 7.86835 19.8543 7.83839 19.8762 7.80915C19.9199 7.75001 19.9641 7.69337 20.0084 7.63764C20.0176 7.62635 20.0266 7.61494 20.0356 7.60352C20.0469 7.58912 20.0582 7.57484 20.0698 7.5608C20.1316 7.48591 20.1924 7.41346 20.2511 7.34449L20.2565 7.33808C20.3128 7.2718 20.3679 7.20692 20.4191 7.14344C20.45 7.09614 20.458 7.0774 20.4441 7.0409C20.4201 6.97736 20.3508 6.9148 20.2676 6.88178C19.9322 6.74873 19.6852 6.4723 19.6079 6.14417L19.5764 6.01063L19.5761 6.00932C19.576 6.00885 19.5759 6.00837 19.5759 6.00789C19.5759 6.00744 19.5759 6.00699 19.5758 6.00655L19.5439 5.87312C19.4793 5.59962 19.5338 5.31831 19.6981 5.08228C19.8623 4.84522 20.1156 4.68214 20.4116 4.62251L23.5043 3.99824L23.5091 3.99775L23.6521 3.96864C23.9481 3.90852 24.252 3.9593 24.5075 4.1106C24.7635 4.26234 24.9405 4.49641 25.0051 4.77039L25.0697 5.04182C25.1449 5.36262 25.0515 5.70264 24.819 5.95197C24.7608 6.01453 24.7321 6.0998 24.7449 6.17072C24.7545 6.22248 24.7822 6.24317 24.8051 6.25501C24.8809 6.29389 24.9562 6.33064 25.0336 6.36842L25.0515 6.3772C25.1043 6.40289 25.1587 6.42942 25.2144 6.45705C25.7334 6.71451 26.4526 6.60398 26.4658 6.02485C26.4845 5.20936 25.9362 4.4806 25.1027 4.21009L25.0803 4.20283C24.8935 4.14226 24.762 3.97471 24.7475 3.77894C24.6947 3.07233 24.0537 2.51899 23.2873 2.51899H23.2407C22.9454 2.51899 22.7159 2.26198 22.7491 1.96857C22.7603 1.88136 22.7523 1.79566 22.7241 1.70692C22.6409 1.44233 22.3827 1.2364 22.0969 1.20533C21.8643 1.18073 21.6388 1.25068 21.4745 1.40046C21.2692 1.58789 20.9558 1.59385 20.7423 1.41578C20.6244 1.31721 20.4249 1.1999 20.1465 1.1999C19.6628 1.1999 19.2676 1.55616 19.2522 1.99915C19.2522 2.27529 19.0349 2.50463 18.7594 2.52387C18.0746 2.57221 17.538 3.10688 17.538 3.74152C17.538 3.83265 17.5509 3.92878 17.5765 4.02631C17.654 4.32567 17.4351 4.62009 17.1261 4.63207L17.0799 4.63386C16.216 4.66737 15.5392 5.31831 15.5392 6.11652C15.5392 6.37574 15.6144 6.63197 15.7563 6.85859ZM13.9312 10.6336C12.9803 10.8848 12.4326 11.1845 12.207 11.5772C12.1043 11.7564 12.0597 11.9681 12.0728 12.2162C12.0831 12.4096 12.2483 12.546 12.4182 12.6391L13.1355 13.0372C13.4582 13.2166 13.8192 13.3063 14.1814 13.3092C14.543 13.3063 14.9045 13.2161 15.2272 13.0372L15.4123 12.9347C15.8549 12.6889 16.352 12.5691 16.848 12.5721C16.8513 12.5721 16.8543 12.5718 16.8574 12.5715C16.8603 12.5713 16.8632 12.5711 16.8661 12.5711C17.3562 12.5711 17.8464 12.6923 18.2837 12.9347L18.6639 13.1456C18.842 13.2441 19.0377 13.3043 19.241 13.3363L19.2445 13.3367C19.2905 13.3432 19.3325 13.3124 19.3408 13.2667C19.4873 12.4627 19.3531 11.5571 18.9733 10.9376C18.8874 10.7977 18.8021 10.6661 18.7173 10.5424C18.7032 10.5219 18.689 10.5029 18.6749 10.4838C18.6632 10.4681 18.6515 10.4525 18.6399 10.436L18.6306 10.4228C18.575 10.3444 18.5195 10.2659 18.4645 10.195C18.4439 10.1685 18.4235 10.1445 18.403 10.1206C18.3912 10.1066 18.3793 10.0927 18.3674 10.0783L18.3346 10.0382C18.2943 9.98914 18.2542 9.94007 18.2143 9.89594C18.1902 9.86951 18.1664 9.84559 18.1426 9.82166C18.1295 9.8086 18.1164 9.79548 18.1034 9.78205L18.0719 9.74928C18.037 9.71302 18.0023 9.67683 17.9679 9.64466C17.9395 9.61799 17.911 9.5948 17.8826 9.57154C17.8705 9.56165 17.8584 9.55177 17.8463 9.54163C17.8351 9.53217 17.8238 9.52253 17.8125 9.51289C17.7833 9.48786 17.754 9.46284 17.7247 9.44117C17.693 9.41761 17.6617 9.39765 17.6303 9.37775C17.6184 9.37019 17.6065 9.36262 17.5946 9.35487C17.5824 9.34711 17.5703 9.33906 17.5582 9.33094C17.534 9.31489 17.5099 9.29884 17.4858 9.28541C17.4483 9.26435 17.4112 9.24805 17.3739 9.2317L17.3471 9.21986C17.3346 9.21455 17.3221 9.20869 17.3097 9.20289C17.2899 9.19367 17.2703 9.18446 17.2506 9.1775C17.201 9.15925 17.1519 9.14796 17.1023 9.1366C17.0932 9.13441 17.0841 9.13203 17.0751 9.12959C17.0575 9.12495 17.0401 9.12025 17.0229 9.11738C16.9232 9.10108 16.8202 9.09815 16.714 9.10902C16.7066 9.1095 16.6991 9.11048 16.6917 9.11146C16.3562 9.15137 15.9855 9.32679 15.5557 9.64954C15.4181 9.75306 15.2757 9.86689 15.1237 10.0014C14.7888 10.297 14.376 10.5163 13.9312 10.6336ZM29.917 27.014C30.9676 27.014 31.8332 26.2542 31.8871 25.2845L32.7684 13.5928C32.7715 13.5524 32.7309 13.523 32.6934 13.5383C32.6847 13.5433 32.6768 13.5493 32.669 13.5552C32.6581 13.5635 32.6473 13.5718 32.6343 13.5772L31.5879 14.007C31.158 14.2385 30.6786 14.3538 30.1996 14.3538C30.1956 14.3538 30.1915 14.3535 30.1874 14.353C30.1833 14.3527 30.1791 14.3523 30.1751 14.3523C29.6813 14.3543 29.1869 14.2346 28.7463 13.9907L28.3661 13.7798C28.1031 13.6339 27.8093 13.562 27.5149 13.559C27.2205 13.562 26.9267 13.6339 26.6643 13.7798L26.284 13.9907C26.068 14.1104 25.836 14.1898 25.5992 14.2504C25.5675 14.259 25.5355 14.2659 25.5034 14.2729L25.4734 14.2794L25.4224 14.2904C25.3527 14.3054 25.2832 14.3204 25.212 14.3287C25.0574 14.3489 24.9016 14.3533 24.7459 14.3489C24.7398 14.3489 24.7334 14.3485 24.7271 14.348L24.7182 14.3474C24.2664 14.3301 23.8174 14.2144 23.4137 13.9912L23.0334 13.7802C22.7704 13.6344 22.4766 13.5624 22.1822 13.5595C21.8878 13.5624 21.594 13.6344 21.3316 13.7802L20.9513 13.9912C20.9337 14.0009 20.9145 14.0048 20.8952 14.0087C20.8706 14.0138 20.8474 14.0237 20.825 14.0351C20.5048 14.1983 20.1593 14.2985 19.8073 14.3352C19.8041 14.3354 19.8011 14.3363 19.7981 14.3372C19.7953 14.338 19.7926 14.3388 19.7898 14.3391C19.7574 14.3417 19.7254 14.3425 19.6934 14.3434C19.6773 14.3438 19.6613 14.3442 19.6452 14.3449C19.1066 14.372 18.5615 14.2578 18.0804 13.9912L17.7002 13.7802C17.4372 13.6344 17.1434 13.5624 16.849 13.5595C16.5546 13.5624 16.2608 13.6344 15.9984 13.7802L15.8133 13.8828C15.3104 14.1616 14.7461 14.2987 14.1824 14.2957C13.6192 14.2987 13.0544 14.1616 12.5515 13.8828C12.3525 13.7724 12.1106 13.9276 12.1278 14.1545L12.9749 25.2751C13.0022 25.7658 13.2331 26.2014 13.589 26.5139C13.8523 26.7451 14.1359 26.3924 14.007 26.0665C13.5644 24.9469 13.3549 23.2775 13.1067 21.2302C13.0818 21.0246 13.2283 20.8378 13.4339 20.8128C13.6395 20.7879 13.8263 20.9344 13.8513 21.14C14.1044 23.2284 14.3058 24.7823 14.7045 25.7908C14.9006 26.2869 15.1289 26.6075 15.3966 26.796C15.5539 26.9067 15.7408 26.9831 15.9725 27.014H16.4817L16.4828 27.0139C16.5113 27.0108 16.5393 27.0109 16.5666 27.014H29.917Z" fill="#CAB7A2"/>
</svg>
