<svg width="45" height="28" viewBox="0 0 45 28" fill="none" xmlns="http://www.w3.org/2000/svg">
<rect width="45" height="28" fill="black" fill-opacity="0"/>
<path fill-rule="evenodd" clip-rule="evenodd" d="M37.1186 14.2437H33.6339L34.5214 13.1886H36.5424C36.8605 13.1886 37.1186 12.9528 37.1186 12.6611C37.1186 12.3694 36.8605 12.1335 36.5424 12.1335H34.2373H26.2525H9.45763C9.13953 12.1335 8.88136 12.3694 8.88136 12.6611C8.88136 12.9528 9.13953 13.1886 9.45763 13.1886H25.9684L26.8558 14.2437H8.88136C7.29258 14.2437 6 15.427 6 16.8815C6 18.3359 7.29258 19.5192 8.88136 19.5192H37.1186C38.7074 19.5192 40 18.3359 40 16.8815C40 15.427 38.7074 14.2437 37.1186 14.2437ZM33.0663 13.1886L32.0066 14.449L30.2449 16.5438L28.4832 14.449L27.4235 13.1886H33.0663ZM25.7621 16.5085C25.5097 16.7395 25.1005 16.7395 24.8481 16.5085C24.1468 15.8664 23.0058 15.8664 22.3045 16.5085C22.0521 16.7395 21.6429 16.7395 21.3905 16.5085C20.6891 15.8664 19.5482 15.8664 18.8468 16.5085C18.6019 16.7321 18.1777 16.7321 17.9328 16.5085C17.2315 15.8664 16.0905 15.8664 15.3892 16.5085C15.1443 16.7321 14.7201 16.7321 14.4752 16.5085C13.7739 15.8664 12.6329 15.8664 11.9316 16.5085C11.6792 16.7395 11.27 16.7395 11.0176 16.5085C10.3376 15.886 9.15395 15.886 8.47395 16.5085C8.24863 16.7147 8.24863 17.0482 8.47395 17.2544C8.69927 17.4607 9.06344 17.4607 9.28876 17.2544C9.54117 17.0234 9.95036 17.0234 10.2028 17.2544C10.9041 17.8965 12.0451 17.8965 12.7464 17.2544C12.9988 17.0234 13.408 17.0234 13.6604 17.2544C14.3617 17.8965 15.5027 17.8965 16.204 17.2544C16.4489 17.0308 16.8731 17.0308 17.118 17.2544C17.8193 17.8965 18.9603 17.8965 19.6616 17.2544C19.9066 17.0308 20.3307 17.0308 20.5756 17.2544C21.277 17.8965 22.4179 17.8965 23.1193 17.2544C23.3717 17.0234 23.7809 17.0234 24.0333 17.2544C24.3733 17.5657 24.8251 17.7371 25.3051 17.7371C25.7851 17.7371 26.2369 17.5657 26.5769 17.2544C26.8022 17.0482 26.8022 16.7147 26.5769 16.5085C26.3516 16.3022 25.9874 16.3022 25.7621 16.5085ZM36.7112 16.5085C36.4663 16.7321 36.0422 16.7321 35.7972 16.5085C35.0959 15.8664 33.9549 15.8664 33.2536 16.5085C33.0283 16.7147 33.0283 17.0482 33.2536 17.2544C33.4789 17.4607 33.8431 17.4607 34.0684 17.2544C34.3133 17.0308 34.7375 17.0308 34.9824 17.2544C35.3328 17.5752 35.7938 17.7361 36.2542 17.7361C36.7147 17.7361 37.1757 17.5752 37.5261 17.2544C37.7514 17.0482 37.7514 16.7147 37.5261 16.5085C37.3007 16.3022 36.9366 16.3022 36.7112 16.5085ZM37.1186 18.4641H8.88136C7.9282 18.4641 7.15254 17.754 7.15254 16.8815C7.15254 16.0089 7.9282 15.2988 8.88136 15.2988H27.7427L29.7879 17.7308C29.8968 17.86 30.0657 17.9365 30.2443 17.9365C30.4229 17.9365 30.5918 17.86 30.7007 17.7308L32.7459 15.2988H37.1186C38.0718 15.2988 38.8475 16.0089 38.8475 16.8815C38.8475 17.754 38.0718 18.4641 37.1186 18.4641ZM36.5268 20.5743H9.45763C9.27264 20.5743 9.09862 20.6555 8.99029 20.7926C8.88195 20.9303 8.85196 21.1071 8.91016 21.2674L10.3647 25.2868C10.9513 26.9096 12.6006 28 14.4683 28H31.5259C33.3971 28 35.0469 26.9069 35.6319 25.2794L37.0743 21.2669C37.1325 21.106 37.1019 20.9299 36.9936 20.7932C36.8853 20.6566 36.7118 20.5743 36.5268 20.5743ZM34.5375 24.9497C34.1082 26.1435 32.8986 26.9449 31.5259 26.9449H14.4683C13.0985 26.9449 11.8889 26.1452 11.459 24.9556L10.2558 21.6294H35.731L34.5375 24.9497ZM9.24269 11.0785H36.7568C36.9325 11.0785 37.0979 11.0051 37.2074 10.8796C37.3169 10.754 37.3578 10.5894 37.318 10.4327C35.7782 4.29 29.8905 0 23 0C16.1095 0 10.2218 4.29 8.6814 10.4327C8.64221 10.5894 8.68253 10.7535 8.79202 10.8796C8.90151 11.0057 9.0675 11.0785 9.24269 11.0785ZM30.5232 5.89161C30.2576 5.72965 29.9003 5.79506 29.7239 6.03773C29.5476 6.2804 29.6191 6.60752 29.8836 6.76948L31.6124 7.82457C31.7103 7.88418 31.8216 7.91318 31.9316 7.91318C32.1178 7.91318 32.3004 7.83091 32.4116 7.67845C32.588 7.43578 32.5165 7.10866 32.252 6.9467L30.5232 5.89161ZM26.8404 5.25727C26.6981 4.99719 26.3523 4.89219 26.067 5.02144C25.7824 5.15175 25.6671 5.46882 25.8095 5.72943L26.3857 6.78452C26.4866 6.96969 26.69 7.07624 26.9021 7.07624C26.9885 7.07624 27.0767 7.05832 27.1591 7.02086C27.4438 6.89056 27.559 6.57348 27.4167 6.31287L26.8404 5.25727ZM21.8169 6.91347C21.5311 6.7837 21.1859 6.88922 21.0435 7.1493L20.4673 8.20439C20.3249 8.46499 20.4402 8.78207 20.7249 8.91237C20.8079 8.94983 20.8954 8.96776 20.9819 8.96776C21.1934 8.96776 21.3968 8.8612 21.4982 8.67604L22.0745 7.62094C22.2174 7.36086 22.1016 7.04378 21.8169 6.91347ZM22.3932 2.16556C22.1079 2.03631 21.7622 2.14131 21.6198 2.40139L21.0435 3.45648C20.9012 3.71709 21.0165 4.03416 21.3012 4.16447C21.3841 4.20192 21.4717 4.21985 21.5582 4.21985C21.7697 4.21985 21.9731 4.1133 22.0745 3.92813L22.6508 2.87304C22.7937 2.61296 22.6779 2.29587 22.3932 2.16556ZM15.4779 6.91347C15.1921 6.7837 14.8469 6.88922 14.7046 7.1493L14.1283 8.20439C13.986 8.46499 14.1012 8.78207 14.3859 8.91237C14.4689 8.94983 14.5565 8.96776 14.6429 8.96776C14.8544 8.96776 15.0578 8.8612 15.1592 8.67604L15.7355 7.62094C15.8784 7.36086 15.7626 7.04378 15.4779 6.91347ZM23 1.05509C29.1056 1.05509 34.3572 4.70993 36.0139 10.0234H9.98606C11.6428 4.70993 16.8944 1.05509 23 1.05509Z" fill="#4EBBEA"/>
</svg>
