<svg width="45" height="28" viewBox="0 0 45 28" fill="none" xmlns="http://www.w3.org/2000/svg">
<rect width="45" height="28" fill="black" fill-opacity="0"/>
<path d="M0.642831 2.54541C0.287868 2.54541 0 2.75049 0 3.00367V10.1818C0 11.0252 0.959342 11.709 2.14286 11.709H2.57145V24.9962C2.57145 25.2494 2.85932 25.4545 3.21429 25.4545C3.56925 25.4545 3.85712 25.2494 3.85712 24.9962V11.709H4.28571C5.46923 11.709 6.42857 11.0252 6.42857 10.1818V3.00367C6.42857 2.75049 6.1407 2.54541 5.78561 2.54541C5.43065 2.54541 5.14278 2.75049 5.14278 3.00367V10.1098C5.14278 10.363 4.85491 10.5681 4.49995 10.5681C4.14498 10.5681 3.85712 10.363 3.85712 10.1098V3.00367C3.85712 2.75049 3.56925 2.54541 3.21429 2.54541C2.85919 2.54541 2.57132 2.75049 2.57132 3.00367V10.1098C2.57132 10.363 2.28346 10.5681 1.92849 10.5681C1.57353 10.5681 1.28566 10.363 1.28566 10.1098V3.00367C1.28566 2.75049 0.997794 2.54541 0.642831 2.54541Z" fill="#6467A3"/>
<path d="M43.7777 2.7451C44.2572 2.30342 45 2.65772 45 3.1923L44.9999 24.9705C44.9999 25.2378 44.6549 25.4545 44.2293 25.4545C43.8038 25.4545 43.4588 25.2378 43.4588 24.9705V15.7753C40.6281 13.0596 40.1812 7.31773 43.302 3.27518C43.4636 3.06589 43.6207 2.88975 43.7777 2.7451Z" fill="#6467A3"/>
<rect width="28.2857" height="28" fill="black" fill-opacity="0" transform="translate(9)"/>
<path d="M24.4187 7.36276C26.9512 7.87481 28.6694 9.46191 29.4623 11.5932" stroke="#6467A3" stroke-width="0.5" stroke-linecap="round"/>
<path d="M36.7857 14C36.7857 21.4511 30.6824 27.5 23.1429 27.5C15.6033 27.5 9.5 21.4511 9.5 14C9.5 6.54893 15.6033 0.5 23.1429 0.5C30.6824 0.5 36.7857 6.54893 36.7857 14Z" stroke="#6467A3"/>
<path d="M31.6429 14C31.6429 18.6395 27.8421 22.4091 23.1429 22.4091C18.4436 22.4091 14.6429 18.6395 14.6429 14C14.6429 9.36059 18.4436 5.59094 23.1429 5.59094C27.8421 5.59094 31.6429 9.36059 31.6429 14Z" stroke="#6467A3"/>
</svg>
