<svg width="375" height="667" viewBox="0 0 375 667" fill="none" xmlns="http://www.w3.org/2000/svg">
<g clip-path="url(#clip0)">
<rect width="375" height="667" fill="white"/>
<rect width="830" height="525.458" fill="black" fill-opacity="0" transform="translate(-192 141.542)"/>
<path fill-rule="evenodd" clip-rule="evenodd" d="M0 667H375V298.216C332.37 296.637 285.819 303.495 242.77 325.901C223.708 335.822 203.373 349.265 182.124 363.311C125.618 400.663 62.652 442.284 0 433.32V667Z" fill="url(#paint0_linear)"/>
<path d="M-192 210.319C-181.911 226.451 -151.885 262.007 -112.488 275.179C-68.885 289.756 -28.8727 305.613 55.2559 296.133C118.738 288.98 103.989 233.269 149.644 193.355C180.729 168.271 213.635 135.619 255.318 142.465C297 149.311 314.823 182.379 332.778 203.334C350.732 224.289 377.407 263.703 415.367 275.179C465.639 291.144 499.496 244.245 529.761 228.779C560.027 213.312 619.02 224.787 638 241.252" stroke="#C5E1F6" stroke-width="2" stroke-dasharray="15 10"/>
<rect width="304" height="145" fill="black" fill-opacity="0" transform="translate(30 182)"/>
<circle opacity="0.5" cx="35" cy="322" r="5" fill="#AAF0FF"/>
<circle opacity="0.5" cx="85" cy="248" r="5" fill="#AAF0FF"/>
<circle opacity="0.5" cx="293" cy="190" r="5" fill="#AAF0FF"/>
<circle opacity="0.5" cx="37" cy="185" r="3" fill="#6199CD"/>
<circle opacity="0.5" cx="147" cy="272" r="3" fill="#6199CD"/>
<circle opacity="0.5" cx="253" cy="226" r="3" fill="#6199CD"/>
<circle opacity="0.5" cx="331" cy="320" r="3" fill="#6199CD"/>
</g>
<defs>
<linearGradient id="paint0_linear" x1="188.25" y1="267.816" x2="188.25" y2="649" gradientUnits="userSpaceOnUse">
<stop stop-color="#A5EFFF"/>
<stop offset="1" stop-color="#448FFF"/>
</linearGradient>
<clipPath id="clip0">
<rect width="375" height="667" fill="white"/>
</clipPath>
</defs>
</svg>
