<svg width="375" height="667" viewBox="0 0 375 667" fill="none" xmlns="http://www.w3.org/2000/svg">
<g clip-path="url(#clip0)">
<rect width="375" height="667" fill="white"/>
<rect width="942" height="667" fill="black" fill-opacity="0" transform="translate(-567)"/>
<path d="M0 0V667H375V0H0Z" fill="url(#paint0_linear)"/>
<rect width="935" height="192" fill="black" fill-opacity="0" transform="translate(-567 136)"/>
<path d="M-154.052 172.401C-166.345 163.944 -180.603 165.518 -195.02 172.384C-194.802 181.644 -190.353 195.358 -169.441 203.334C-143.279 213.312 -133.02 186.869 -154.052 172.401Z" fill="white"/>
<path d="M-567 210.319L-566.152 221.835L-556.603 215.343L-567 210.319ZM-487.488 275.179L-487.171 274.23L-487.488 275.179ZM-319.744 296.133L-319.632 297.127L-319.744 296.133ZM-225.356 193.355L-224.698 194.108L-225.356 193.355ZM-154.052 172.401L-154.619 173.224L-154.052 172.401ZM-169.441 203.334L-169.085 202.399L-169.441 203.334ZM-194.577 166.414L-195.562 166.238L-194.577 166.414ZM-119.682 142.465L-119.28 141.55L-119.682 142.465ZM-42.2225 203.334L-42.9819 203.984L-42.2225 203.334ZM40.3671 275.179L40.6699 274.225L40.6565 274.221L40.3671 275.179ZM155.5 231.5L155.045 230.61L155.5 231.5ZM258.5 247L257.802 247.716L258.5 247ZM342 323L334.707 314.047L330.6 324.84L342 323ZM-556.957 225.652C-553.872 229.368 -550.343 233.319 -546.411 237.335L-544.982 235.936C-548.874 231.961 -552.367 228.05 -555.418 224.375L-556.957 225.652ZM-538.872 244.631C-535.122 248.067 -531.097 251.477 -526.825 254.753L-525.608 253.166C-529.83 249.928 -533.81 246.557 -537.521 243.157L-538.872 244.631ZM-518.291 260.874C-513.971 263.761 -509.445 266.471 -504.735 268.911L-503.815 267.136C-508.454 264.732 -512.916 262.061 -517.179 259.211L-518.291 260.874ZM-495.201 273.358C-492.776 274.363 -490.31 275.29 -487.805 276.127L-487.171 274.23C-489.629 273.408 -492.051 272.498 -494.435 271.51L-495.201 273.358ZM-487.805 276.127C-485.485 276.903 -483.175 277.682 -480.866 278.462L-480.226 276.567C-482.535 275.787 -484.848 275.007 -487.171 274.23L-487.805 276.127ZM-471.607 281.576C-467.003 283.11 -462.37 284.624 -457.651 286.083L-457.06 284.172C-461.759 282.719 -466.378 281.211 -470.974 279.678L-471.607 281.576ZM-448.268 288.868C-443.654 290.175 -438.93 291.415 -434.047 292.56L-433.59 290.613C-438.44 289.476 -443.135 288.244 -447.723 286.944L-448.268 288.868ZM-424.469 294.633C-419.809 295.557 -414.992 296.387 -409.981 297.103L-409.699 295.123C-414.673 294.412 -419.454 293.589 -424.08 292.671L-424.469 294.633ZM-400.262 298.314C-395.561 298.817 -390.687 299.217 -385.614 299.502L-385.502 297.505C-390.541 297.222 -395.382 296.824 -400.05 296.326L-400.262 298.314ZM-375.816 299.897C-371.097 300.014 -366.211 300.033 -361.139 299.945L-361.174 297.945C-366.219 298.033 -371.077 298.014 -375.766 297.897L-375.816 299.897ZM-351.357 299.647C-346.632 299.443 -341.751 299.149 -336.701 298.758L-336.855 296.764C-341.883 297.154 -346.742 297.446 -351.443 297.649L-351.357 299.647ZM-326.938 297.898C-324.54 297.662 -322.105 297.406 -319.632 297.127L-319.856 295.14C-322.319 295.417 -324.745 295.673 -327.133 295.908L-326.938 297.898ZM-319.632 297.127C-317.063 296.838 -314.618 296.469 -312.289 296.025L-312.663 294.06C-314.94 294.494 -317.334 294.855 -319.856 295.14L-319.632 297.127ZM-302.737 293.591C-297.635 291.922 -293.201 289.805 -289.292 287.306L-290.369 285.621C-294.129 288.025 -298.409 290.071 -303.358 291.69L-302.737 293.591ZM-281.475 281.21C-277.836 277.787 -274.751 273.951 -272.002 269.816L-273.668 268.708C-276.351 272.744 -279.34 276.455 -282.845 279.753L-281.475 281.21ZM-266.978 261.348C-264.718 257.136 -262.622 252.711 -260.516 248.17L-262.33 247.328C-264.434 251.865 -266.51 256.246 -268.74 260.402L-266.978 261.348ZM-256.414 239.329C-254.389 235.028 -252.258 230.668 -249.879 226.308L-251.634 225.35C-254.041 229.76 -256.191 234.159 -258.223 238.477L-256.414 239.329ZM-244.973 217.957C-242.457 213.995 -239.661 210.067 -236.479 206.219L-238.02 204.945C-241.262 208.864 -244.107 212.862 -246.662 216.885L-244.973 217.957ZM-229.996 199.074C-228.326 197.395 -226.563 195.739 -224.698 194.108L-226.014 192.602C-227.914 194.264 -229.711 195.952 -231.414 197.663L-229.996 199.074ZM-224.698 194.108C-222.687 192.351 -220.654 190.635 -218.602 188.977L-219.859 187.422C-221.933 189.097 -223.986 190.829 -226.014 192.602L-224.698 194.108ZM-210.148 182.567C-205.661 179.399 -201.134 176.592 -196.624 174.291L-197.533 172.509C-202.145 174.862 -206.754 177.722 -211.302 180.933L-210.148 182.567ZM-186.948 170.169C-181.698 168.403 -176.548 167.491 -171.583 167.649L-171.519 165.65C-176.772 165.483 -182.162 166.449 -187.586 168.273L-186.948 170.169ZM-161.478 169.62C-159.137 170.501 -156.847 171.691 -154.619 173.224L-153.485 171.577C-155.844 169.954 -158.277 168.688 -160.774 167.748L-161.478 169.62ZM-154.619 173.224C-152.094 174.962 -150.045 176.868 -148.437 178.85L-146.884 177.591C-148.62 175.449 -150.813 173.415 -153.485 171.577L-154.619 173.224ZM-143.926 188.757C-143.138 194.537 -145.522 199.78 -150.337 202.514L-149.349 204.253C-143.751 201.074 -141.058 194.992 -141.945 188.487L-143.926 188.757ZM-160.935 204.413C-163.411 204.168 -166.135 203.525 -169.085 202.399L-169.798 204.268C-166.703 205.449 -163.806 206.139 -161.132 206.404L-160.935 204.413ZM-169.085 202.399C-171.489 201.483 -173.667 200.491 -175.639 199.44L-176.579 201.206C-174.529 202.297 -172.275 203.323 -169.798 204.268L-169.085 202.399ZM-183.523 194.099C-187.682 190.492 -190.275 186.575 -191.845 182.786L-193.693 183.551C-192.007 187.621 -189.233 191.794 -184.833 195.61L-183.523 194.099ZM-193.963 173.635C-194.146 170.855 -193.918 168.418 -193.593 166.589L-195.562 166.238C-195.912 168.205 -196.154 170.805 -195.959 173.767L-193.963 173.635ZM-193.593 166.589C-193.205 164.409 -192.592 162.323 -191.774 160.339L-193.623 159.577C-194.495 161.692 -195.149 163.917 -195.562 166.238L-193.593 166.589ZM-187.373 152.869C-184.743 149.547 -181.416 146.661 -177.537 144.294L-178.579 142.587C-182.64 145.065 -186.151 148.104 -188.941 151.628L-187.373 152.869ZM-169.639 140.48C-165.676 139.001 -161.361 137.965 -156.799 137.427L-157.033 135.441C-161.746 135.997 -166.217 137.069 -170.339 138.607L-169.639 140.48ZM-147.976 137.016C-143.706 137.111 -139.294 137.622 -134.815 138.587L-134.394 136.632C-138.995 135.64 -143.533 135.114 -147.932 135.017L-147.976 137.016ZM-126.279 140.963C-124.217 141.669 -122.149 142.474 -120.084 143.381L-119.28 141.55C-121.396 140.62 -123.516 139.795 -125.632 139.071L-126.279 140.963ZM-120.084 143.381C-117.832 144.37 -115.6 145.42 -113.39 146.525L-112.495 144.736C-114.734 143.617 -116.996 142.553 -119.28 141.55L-120.084 143.381ZM-104.701 151.205C-100.422 153.674 -96.243 156.329 -92.1795 159.12L-91.0471 157.471C-95.1503 154.653 -99.3737 151.97 -103.701 149.473L-104.701 151.205ZM-84.166 164.904C-80.1814 167.92 -76.3296 171.044 -72.628 174.225L-71.3245 172.708C-75.0552 169.502 -78.9391 166.352 -82.959 163.309L-84.166 164.904ZM-65.2503 180.814C-61.5219 184.271 -57.9793 187.752 -54.6435 191.194L-53.2073 189.802C-56.5665 186.336 -60.1345 182.83 -63.8904 179.347L-65.2503 180.814ZM-47.882 198.418C-46.1771 200.304 -44.5425 202.163 -42.9819 203.984L-41.4631 202.683C-43.0351 200.848 -44.6814 198.976 -46.3983 197.076L-47.882 198.418ZM-42.9819 203.984C-41.2903 205.959 -39.5188 208.1 -37.6635 210.372L-36.1144 209.107C-37.9738 206.83 -39.7566 204.675 -41.4631 202.683L-42.9819 203.984ZM-30.6606 218.993C-27.3117 223.104 -23.737 227.432 -19.93 231.802L-18.422 230.488C-22.2077 226.143 -25.7664 221.835 -29.11 217.73L-30.6606 218.993ZM-12.447 240.076C-8.66766 244.087 -4.68396 248.043 -0.488647 251.812L0.847839 250.324C-3.29852 246.599 -7.24243 242.683 -10.9915 238.705L-12.447 240.076ZM8.09552 258.987C12.5327 262.416 17.1852 265.576 22.0604 268.333L23.0449 266.592C18.2645 263.888 13.6914 260.784 9.3186 257.404L8.09552 258.987ZM32.1393 273.282C34.7281 274.362 37.374 275.318 40.0778 276.136L40.6565 274.221C38.0207 273.425 35.4386 272.491 32.9092 271.436L32.1393 273.282ZM40.0645 276.132C42.6237 276.944 45.1445 277.604 47.628 278.121L48.0356 276.163C45.62 275.66 43.1653 275.018 40.6698 274.226L40.0645 276.132ZM57.9341 279.491C63.3084 279.8 68.4945 279.463 73.5073 278.612L73.1729 276.641C68.2998 277.467 63.2645 277.794 58.0488 277.494L57.9341 279.491ZM83.61 276.173C88.5825 274.621 93.3759 272.614 98.0082 270.304L97.1157 268.514C92.5618 270.785 87.8678 272.749 83.014 274.264L83.61 276.173ZM107.073 265.319C111.53 262.653 115.842 259.778 120.023 256.85L118.876 255.212C114.718 258.123 110.449 260.969 106.046 263.603L107.073 265.319ZM128.383 250.845C132.662 247.718 136.8 244.653 140.841 241.813L139.691 240.177C135.63 243.031 131.467 246.114 127.203 249.23L128.383 250.845ZM149.342 236.151C151.578 234.766 153.781 233.502 155.955 232.39L155.045 230.61C152.812 231.751 150.561 233.044 148.289 234.451L149.342 236.151ZM155.955 232.39C158.296 231.194 160.776 230.157 163.369 229.271L162.722 227.379C160.047 228.292 157.478 229.366 155.045 230.61L155.955 232.39ZM173.806 226.607C178.981 225.679 184.415 225.226 189.952 225.199L189.943 223.2C184.305 223.227 178.754 223.688 173.453 224.638L173.806 226.607ZM200.777 225.669C206.186 226.156 211.588 227.01 216.84 228.186L217.277 226.234C211.942 225.04 206.454 224.172 200.957 223.677L200.777 225.669ZM227.305 231.016C232.674 232.731 237.747 234.781 242.348 237.104L243.25 235.319C238.545 232.943 233.372 230.855 227.914 229.111L227.305 231.016ZM251.604 242.612C253.907 244.238 255.986 245.944 257.802 247.716L259.198 246.284C257.297 244.429 255.135 242.656 252.757 240.978L251.604 242.612ZM257.802 247.716C259.274 249.152 260.875 250.762 262.587 252.514L264.018 251.116C262.299 249.357 260.685 247.735 259.198 246.284L257.802 247.716ZM268.896 259.073C271.84 262.169 274.983 265.506 278.259 268.979L279.714 267.607C276.44 264.136 273.293 260.794 270.345 257.695L268.896 259.073ZM284.515 275.594C287.609 278.854 290.777 282.169 293.968 285.455L295.403 284.062C292.219 280.783 289.057 277.474 285.965 274.217L284.515 275.594ZM300.352 291.953C303.641 295.257 306.92 298.475 310.133 301.518L311.508 300.066C308.313 297.04 305.048 293.836 301.769 290.542L300.352 291.953ZM316.856 307.702C320.567 311.002 324.134 313.965 327.46 316.433L328.652 314.827C325.388 312.405 321.868 309.482 318.185 306.208L316.856 307.702Z" fill="white"/>
<path fill-rule="evenodd" clip-rule="evenodd" d="M368 301.436C368 301.529 367.999 301.621 367.996 301.713C367.999 301.777 368 301.842 368 301.907C368 309.754 358.25 322.308 357.5 322.308C356.75 322.308 347 309.754 347 301.907C347 301.842 347.001 301.777 347.004 301.713C347.001 301.621 347 301.529 347 301.436C347 295.672 351.701 291 357.5 291C363.299 291 368 295.672 368 301.436ZM357.5 305.231C359.985 305.231 362 303.319 362 300.962C362 298.604 359.985 296.692 357.5 296.692C355.015 296.692 353 298.604 353 300.962C353 303.319 355.015 305.231 357.5 305.231Z" fill="white"/>
<path d="M360.5 325.865C360.5 327.044 359.157 328 357.5 328C355.843 328 354.5 327.044 354.5 325.865C354.5 324.686 355.843 323.731 357.5 323.731C359.157 323.731 360.5 324.686 360.5 325.865Z" fill="white"/>
<rect width="310" height="298" fill="black" fill-opacity="0" transform="translate(40 117)"/>
<ellipse opacity="0.5" cx="326.241" cy="295.349" rx="5.65693" ry="5.64394" fill="white"/>
<ellipse opacity="0.5" cx="131.642" cy="350.659" rx="5.65693" ry="5.64394" fill="white"/>
<ellipse opacity="0.5" cx="344.343" cy="409.356" rx="5.65693" ry="5.64394" fill="white"/>
<ellipse opacity="0.5" cx="105.62" cy="193.758" rx="5.65693" ry="5.64394" fill="white"/>
<ellipse opacity="0.5" cx="235.73" cy="140.705" rx="5.65693" ry="5.64394" fill="white"/>
<ellipse opacity="0.5" cx="191.606" cy="219.72" rx="3.39416" ry="3.38636" fill="white"/>
<ellipse opacity="0.5" cx="43.3942" cy="138.447" rx="3.39416" ry="3.38636" fill="white"/>
<ellipse opacity="0.5" cx="344.343" cy="120.386" rx="3.39416" ry="3.38636" fill="white"/>
</g>
<defs>
<linearGradient id="paint0_linear" x1="563.25" y1="-625.265" x2="563.25" y2="871.134" gradientUnits="userSpaceOnUse">
<stop stop-color="#A5EFFF"/>
<stop offset="1" stop-color="#448FFF"/>
</linearGradient>
<clipPath id="clip0">
<rect width="375" height="667" fill="white"/>
</clipPath>
</defs>
</svg>
