<svg width="23" height="16" viewBox="0 0 23 16" fill="none" xmlns="http://www.w3.org/2000/svg">
<rect width="22" height="14" fill="black" fill-opacity="0" transform="translate(1 1)"/>
<rect width="16" height="14" fill="black" fill-opacity="0" transform="translate(1 1)"/>
<path d="M4.51188 8.21196C4.74705 8.1003 4.96537 7.95904 5.1628 7.7939C5.68268 8.22822 6.34743 8.49727 7.07978 8.49727C7.81436 8.49727 8.47787 8.22811 8.99703 7.7939C9.5169 8.22822 10.1817 8.49727 10.914 8.49727C11.6488 8.49727 12.3125 8.22793 12.8318 7.79347C13.0306 7.95949 13.2504 8.10146 13.4871 8.2135V8.77109V11H4.51188V8.77109V8.21196ZM16.1522 8.74375V8.11751C16.6702 7.7994 17.053 7.30853 17.2737 6.75706C17.6152 5.9037 17.5887 4.8642 17.0664 3.98713L15.381 1.15529C15.3809 1.15512 15.3808 1.15495 15.3807 1.15478C15.1437 0.755191 14.7163 0.5 14.2469 0.5H3.75211C3.28267 0.5 2.85526 0.755187 2.61827 1.15478C2.61817 1.15495 2.61807 1.15512 2.61797 1.15529L0.932552 3.98726L0.932502 3.98734C0.411557 4.86307 0.385201 5.90158 0.725372 6.75447C0.946428 7.30871 1.33101 7.80241 1.85195 8.12115V8.74375V14.125C1.85195 14.8607 2.42343 15.5 3.18321 15.5H14.821C15.5807 15.5 16.1522 14.8607 16.1522 14.125V8.74375Z" fill="#70848F" stroke="white"/>
<path d="M21.3536 5.35355L21.7071 5L21.3536 4.64645L20.3536 3.64645L20 3.29289L19.6464 3.64645L13 10.2929L10.3536 7.64645L10 7.29289L9.64645 7.64645L8.64645 8.64645L8.29289 9L8.64645 9.35355L12.6464 13.3536L13 13.7071L13.3536 13.3536L21.3536 5.35355Z" fill="#3BC75A" stroke="white"/>
</svg>
