<svg width="94" height="50" viewBox="0 0 94 50" fill="none" xmlns="http://www.w3.org/2000/svg">
<g clip-path="url(#clip0)">
<rect width="93.75" height="50" fill="black" fill-opacity="0"/>
<path d="M26.5736 41.08C25.9003 41.08 25.3136 40.9367 24.8136 40.65C24.3136 40.3567 23.9303 39.94 23.6636 39.4C23.3969 38.8533 23.2636 38.21 23.2636 37.47C23.2636 36.7367 23.3969 36.1 23.6636 35.56C23.9303 35.0133 24.3136 34.5967 24.8136 34.31C25.3136 34.0167 25.9003 33.87 26.5736 33.87C27.0136 33.87 27.4303 33.94 27.8236 34.08C28.2169 34.2133 28.5603 34.41 28.8536 34.67C28.9803 34.77 29.0436 34.9033 29.0436 35.07C29.0436 35.19 29.0103 35.2933 28.9436 35.38C28.8769 35.46 28.7969 35.5 28.7036 35.5C28.5903 35.5 28.4803 35.4567 28.3736 35.37C28.0536 35.13 27.7603 34.9633 27.4936 34.87C27.2336 34.77 26.9369 34.72 26.6036 34.72C25.8703 34.72 25.3069 34.9567 24.9136 35.43C24.5203 35.9033 24.3236 36.5833 24.3236 37.47C24.3236 38.3633 24.5203 39.0467 24.9136 39.52C25.3069 39.9933 25.8703 40.23 26.6036 40.23C26.9236 40.23 27.2136 40.18 27.4736 40.08C27.7403 39.98 28.0403 39.8133 28.3736 39.58C28.5069 39.4933 28.6169 39.45 28.7036 39.45C28.7969 39.45 28.8769 39.4933 28.9436 39.58C29.0103 39.66 29.0436 39.76 29.0436 39.88C29.0436 40.0467 28.9803 40.18 28.8536 40.28C28.5603 40.54 28.2169 40.74 27.8236 40.88C27.4303 41.0133 27.0136 41.08 26.5736 41.08ZM32.1035 36C32.7502 36 33.2302 36.1633 33.5435 36.49C33.8635 36.8167 34.0235 37.3133 34.0235 37.98V40.57C34.0235 40.7233 33.9802 40.8433 33.8935 40.93C33.8068 41.01 33.6868 41.05 33.5335 41.05C33.3868 41.05 33.2702 41.0067 33.1835 40.92C33.0968 40.8333 33.0535 40.7167 33.0535 40.57V40.2C32.9268 40.48 32.7368 40.6967 32.4835 40.85C32.2368 40.9967 31.9468 41.07 31.6135 41.07C31.2935 41.07 31.0002 41.0067 30.7335 40.88C30.4668 40.7467 30.2568 40.5633 30.1035 40.33C29.9568 40.0967 29.8835 39.8367 29.8835 39.55C29.8835 39.1967 29.9735 38.92 30.1535 38.72C30.3402 38.5133 30.6435 38.3667 31.0635 38.28C31.4902 38.1933 32.0735 38.15 32.8135 38.15H33.0435V37.86C33.0435 37.4867 32.9668 37.2167 32.8135 37.05C32.6602 36.8833 32.4135 36.8 32.0735 36.8C31.8402 36.8 31.6202 36.83 31.4135 36.89C31.2068 36.95 30.9802 37.0367 30.7335 37.15C30.5535 37.25 30.4268 37.3 30.3535 37.3C30.2535 37.3 30.1702 37.2633 30.1035 37.19C30.0435 37.1167 30.0135 37.0233 30.0135 36.91C30.0135 36.81 30.0402 36.7233 30.0935 36.65C30.1535 36.57 30.2468 36.4933 30.3735 36.42C30.6068 36.2933 30.8802 36.1933 31.1935 36.12C31.5068 36.04 31.8102 36 32.1035 36ZM31.7935 40.32C32.1602 40.32 32.4602 40.1967 32.6935 39.95C32.9268 39.6967 33.0435 39.3733 33.0435 38.98V38.72H32.8635C32.3435 38.72 31.9435 38.7433 31.6635 38.79C31.3835 38.8367 31.1835 38.9167 31.0635 39.03C30.9435 39.1367 30.8835 39.2933 30.8835 39.5C30.8835 39.74 30.9702 39.9367 31.1435 40.09C31.3168 40.2433 31.5335 40.32 31.7935 40.32ZM37.7951 40.28C37.9417 40.2933 38.0451 40.3333 38.1051 40.4C38.1717 40.46 38.2051 40.5467 38.2051 40.66C38.2051 40.7933 38.1517 40.8967 38.0451 40.97C37.9451 41.0367 37.7951 41.0633 37.5951 41.05L37.3251 41.03C36.7851 40.99 36.3817 40.8267 36.1151 40.54C35.8484 40.2467 35.7151 39.8167 35.7151 39.25V36.9H35.1151C34.8217 36.9 34.6751 36.77 34.6751 36.51C34.6751 36.39 34.7117 36.2967 34.7851 36.23C34.8651 36.1567 34.9751 36.12 35.1151 36.12H35.7151V35.09C35.7151 34.9367 35.7584 34.8167 35.8451 34.73C35.9384 34.6433 36.0617 34.6 36.2151 34.6C36.3684 34.6 36.4917 34.6433 36.5851 34.73C36.6784 34.8167 36.7251 34.9367 36.7251 35.09V36.12H37.7151C37.8551 36.12 37.9617 36.1567 38.0351 36.23C38.1151 36.2967 38.1551 36.39 38.1551 36.51C38.1551 36.6367 38.1151 36.7333 38.0351 36.8C37.9617 36.8667 37.8551 36.9 37.7151 36.9H36.7251V39.32C36.7251 39.6333 36.7884 39.8633 36.9151 40.01C37.0484 40.1567 37.2484 40.24 37.5151 40.26L37.7951 40.28ZM42.7505 39.77C42.8438 39.77 42.9205 39.8067 42.9805 39.88C43.0405 39.9533 43.0705 40.0467 43.0705 40.16C43.0705 40.3533 42.9505 40.5167 42.7105 40.65C42.4771 40.7833 42.2205 40.8867 41.9405 40.96C41.6671 41.0333 41.4038 41.07 41.1505 41.07C40.3771 41.07 39.7671 40.8467 39.3205 40.4C38.8738 39.9467 38.6505 39.33 38.6505 38.55C38.6505 38.05 38.7471 37.6067 38.9405 37.22C39.1405 36.8333 39.4171 36.5333 39.7705 36.32C40.1305 36.1067 40.5371 36 40.9905 36C41.6438 36 42.1605 36.21 42.5405 36.63C42.9205 37.05 43.1105 37.6167 43.1105 38.33C43.1105 38.5967 42.9905 38.73 42.7505 38.73H39.6605C39.7271 39.7633 40.2238 40.28 41.1505 40.28C41.3971 40.28 41.6105 40.2467 41.7905 40.18C41.9705 40.1133 42.1605 40.0267 42.3605 39.92C42.3805 39.9067 42.4338 39.88 42.5205 39.84C42.6138 39.7933 42.6905 39.77 42.7505 39.77ZM41.0105 36.74C40.6238 36.74 40.3138 36.8633 40.0805 37.11C39.8471 37.3567 39.7071 37.7033 39.6605 38.15H42.2405C42.2205 37.6967 42.1038 37.35 41.8905 37.11C41.6838 36.8633 41.3905 36.74 41.0105 36.74ZM48.2634 36.02C48.4168 36.02 48.5368 36.0667 48.6234 36.16C48.7168 36.2467 48.7634 36.3633 48.7634 36.51V40.61C48.7634 41.3567 48.5634 41.92 48.1634 42.3C47.7701 42.68 47.1868 42.87 46.4134 42.87C45.6934 42.87 45.0934 42.7333 44.6134 42.46C44.3668 42.32 44.2434 42.1533 44.2434 41.96C44.2434 41.8467 44.2734 41.7533 44.3334 41.68C44.4001 41.6067 44.4801 41.57 44.5734 41.57C44.6601 41.57 44.7968 41.62 44.9834 41.72C45.2234 41.8333 45.4468 41.92 45.6534 41.98C45.8601 42.0467 46.1068 42.08 46.3934 42.08C47.3134 42.08 47.7734 41.6167 47.7734 40.69V39.92C47.6334 40.2133 47.4201 40.4433 47.1334 40.61C46.8468 40.77 46.5134 40.85 46.1334 40.85C45.7068 40.85 45.3268 40.75 44.9934 40.55C44.6601 40.35 44.4001 40.0667 44.2134 39.7C44.0334 39.3333 43.9434 38.91 43.9434 38.43C43.9434 37.95 44.0368 37.5267 44.2234 37.16C44.4101 36.7933 44.6668 36.51 44.9934 36.31C45.3268 36.1033 45.7068 36 46.1334 36C46.5068 36 46.8334 36.08 47.1134 36.24C47.4001 36.4 47.6168 36.6267 47.7634 36.92V36.5C47.7634 36.3533 47.8068 36.2367 47.8934 36.15C47.9868 36.0633 48.1101 36.02 48.2634 36.02ZM46.3734 40.05C46.8068 40.05 47.1468 39.9067 47.3934 39.62C47.6401 39.3333 47.7634 38.9367 47.7634 38.43C47.7634 37.93 47.6401 37.5367 47.3934 37.25C47.1534 36.9567 46.8134 36.81 46.3734 36.81C45.9334 36.81 45.5868 36.9533 45.3334 37.24C45.0868 37.5267 44.9634 37.9233 44.9634 38.43C44.9634 38.9367 45.0901 39.3333 45.3434 39.62C45.5968 39.9067 45.9401 40.05 46.3734 40.05ZM52.2907 41.07C51.8107 41.07 51.3874 40.9667 51.0207 40.76C50.6607 40.5533 50.3807 40.26 50.1807 39.88C49.9874 39.4933 49.8907 39.0467 49.8907 38.54C49.8907 38.0267 49.9874 37.58 50.1807 37.2C50.3807 36.8133 50.6607 36.5167 51.0207 36.31C51.3874 36.1033 51.8107 36 52.2907 36C52.7707 36 53.1907 36.1033 53.5507 36.31C53.9174 36.5167 54.1974 36.8133 54.3907 37.2C54.5907 37.58 54.6907 38.0267 54.6907 38.54C54.6907 39.0467 54.5907 39.4933 54.3907 39.88C54.1974 40.26 53.9174 40.5533 53.5507 40.76C53.1907 40.9667 52.7707 41.07 52.2907 41.07ZM52.2907 40.27C52.7374 40.27 53.0774 40.1233 53.3107 39.83C53.5507 39.5367 53.6707 39.1067 53.6707 38.54C53.6707 37.98 53.5507 37.5533 53.3107 37.26C53.0707 36.96 52.7307 36.81 52.2907 36.81C51.8507 36.81 51.5107 36.96 51.2707 37.26C51.0307 37.5533 50.9107 37.98 50.9107 38.54C50.9107 39.1067 51.0274 39.5367 51.2607 39.83C51.5007 40.1233 51.844 40.27 52.2907 40.27ZM58.3752 36.02C58.6952 36 58.8552 36.1367 58.8552 36.43C58.8552 36.5767 58.8186 36.6867 58.7452 36.76C58.6719 36.8333 58.5452 36.8767 58.3652 36.89L58.0652 36.92C57.6452 36.96 57.3319 37.1067 57.1252 37.36C56.9252 37.6133 56.8252 37.92 56.8252 38.28V40.57C56.8252 40.73 56.7786 40.85 56.6852 40.93C56.5919 41.01 56.4719 41.05 56.3252 41.05C56.1786 41.05 56.0552 41.01 55.9552 40.93C55.8619 40.85 55.8152 40.73 55.8152 40.57V36.5C55.8152 36.3467 55.8619 36.23 55.9552 36.15C56.0552 36.0633 56.1786 36.02 56.3252 36.02C56.4586 36.02 56.5686 36.0633 56.6552 36.15C56.7486 36.23 56.7952 36.3433 56.7952 36.49V36.97C56.9286 36.6767 57.1219 36.4533 57.3752 36.3C57.6286 36.1467 57.9152 36.0567 58.2352 36.03L58.3752 36.02ZM59.9873 41.05C59.8407 41.05 59.7173 41.01 59.6173 40.93C59.524 40.85 59.4773 40.73 59.4773 40.57V36.51C59.4773 36.35 59.524 36.23 59.6173 36.15C59.7173 36.0633 59.8407 36.02 59.9873 36.02C60.134 36.02 60.254 36.0633 60.3473 36.15C60.4407 36.23 60.4873 36.35 60.4873 36.51V40.57C60.4873 40.73 60.4407 40.85 60.3473 40.93C60.254 41.01 60.134 41.05 59.9873 41.05ZM59.9873 35.04C59.794 35.04 59.6407 34.9867 59.5273 34.88C59.414 34.7733 59.3573 34.6333 59.3573 34.46C59.3573 34.2867 59.414 34.15 59.5273 34.05C59.6407 33.9433 59.794 33.89 59.9873 33.89C60.174 33.89 60.324 33.9433 60.4373 34.05C60.5573 34.15 60.6173 34.2867 60.6173 34.46C60.6173 34.6333 60.5607 34.7733 60.4473 34.88C60.334 34.9867 60.1807 35.04 59.9873 35.04ZM65.7192 39.77C65.8126 39.77 65.8892 39.8067 65.9492 39.88C66.0092 39.9533 66.0392 40.0467 66.0392 40.16C66.0392 40.3533 65.9192 40.5167 65.6792 40.65C65.4459 40.7833 65.1892 40.8867 64.9092 40.96C64.6359 41.0333 64.3726 41.07 64.1192 41.07C63.3459 41.07 62.7359 40.8467 62.2892 40.4C61.8426 39.9467 61.6192 39.33 61.6192 38.55C61.6192 38.05 61.7159 37.6067 61.9092 37.22C62.1092 36.8333 62.3859 36.5333 62.7392 36.32C63.0992 36.1067 63.5059 36 63.9592 36C64.6126 36 65.1292 36.21 65.5092 36.63C65.8892 37.05 66.0792 37.6167 66.0792 38.33C66.0792 38.5967 65.9592 38.73 65.7192 38.73H62.6292C62.6959 39.7633 63.1926 40.28 64.1192 40.28C64.3659 40.28 64.5792 40.2467 64.7592 40.18C64.9392 40.1133 65.1292 40.0267 65.3292 39.92C65.3492 39.9067 65.4026 39.88 65.4892 39.84C65.5826 39.7933 65.6592 39.77 65.7192 39.77ZM63.9792 36.74C63.5926 36.74 63.2826 36.8633 63.0492 37.11C62.8159 37.3567 62.6759 37.7033 62.6292 38.15H65.2092C65.1892 37.6967 65.0726 37.35 64.8592 37.11C64.6526 36.8633 64.3592 36.74 63.9792 36.74ZM68.8922 41.07C68.2122 41.07 67.6555 40.93 67.2222 40.65C67.1022 40.5767 67.0155 40.5 66.9622 40.42C66.9155 40.34 66.8922 40.25 66.8922 40.15C66.8922 40.0433 66.9222 39.9533 66.9822 39.88C67.0422 39.8067 67.1189 39.77 67.2122 39.77C67.2989 39.77 67.4355 39.8233 67.6222 39.93C67.8222 40.0367 68.0155 40.1233 68.2022 40.19C68.3955 40.2567 68.6355 40.29 68.9222 40.29C69.2422 40.29 69.4922 40.2333 69.6722 40.12C69.8522 40.0067 69.9422 39.8467 69.9422 39.64C69.9422 39.5067 69.9055 39.4 69.8322 39.32C69.7655 39.24 69.6455 39.17 69.4722 39.11C69.2989 39.0433 69.0422 38.9733 68.7022 38.9C68.1155 38.7733 67.6922 38.6033 67.4322 38.39C67.1789 38.17 67.0522 37.8733 67.0522 37.5C67.0522 37.2133 67.1355 36.9567 67.3022 36.73C67.4689 36.4967 67.6989 36.3167 67.9922 36.19C68.2855 36.0633 68.6189 36 68.9922 36C69.2589 36 69.5189 36.0367 69.7722 36.11C70.0255 36.1767 70.2489 36.2767 70.4422 36.41C70.6622 36.5567 70.7722 36.7267 70.7722 36.92C70.7722 37.0267 70.7389 37.1167 70.6722 37.19C70.6122 37.2633 70.5389 37.3 70.4522 37.3C70.3922 37.3 70.3322 37.2867 70.2722 37.26C70.2122 37.2333 70.1322 37.19 70.0322 37.13C69.8522 37.0233 69.6822 36.94 69.5222 36.88C69.3689 36.82 69.1755 36.79 68.9422 36.79C68.6622 36.79 68.4355 36.85 68.2622 36.97C68.0955 37.09 68.0122 37.2533 68.0122 37.46C68.0122 37.6467 68.0889 37.7933 68.2422 37.9C68.4022 38 68.6989 38.0967 69.1322 38.19C69.5789 38.2833 69.9289 38.39 70.1822 38.51C70.4355 38.63 70.6155 38.78 70.7222 38.96C70.8355 39.1333 70.8922 39.3567 70.8922 39.63C70.8922 40.0633 70.7089 40.4133 70.3422 40.68C69.9822 40.94 69.4989 41.07 68.8922 41.07Z" fill="#0C8EED"/>
<rect width="20" height="17" fill="black" fill-opacity="0" transform="translate(37 11)"/>
<rect x="39.5" y="11.5" width="15" height="2" rx="0.5" stroke="#0C8EED"/>
<rect x="38.5" y="13.5" width="17" height="2" rx="0.5" stroke="#0C8EED"/>
<rect x="37.5" y="15.5" width="19" height="12" rx="0.5" stroke="#0C8EED"/>
</g>
<defs>
<clipPath id="clip0">
<rect width="93.75" height="50" fill="white"/>
</clipPath>
</defs>
</svg>
