<svg width="95" height="50" viewBox="0 0 95 50" fill="none" xmlns="http://www.w3.org/2000/svg">
<g clip-path="url(#clip0)">
<rect width="93.75" height="50" fill="black" fill-opacity="0" transform="translate(0.75)"/>
<path d="M45.246 33.9C45.3927 33.9 45.5127 33.95 45.606 34.05C45.6993 34.1433 45.746 34.2667 45.746 34.42V40.56C45.746 40.7133 45.7027 40.8333 45.616 40.92C45.536 41.0067 45.4227 41.05 45.276 41.05C45.136 41.05 45.026 41.0067 44.946 40.92C44.866 40.8333 44.826 40.7133 44.826 40.56V35.91L42.866 39.64C42.7393 39.8733 42.576 39.99 42.376 39.99C42.176 39.99 42.0127 39.8733 41.886 39.64L39.916 35.95V40.56C39.916 40.7133 39.876 40.8333 39.796 40.92C39.716 41.0067 39.6027 41.05 39.456 41.05C39.316 41.05 39.2027 41.0067 39.116 40.92C39.036 40.8267 38.996 40.7067 38.996 40.56V34.42C38.996 34.2667 39.0427 34.1433 39.136 34.05C39.2293 33.95 39.3493 33.9 39.496 33.9C39.7027 33.9 39.8693 34.02 39.996 34.26L42.386 38.83L44.756 34.26C44.8827 34.02 45.046 33.9 45.246 33.9ZM49.3242 36C49.9709 36 50.4509 36.1633 50.7642 36.49C51.0842 36.8167 51.2442 37.3133 51.2442 37.98V40.57C51.2442 40.7233 51.2009 40.8433 51.1142 40.93C51.0276 41.01 50.9076 41.05 50.7542 41.05C50.6076 41.05 50.4909 41.0067 50.4042 40.92C50.3176 40.8333 50.2742 40.7167 50.2742 40.57V40.2C50.1476 40.48 49.9576 40.6967 49.7042 40.85C49.4576 40.9967 49.1676 41.07 48.8342 41.07C48.5142 41.07 48.2209 41.0067 47.9542 40.88C47.6876 40.7467 47.4776 40.5633 47.3242 40.33C47.1776 40.0967 47.1042 39.8367 47.1042 39.55C47.1042 39.1967 47.1942 38.92 47.3742 38.72C47.5609 38.5133 47.8642 38.3667 48.2842 38.28C48.7109 38.1933 49.2942 38.15 50.0342 38.15H50.2642V37.86C50.2642 37.4867 50.1876 37.2167 50.0342 37.05C49.8809 36.8833 49.6342 36.8 49.2942 36.8C49.0609 36.8 48.8409 36.83 48.6342 36.89C48.4276 36.95 48.2009 37.0367 47.9542 37.15C47.7742 37.25 47.6476 37.3 47.5742 37.3C47.4742 37.3 47.3909 37.2633 47.3242 37.19C47.2642 37.1167 47.2342 37.0233 47.2342 36.91C47.2342 36.81 47.2609 36.7233 47.3142 36.65C47.3742 36.57 47.4676 36.4933 47.5942 36.42C47.8276 36.2933 48.1009 36.1933 48.4142 36.12C48.7276 36.04 49.0309 36 49.3242 36ZM49.0142 40.32C49.3809 40.32 49.6809 40.1967 49.9142 39.95C50.1476 39.6967 50.2642 39.3733 50.2642 38.98V38.72H50.0842C49.5642 38.72 49.1642 38.7433 48.8842 38.79C48.6042 38.8367 48.4042 38.9167 48.2842 39.03C48.1642 39.1367 48.1042 39.2933 48.1042 39.5C48.1042 39.74 48.1909 39.9367 48.3642 40.09C48.5376 40.2433 48.7542 40.32 49.0142 40.32ZM55.2458 36C55.6658 36 56.0391 36.1067 56.3658 36.32C56.6991 36.5333 56.9558 36.8333 57.1358 37.22C57.3224 37.6067 57.4158 38.0533 57.4158 38.56C57.4158 39.06 57.3258 39.5 57.1458 39.88C56.9658 40.26 56.7091 40.5533 56.3758 40.76C56.0491 40.9667 55.6724 41.07 55.2458 41.07C54.8791 41.07 54.5558 40.9933 54.2758 40.84C53.9958 40.68 53.7824 40.4533 53.6358 40.16V42.39C53.6358 42.53 53.5891 42.64 53.4958 42.72C53.4091 42.8067 53.2924 42.85 53.1458 42.85C52.9924 42.85 52.8658 42.8067 52.7658 42.72C52.6724 42.6333 52.6258 42.5167 52.6258 42.37V36.51C52.6258 36.3633 52.6724 36.2467 52.7658 36.16C52.8591 36.0667 52.9824 36.02 53.1358 36.02C53.2824 36.02 53.4024 36.0667 53.4958 36.16C53.5891 36.2467 53.6358 36.3633 53.6358 36.51V36.92C53.7824 36.6267 53.9958 36.4 54.2758 36.24C54.5558 36.08 54.8791 36 55.2458 36ZM55.0058 40.27C55.4458 40.27 55.7858 40.1233 56.0258 39.83C56.2658 39.53 56.3858 39.1067 56.3858 38.56C56.3858 38.0067 56.2624 37.5767 56.0158 37.27C55.7758 36.9633 55.4391 36.81 55.0058 36.81C54.5658 36.81 54.2258 36.96 53.9858 37.26C53.7524 37.56 53.6358 37.9867 53.6358 38.54C53.6358 39.0933 53.7524 39.52 53.9858 39.82C54.2258 40.12 54.5658 40.27 55.0058 40.27Z" fill="#333333"/>
<rect width="22" height="18" fill="black" fill-opacity="0" transform="translate(36.75 10)"/>
<path d="M43.6126 12.4808L43.7414 12.5175L43.8713 12.4851L51.7414 10.5175L57.8874 12.2735C58.102 12.3349 58.25 12.5311 58.25 12.7543V26.6743C58.25 27.0065 57.932 27.2463 57.6126 27.155L51.8874 25.5192L51.7586 25.4825L51.6287 25.5149L43.7586 27.4825L37.6126 25.7265C37.398 25.6651 37.25 25.4689 37.25 25.2457V11.3257C37.25 10.9935 37.568 10.7537 37.8874 10.845L43.6126 12.4808Z" stroke="#333333"/>
</g>
<defs>
<clipPath id="clip0">
<rect width="93.75" height="50" fill="white" transform="translate(0.75)"/>
</clipPath>
</defs>
</svg>
