<svg width="95" height="50" viewBox="0 0 95 50" fill="none" xmlns="http://www.w3.org/2000/svg">
<rect width="93.75" height="50" fill="black" fill-opacity="0" transform="translate(0.5)"/>
<path d="M34.2499 41.05C34.0966 41.05 33.9733 41.0033 33.8799 40.91C33.7866 40.8167 33.7399 40.69 33.7399 40.53V34.45C33.7399 34.2967 33.7833 34.1767 33.8699 34.09C33.9633 33.9967 34.0899 33.95 34.2499 33.95H36.6599C37.4066 33.95 37.9866 34.1333 38.3999 34.5C38.8133 34.8667 39.0199 35.3867 39.0199 36.06C39.0199 36.7267 38.8133 37.2467 38.3999 37.62C37.9866 37.9933 37.4066 38.18 36.6599 38.18H34.7699V40.53C34.7699 40.69 34.7233 40.8167 34.6299 40.91C34.5433 41.0033 34.4166 41.05 34.2499 41.05ZM36.5499 37.35C37.5366 37.35 38.0299 36.92 38.0299 36.06C38.0299 35.2067 37.5366 34.78 36.5499 34.78H34.7699V37.35H36.5499ZM42.6057 36.02C42.9257 36 43.0857 36.1367 43.0857 36.43C43.0857 36.5767 43.049 36.6867 42.9757 36.76C42.9024 36.8333 42.7757 36.8767 42.5957 36.89L42.2957 36.92C41.8757 36.96 41.5624 37.1067 41.3557 37.36C41.1557 37.6133 41.0557 37.92 41.0557 38.28V40.57C41.0557 40.73 41.009 40.85 40.9157 40.93C40.8224 41.01 40.7024 41.05 40.5557 41.05C40.409 41.05 40.2857 41.01 40.1857 40.93C40.0924 40.85 40.0457 40.73 40.0457 40.57V36.5C40.0457 36.3467 40.0924 36.23 40.1857 36.15C40.2857 36.0633 40.409 36.02 40.5557 36.02C40.689 36.02 40.799 36.0633 40.8857 36.15C40.979 36.23 41.0257 36.3433 41.0257 36.49V36.97C41.159 36.6767 41.3524 36.4533 41.6057 36.3C41.859 36.1467 42.1457 36.0567 42.4657 36.03L42.6057 36.02ZM45.7302 41.07C45.2502 41.07 44.8268 40.9667 44.4602 40.76C44.1002 40.5533 43.8202 40.26 43.6202 39.88C43.4268 39.4933 43.3302 39.0467 43.3302 38.54C43.3302 38.0267 43.4268 37.58 43.6202 37.2C43.8202 36.8133 44.1002 36.5167 44.4602 36.31C44.8268 36.1033 45.2502 36 45.7302 36C46.2102 36 46.6302 36.1033 46.9902 36.31C47.3568 36.5167 47.6368 36.8133 47.8302 37.2C48.0302 37.58 48.1302 38.0267 48.1302 38.54C48.1302 39.0467 48.0302 39.4933 47.8302 39.88C47.6368 40.26 47.3568 40.5533 46.9902 40.76C46.6302 40.9667 46.2102 41.07 45.7302 41.07ZM45.7302 40.27C46.1768 40.27 46.5168 40.1233 46.7502 39.83C46.9902 39.5367 47.1102 39.1067 47.1102 38.54C47.1102 37.98 46.9902 37.5533 46.7502 37.26C46.5102 36.96 46.1702 36.81 45.7302 36.81C45.2902 36.81 44.9502 36.96 44.7102 37.26C44.4702 37.5533 44.3502 37.98 44.3502 38.54C44.3502 39.1067 44.4668 39.5367 44.7002 39.83C44.9402 40.1233 45.2835 40.27 45.7302 40.27ZM53.1552 35.04C52.9618 35.04 52.8085 34.9867 52.6952 34.88C52.5818 34.7733 52.5252 34.6333 52.5252 34.46C52.5252 34.2867 52.5818 34.15 52.6952 34.05C52.8085 33.9433 52.9618 33.89 53.1552 33.89C53.3418 33.89 53.4918 33.9433 53.6052 34.05C53.7252 34.15 53.7852 34.2867 53.7852 34.46C53.7852 34.6333 53.7285 34.7733 53.6152 34.88C53.5018 34.9867 53.3485 35.04 53.1552 35.04ZM53.2152 36.12C53.3552 36.12 53.4618 36.1567 53.5352 36.23C53.6152 36.2967 53.6552 36.39 53.6552 36.51V40.57C53.6552 40.73 53.6085 40.85 53.5152 40.93C53.4218 41.01 53.3018 41.05 53.1552 41.05C53.0085 41.05 52.8852 41.01 52.7852 40.93C52.6918 40.85 52.6452 40.73 52.6452 40.57V36.9H50.5552V40.56C50.5552 40.72 50.5052 40.8433 50.4052 40.93C50.3118 41.01 50.1918 41.05 50.0452 41.05C49.8985 41.05 49.7785 41.01 49.6852 40.93C49.5918 40.8433 49.5452 40.72 49.5452 40.56V36.9H48.9452C48.8052 36.9 48.6952 36.8667 48.6152 36.8C48.5418 36.7267 48.5052 36.63 48.5052 36.51C48.5052 36.39 48.5418 36.2967 48.6152 36.23C48.6952 36.1567 48.8052 36.12 48.9452 36.12H49.5452V36.01C49.5452 35.3967 49.7018 34.9167 50.0152 34.57C50.3285 34.2167 50.7718 34.0133 51.3452 33.96L51.5852 33.94L51.7152 33.93C52.0085 33.93 52.1552 34.0533 52.1552 34.3C52.1552 34.5333 52.0252 34.6667 51.7652 34.7L51.5352 34.72C51.2018 34.7467 50.9552 34.8533 50.7952 35.04C50.6352 35.22 50.5552 35.4867 50.5552 35.84V36.12H53.2152ZM55.5752 41.05C55.4286 41.05 55.3052 41.01 55.2052 40.93C55.1119 40.85 55.0652 40.73 55.0652 40.57V34.39C55.0652 34.23 55.1119 34.11 55.2052 34.03C55.3052 33.9433 55.4286 33.9 55.5752 33.9C55.7219 33.9 55.8419 33.9433 55.9352 34.03C56.0286 34.11 56.0752 34.23 56.0752 34.39V40.57C56.0752 40.73 56.0286 40.85 55.9352 40.93C55.8419 41.01 55.7219 41.05 55.5752 41.05ZM61.3071 39.77C61.4004 39.77 61.4771 39.8067 61.5371 39.88C61.5971 39.9533 61.6271 40.0467 61.6271 40.16C61.6271 40.3533 61.5071 40.5167 61.2671 40.65C61.0338 40.7833 60.7771 40.8867 60.4971 40.96C60.2238 41.0333 59.9604 41.07 59.7071 41.07C58.9338 41.07 58.3238 40.8467 57.8771 40.4C57.4304 39.9467 57.2071 39.33 57.2071 38.55C57.2071 38.05 57.3038 37.6067 57.4971 37.22C57.6971 36.8333 57.9738 36.5333 58.3271 36.32C58.6871 36.1067 59.0938 36 59.5471 36C60.2004 36 60.7171 36.21 61.0971 36.63C61.4771 37.05 61.6671 37.6167 61.6671 38.33C61.6671 38.5967 61.5471 38.73 61.3071 38.73H58.2171C58.2838 39.7633 58.7804 40.28 59.7071 40.28C59.9538 40.28 60.1671 40.2467 60.3471 40.18C60.5271 40.1133 60.7171 40.0267 60.9171 39.92C60.9371 39.9067 60.9904 39.88 61.0771 39.84C61.1704 39.7933 61.2471 39.77 61.3071 39.77ZM59.5671 36.74C59.1804 36.74 58.8704 36.8633 58.6371 37.11C58.4038 37.3567 58.2638 37.7033 58.2171 38.15H60.7971C60.7771 37.6967 60.6604 37.35 60.4471 37.11C60.2404 36.8633 59.9471 36.74 59.5671 36.74Z" fill="#333333"/>
<rect width="18" height="20" fill="black" fill-opacity="0" transform="translate(38 8)"/>
<path d="M51.5 13C51.5 15.4853 49.4853 17.5 47 17.5C44.5147 17.5 42.5 15.4853 42.5 13C42.5 10.5147 44.5147 8.5 47 8.5C49.4853 8.5 51.5 10.5147 51.5 13ZM39 27.5C38.7072 27.5 38.5279 27.2725 38.5517 27.0564C39.0208 22.8063 42.6246 19.5 47 19.5C51.3754 19.5 54.9792 22.8063 55.4483 27.0564C55.4721 27.2725 55.2928 27.5 55 27.5H39Z" stroke="#333333"/>
</svg>
