<svg width="94" height="50" viewBox="0 0 94 50" fill="none" xmlns="http://www.w3.org/2000/svg">
<g clip-path="url(#clip0)">
<rect width="93.75" height="50" fill="black" fill-opacity="0" transform="translate(0.25)"/>
<path d="M31.4 41.08C30.8933 41.08 30.41 41.01 29.95 40.87C29.4967 40.73 29.1333 40.5367 28.86 40.29C28.7333 40.1833 28.67 40.0467 28.67 39.88C28.67 39.76 28.7033 39.66 28.77 39.58C28.8367 39.4933 28.9167 39.45 29.01 39.45C29.1033 39.45 29.2167 39.4933 29.35 39.58C29.9433 40.02 30.62 40.24 31.38 40.24C31.9133 40.24 32.3233 40.14 32.61 39.94C32.8967 39.74 33.04 39.4533 33.04 39.08C33.04 38.7867 32.9067 38.5667 32.64 38.42C32.3733 38.2733 31.9467 38.1333 31.36 38C30.8 37.88 30.34 37.7433 29.98 37.59C29.62 37.4367 29.3367 37.23 29.13 36.97C28.93 36.7033 28.83 36.3667 28.83 35.96C28.83 35.5533 28.94 35.1933 29.16 34.88C29.3867 34.56 29.7 34.3133 30.1 34.14C30.5 33.96 30.9567 33.87 31.47 33.87C31.9433 33.87 32.38 33.9367 32.78 34.07C33.18 34.2033 33.52 34.4 33.8 34.66C33.9333 34.7733 34 34.91 34 35.07C34 35.1833 33.9633 35.2833 33.89 35.37C33.8233 35.4567 33.7433 35.5 33.65 35.5C33.5633 35.5 33.4533 35.4567 33.32 35.37C33.0133 35.1367 32.7233 34.97 32.45 34.87C32.1833 34.7633 31.86 34.71 31.48 34.71C30.9667 34.71 30.5667 34.8167 30.28 35.03C29.9933 35.2367 29.85 35.5267 29.85 35.9C29.85 36.22 29.9767 36.4633 30.23 36.63C30.4833 36.79 30.89 36.9367 31.45 37.07C32.0367 37.2033 32.51 37.3433 32.87 37.49C33.2367 37.63 33.5267 37.8267 33.74 38.08C33.96 38.3267 34.07 38.6467 34.07 39.04C34.07 39.44 33.9567 39.7967 33.73 40.11C33.51 40.4167 33.1967 40.6567 32.79 40.83C32.39 40.9967 31.9267 41.08 31.4 41.08ZM39.0395 39.77C39.1329 39.77 39.2095 39.8067 39.2695 39.88C39.3295 39.9533 39.3595 40.0467 39.3595 40.16C39.3595 40.3533 39.2395 40.5167 38.9995 40.65C38.7662 40.7833 38.5095 40.8867 38.2295 40.96C37.9562 41.0333 37.6929 41.07 37.4395 41.07C36.6662 41.07 36.0562 40.8467 35.6095 40.4C35.1629 39.9467 34.9395 39.33 34.9395 38.55C34.9395 38.05 35.0362 37.6067 35.2295 37.22C35.4295 36.8333 35.7062 36.5333 36.0595 36.32C36.4195 36.1067 36.8262 36 37.2795 36C37.9329 36 38.4495 36.21 38.8295 36.63C39.2095 37.05 39.3995 37.6167 39.3995 38.33C39.3995 38.5967 39.2795 38.73 39.0395 38.73H35.9495C36.0162 39.7633 36.5129 40.28 37.4395 40.28C37.6862 40.28 37.8995 40.2467 38.0795 40.18C38.2595 40.1133 38.4495 40.0267 38.6495 39.92C38.6695 39.9067 38.7229 39.88 38.8095 39.84C38.9029 39.7933 38.9795 39.77 39.0395 39.77ZM37.2995 36.74C36.9129 36.74 36.6029 36.8633 36.3695 37.11C36.1362 37.3567 35.9962 37.7033 35.9495 38.15H38.5295C38.5095 37.6967 38.3929 37.35 38.1795 37.11C37.9729 36.8633 37.6795 36.74 37.2995 36.74ZM42.8537 40.28C43.0003 40.2933 43.1037 40.3333 43.1637 40.4C43.2303 40.46 43.2637 40.5467 43.2637 40.66C43.2637 40.7933 43.2103 40.8967 43.1037 40.97C43.0037 41.0367 42.8537 41.0633 42.6537 41.05L42.3837 41.03C41.8437 40.99 41.4403 40.8267 41.1737 40.54C40.907 40.2467 40.7737 39.8167 40.7737 39.25V36.9H40.1737C39.8803 36.9 39.7337 36.77 39.7337 36.51C39.7337 36.39 39.7703 36.2967 39.8437 36.23C39.9237 36.1567 40.0337 36.12 40.1737 36.12H40.7737V35.09C40.7737 34.9367 40.817 34.8167 40.9037 34.73C40.997 34.6433 41.1203 34.6 41.2737 34.6C41.427 34.6 41.5503 34.6433 41.6437 34.73C41.737 34.8167 41.7837 34.9367 41.7837 35.09V36.12H42.7737C42.9137 36.12 43.0203 36.1567 43.0937 36.23C43.1737 36.2967 43.2137 36.39 43.2137 36.51C43.2137 36.6367 43.1737 36.7333 43.0937 36.8C43.0203 36.8667 42.9137 36.9 42.7737 36.9H41.7837V39.32C41.7837 39.6333 41.847 39.8633 41.9737 40.01C42.107 40.1567 42.307 40.24 42.5737 40.26L42.8537 40.28ZM46.3595 40.28C46.5062 40.2933 46.6095 40.3333 46.6695 40.4C46.7362 40.46 46.7695 40.5467 46.7695 40.66C46.7695 40.7933 46.7162 40.8967 46.6095 40.97C46.5095 41.0367 46.3595 41.0633 46.1595 41.05L45.8895 41.03C45.3495 40.99 44.9462 40.8267 44.6795 40.54C44.4129 40.2467 44.2795 39.8167 44.2795 39.25V36.9H43.6795C43.3862 36.9 43.2395 36.77 43.2395 36.51C43.2395 36.39 43.2762 36.2967 43.3495 36.23C43.4295 36.1567 43.5395 36.12 43.6795 36.12H44.2795V35.09C44.2795 34.9367 44.3229 34.8167 44.4095 34.73C44.5029 34.6433 44.6262 34.6 44.7795 34.6C44.9329 34.6 45.0562 34.6433 45.1495 34.73C45.2429 34.8167 45.2895 34.9367 45.2895 35.09V36.12H46.2795C46.4195 36.12 46.5262 36.1567 46.5995 36.23C46.6795 36.2967 46.7195 36.39 46.7195 36.51C46.7195 36.6367 46.6795 36.7333 46.5995 36.8C46.5262 36.8667 46.4195 36.9 46.2795 36.9H45.2895V39.32C45.2895 39.6333 45.3529 39.8633 45.4795 40.01C45.6129 40.1567 45.8129 40.24 46.0795 40.26L46.3595 40.28ZM48.0049 41.05C47.8583 41.05 47.7349 41.01 47.6349 40.93C47.5416 40.85 47.4949 40.73 47.4949 40.57V36.51C47.4949 36.35 47.5416 36.23 47.6349 36.15C47.7349 36.0633 47.8583 36.02 48.0049 36.02C48.1516 36.02 48.2716 36.0633 48.3649 36.15C48.4583 36.23 48.5049 36.35 48.5049 36.51V40.57C48.5049 40.73 48.4583 40.85 48.3649 40.93C48.2716 41.01 48.1516 41.05 48.0049 41.05ZM48.0049 35.04C47.8116 35.04 47.6583 34.9867 47.5449 34.88C47.4316 34.7733 47.3749 34.6333 47.3749 34.46C47.3749 34.2867 47.4316 34.15 47.5449 34.05C47.6583 33.9433 47.8116 33.89 48.0049 33.89C48.1916 33.89 48.3416 33.9433 48.4549 34.05C48.5749 34.15 48.6349 34.2867 48.6349 34.46C48.6349 34.6333 48.5783 34.7733 48.4649 34.88C48.3516 34.9867 48.1983 35.04 48.0049 35.04ZM52.5468 36C53.7135 36 54.2968 36.6567 54.2968 37.97V40.57C54.2968 40.7233 54.2501 40.8433 54.1568 40.93C54.0701 41.01 53.9468 41.05 53.7868 41.05C53.6335 41.05 53.5101 41.0067 53.4168 40.92C53.3301 40.8333 53.2868 40.7167 53.2868 40.57V38.02C53.2868 37.6067 53.2035 37.3033 53.0368 37.11C52.8768 36.9167 52.6235 36.82 52.2768 36.82C51.8701 36.82 51.5435 36.9467 51.2968 37.2C51.0501 37.4533 50.9268 37.7933 50.9268 38.22V40.57C50.9268 40.7167 50.8801 40.8333 50.7868 40.92C50.7001 41.0067 50.5801 41.05 50.4268 41.05C50.2735 41.05 50.1501 41.0067 50.0568 40.92C49.9635 40.8333 49.9168 40.7167 49.9168 40.57V36.5C49.9168 36.36 49.9635 36.2467 50.0568 36.16C50.1568 36.0667 50.2801 36.02 50.4268 36.02C50.5735 36.02 50.6901 36.0633 50.7768 36.15C50.8635 36.2367 50.9068 36.35 50.9068 36.49V36.9C51.0668 36.6067 51.2901 36.3833 51.5768 36.23C51.8635 36.0767 52.1868 36 52.5468 36ZM59.7185 36.02C59.8718 36.02 59.9918 36.0667 60.0785 36.16C60.1718 36.2467 60.2185 36.3633 60.2185 36.51V40.61C60.2185 41.3567 60.0185 41.92 59.6185 42.3C59.2252 42.68 58.6418 42.87 57.8685 42.87C57.1485 42.87 56.5485 42.7333 56.0685 42.46C55.8218 42.32 55.6985 42.1533 55.6985 41.96C55.6985 41.8467 55.7285 41.7533 55.7885 41.68C55.8552 41.6067 55.9352 41.57 56.0285 41.57C56.1152 41.57 56.2518 41.62 56.4385 41.72C56.6785 41.8333 56.9018 41.92 57.1085 41.98C57.3152 42.0467 57.5618 42.08 57.8485 42.08C58.7685 42.08 59.2285 41.6167 59.2285 40.69V39.92C59.0885 40.2133 58.8752 40.4433 58.5885 40.61C58.3018 40.77 57.9685 40.85 57.5885 40.85C57.1618 40.85 56.7818 40.75 56.4485 40.55C56.1152 40.35 55.8552 40.0667 55.6685 39.7C55.4885 39.3333 55.3985 38.91 55.3985 38.43C55.3985 37.95 55.4918 37.5267 55.6785 37.16C55.8652 36.7933 56.1218 36.51 56.4485 36.31C56.7818 36.1033 57.1618 36 57.5885 36C57.9618 36 58.2885 36.08 58.5685 36.24C58.8552 36.4 59.0718 36.6267 59.2185 36.92V36.5C59.2185 36.3533 59.2618 36.2367 59.3485 36.15C59.4418 36.0633 59.5652 36.02 59.7185 36.02ZM57.8285 40.05C58.2618 40.05 58.6018 39.9067 58.8485 39.62C59.0952 39.3333 59.2185 38.9367 59.2185 38.43C59.2185 37.93 59.0952 37.5367 58.8485 37.25C58.6085 36.9567 58.2685 36.81 57.8285 36.81C57.3885 36.81 57.0418 36.9533 56.7885 37.24C56.5418 37.5267 56.4185 37.9233 56.4185 38.43C56.4185 38.9367 56.5452 39.3333 56.7985 39.62C57.0518 39.9067 57.3952 40.05 57.8285 40.05ZM63.3258 41.07C62.6458 41.07 62.0891 40.93 61.6558 40.65C61.5358 40.5767 61.4491 40.5 61.3958 40.42C61.3491 40.34 61.3258 40.25 61.3258 40.15C61.3258 40.0433 61.3558 39.9533 61.4158 39.88C61.4758 39.8067 61.5524 39.77 61.6458 39.77C61.7324 39.77 61.8691 39.8233 62.0558 39.93C62.2558 40.0367 62.4491 40.1233 62.6358 40.19C62.8291 40.2567 63.0691 40.29 63.3558 40.29C63.6758 40.29 63.9258 40.2333 64.1058 40.12C64.2858 40.0067 64.3758 39.8467 64.3758 39.64C64.3758 39.5067 64.3391 39.4 64.2658 39.32C64.1991 39.24 64.0791 39.17 63.9058 39.11C63.7324 39.0433 63.4758 38.9733 63.1358 38.9C62.5491 38.7733 62.1258 38.6033 61.8658 38.39C61.6124 38.17 61.4858 37.8733 61.4858 37.5C61.4858 37.2133 61.5691 36.9567 61.7358 36.73C61.9024 36.4967 62.1324 36.3167 62.4258 36.19C62.7191 36.0633 63.0524 36 63.4258 36C63.6924 36 63.9524 36.0367 64.2058 36.11C64.4591 36.1767 64.6824 36.2767 64.8758 36.41C65.0958 36.5567 65.2058 36.7267 65.2058 36.92C65.2058 37.0267 65.1724 37.1167 65.1058 37.19C65.0458 37.2633 64.9724 37.3 64.8858 37.3C64.8258 37.3 64.7658 37.2867 64.7058 37.26C64.6458 37.2333 64.5658 37.19 64.4658 37.13C64.2858 37.0233 64.1158 36.94 63.9558 36.88C63.8024 36.82 63.6091 36.79 63.3758 36.79C63.0958 36.79 62.8691 36.85 62.6958 36.97C62.5291 37.09 62.4458 37.2533 62.4458 37.46C62.4458 37.6467 62.5224 37.7933 62.6758 37.9C62.8358 38 63.1324 38.0967 63.5658 38.19C64.0124 38.2833 64.3624 38.39 64.6158 38.51C64.8691 38.63 65.0491 38.78 65.1558 38.96C65.2691 39.1333 65.3258 39.3567 65.3258 39.63C65.3258 40.0633 65.1424 40.4133 64.7758 40.68C64.4158 40.94 63.9324 41.07 63.3258 41.07Z" fill="#333333"/>
<rect width="20" height="20" fill="black" fill-opacity="0" transform="translate(37.25 9)"/>
<path d="M41.4889 11.3893C41.5621 11.3339 41.6178 11.2972 41.6578 11.2741C41.6618 11.277 41.6663 11.2802 41.6711 11.2839C41.6713 11.284 41.6715 11.2842 41.6717 11.2843L42.96 12.2833C43.4301 12.6477 44.044 12.6801 44.5477 12.4697C45.0554 12.2576 45.4573 11.7966 45.5329 11.2111C45.6398 10.3825 45.7354 9.819 45.8174 9.5H48.675L48.9417 11.2527C49.0279 11.8196 49.4247 12.26 49.9192 12.4607L49.9418 12.4699C50.438 12.6732 51.0372 12.6406 51.5016 12.2906L52.8504 11.2743L52.8605 11.2667C53.9734 12.2939 54.6457 12.9928 54.9241 13.3852C54.9227 13.3875 54.9209 13.3902 54.9185 13.3934L54.916 13.3969C54.7936 13.5684 54.5788 13.8487 54.2667 14.2431C54.1425 14.4002 54.0301 14.5437 53.9297 14.6737C53.5712 15.1378 53.5509 15.7383 53.7617 16.2255C53.7799 16.2674 53.7975 16.3092 53.8146 16.3508C54.0174 16.844 54.4575 17.2483 55.031 17.3361L56.75 17.5991V20.4549L54.9959 20.7204C54.4414 20.8043 54.0034 21.1866 53.8007 21.6742L53.7744 21.7368C53.5693 22.2187 53.5791 22.8196 53.9343 23.2894C54.2122 23.657 54.5594 24.0952 54.975 24.6031L54.975 24.6031L54.9779 24.6066C54.978 24.6067 54.9781 24.6068 54.9782 24.607L54.9711 24.6167C54.7624 24.9027 54.3579 25.3473 53.7349 25.9617C53.4286 26.2637 53.1883 26.4773 53.0098 26.6121C52.9338 26.6696 52.8767 26.7067 52.8368 26.7292C52.8293 26.7255 52.8206 26.7207 52.8105 26.7148L51.5412 25.7214C51.0716 25.3539 50.4559 25.3201 49.9509 25.5309C49.444 25.7426 49.0428 26.2028 48.9673 26.7873C48.8603 27.6167 48.7646 28.1808 48.6826 28.5H45.825L45.5583 26.7473C45.4721 26.1804 45.0753 25.74 44.5808 25.5393L44.5602 25.5309C44.0625 25.3272 43.4612 25.3608 42.9964 25.7135L41.6613 26.7267L41.6531 26.7329L41.648 26.7282C40.5576 25.7417 39.8799 25.0463 39.5738 24.6248C39.5736 24.6237 39.5733 24.6219 39.5732 24.6194C39.5747 24.6165 39.5773 24.6123 39.5815 24.6066L39.5815 24.6066L39.584 24.6031C39.7064 24.4316 39.9212 24.1513 40.2333 23.7569C40.3547 23.6033 40.4649 23.4627 40.5635 23.335C40.9283 22.863 40.94 22.2552 40.7299 21.7676C40.7145 21.7316 40.6994 21.6958 40.6848 21.66C40.4812 21.1606 40.0367 20.738 39.4451 20.6508L37.75 20.4007V17.5432L39.4738 17.2837C40.0542 17.1963 40.493 16.7857 40.6995 16.2971L40.7185 16.2527C40.9265 15.7716 40.9218 15.1692 40.5661 14.696C40.2732 14.3062 39.9266 13.8696 39.5271 13.3865C39.5291 13.3834 39.5313 13.3802 39.5336 13.3768C39.7337 13.1009 40.1338 12.661 40.7586 12.0448C41.0671 11.7406 41.3092 11.5253 41.4889 11.3893ZM41.7102 11.2479C41.7102 11.248 41.7091 11.2484 41.7069 11.2491C41.7091 11.2482 41.7102 11.2478 41.7102 11.2479ZM39.0078 13.388C39.0078 13.3012 39.0469 13.2014 39.125 13.0885L37.6016 17.0599L39.3994 16.7893C39.7806 16.7319 40.0888 16.4576 40.2389 16.1025L40.2596 16.0543C40.4102 15.7057 40.3946 15.2999 40.1664 14.9964C39.8784 14.6131 39.5356 14.1812 39.138 13.7005C39.0512 13.5964 39.0078 13.4922 39.0078 13.388ZM51.0833 19C51.0833 17.9472 50.7051 17.0344 49.9603 16.2897C49.2156 15.5449 48.3028 15.1667 47.25 15.1667C46.1972 15.1667 45.2844 15.5449 44.5397 16.2897C43.7949 17.0344 43.4167 17.9472 43.4167 19C43.4167 20.0528 43.7949 20.9656 44.5397 21.7103C45.2844 22.4551 46.1972 22.8333 47.25 22.8333C48.3028 22.8333 49.2156 22.4551 49.9603 21.7103C50.7051 20.9656 51.0833 20.0528 51.0833 19Z" stroke="#333333"/>
</g>
<defs>
<clipPath id="clip0">
<rect width="93.75" height="50" fill="white" transform="translate(0.25)"/>
</clipPath>
</defs>
</svg>
