<svg width="400" height="128" viewBox="0 0 400 128" fill="none" xmlns="http://www.w3.org/2000/svg">
<path d="M140.759 53.4282V73.0612C140.759 75.2573 141.731 76.3553 143.674 76.3553C143.976 76.3553 144.386 76.2894 144.904 76.1577C145.423 75.982 145.833 75.8941 146.135 75.8941C146.696 75.8941 147.171 76.1357 147.56 76.6188C147.948 77.102 148.143 77.7169 148.143 78.4636C148.143 79.3859 147.625 80.1765 146.588 80.8353C145.552 81.4941 144.386 81.8236 143.091 81.8236C141.666 81.8236 140.349 81.6698 139.14 81.3624C137.974 81.0549 136.916 80.2863 135.966 79.0565C135.06 77.7828 134.606 75.8722 134.606 73.3247V53.4282H130.85C130.029 53.4282 129.339 53.1647 128.777 52.6377C128.259 52.0667 128 51.3639 128 50.5294C128 49.6949 128.259 49.0141 128.777 48.4871C129.339 47.96 130.029 47.6965 130.85 47.6965H134.606V42.1624C134.606 41.2839 134.887 40.5373 135.448 39.9224C136.053 39.3075 136.808 39 137.715 39C138.579 39 139.291 39.3075 139.852 39.9224C140.457 40.5373 140.759 41.2839 140.759 42.1624V47.6965H146.135C146.955 47.6965 147.625 47.982 148.143 48.5529C148.704 49.08 148.985 49.7608 148.985 50.5953C148.985 51.4298 148.704 52.1106 148.143 52.6377C147.625 53.1647 146.955 53.4282 146.135 53.4282H140.759Z" fill="#002F8C"/>
<path d="M190.169 46.84C191.076 46.84 191.81 47.1475 192.372 47.7624C192.976 48.3333 193.278 49.102 193.278 50.0682V78.6612C193.278 79.5396 192.976 80.2863 192.372 80.9012C191.81 81.5161 191.076 81.8236 190.169 81.8236C189.263 81.8236 188.529 81.5381 187.967 80.9671C187.406 80.3522 187.125 79.5836 187.125 78.6612V76.9483C186.003 78.4855 184.47 79.8032 182.527 80.9012C180.584 81.9553 178.49 82.4824 176.244 82.4824C173.308 82.4824 170.631 81.7138 168.213 80.1765C165.838 78.6392 163.96 76.509 162.578 73.7859C161.24 71.0188 160.571 67.9224 160.571 64.4965C160.571 61.0706 161.24 57.9961 162.578 55.2729C163.96 52.5059 165.838 50.3537 168.213 48.8165C170.588 47.2792 173.2 46.5106 176.05 46.5106C178.339 46.5106 180.454 46.9937 182.397 47.96C184.384 48.9263 185.96 50.1561 187.125 51.6494V50.0682C187.125 49.1459 187.406 48.3773 187.967 47.7624C188.529 47.1475 189.263 46.84 190.169 46.84ZM176.957 76.6847C178.986 76.6847 180.778 76.1577 182.333 75.1035C183.93 74.0494 185.161 72.6 186.024 70.7553C186.931 68.9106 187.384 66.8243 187.384 64.4965C187.384 62.2126 186.931 60.1482 186.024 58.3035C185.161 56.4588 183.93 55.0094 182.333 53.9553C180.778 52.8573 178.986 52.3082 176.957 52.3082C174.927 52.3082 173.114 52.8353 171.516 53.8894C169.962 54.9435 168.731 56.393 167.825 58.2377C166.961 60.0824 166.529 62.1686 166.529 64.4965C166.529 66.8243 166.961 68.9106 167.825 70.7553C168.731 72.6 169.962 74.0494 171.516 75.1035C173.114 76.1577 174.927 76.6847 176.957 76.6847Z" fill="#002F8C"/>
<path d="M225.938 46.7082C228.874 46.7082 231.53 47.4769 233.904 49.0141C236.279 50.5075 238.136 52.6157 239.474 55.3388C240.856 58.062 241.547 61.1365 241.547 64.5624C241.547 67.9883 240.856 71.0628 239.474 73.7859C238.136 76.4651 236.279 78.5734 233.904 80.1106C231.53 81.6479 228.917 82.4165 226.067 82.4165C223.822 82.4165 221.728 81.9114 219.785 80.9012C217.842 79.891 216.266 78.6612 215.057 77.2118V91.8377C215.057 92.7161 214.755 93.4628 214.15 94.0777C213.589 94.6926 212.855 95 211.948 95C211.085 95 210.35 94.6926 209.746 94.0777C209.185 93.5067 208.904 92.76 208.904 91.8377V50.3977C208.904 49.4753 209.185 48.7067 209.746 48.0918C210.307 47.4769 211.041 47.1694 211.948 47.1694C212.855 47.1694 213.589 47.4769 214.15 48.0918C214.755 48.7067 215.057 49.4753 215.057 50.3977V52.3082C216.093 50.771 217.604 49.4533 219.591 48.3553C221.577 47.2573 223.693 46.7082 225.938 46.7082ZM225.225 76.6188C227.212 76.6188 229.004 76.0918 230.601 75.0377C232.199 73.9835 233.429 72.5561 234.293 70.7553C235.2 68.9106 235.653 66.8463 235.653 64.5624C235.653 62.2784 235.2 60.2361 234.293 58.4353C233.429 56.5906 232.199 55.1412 230.601 54.0871C229.004 53.0329 227.212 52.5059 225.225 52.5059C223.196 52.5059 221.383 53.0329 219.785 54.0871C218.187 55.0973 216.935 56.5247 216.028 58.3694C215.165 60.2141 214.733 62.2784 214.733 64.5624C214.733 66.8463 215.165 68.9106 216.028 70.7553C216.935 72.6 218.187 74.0494 219.785 75.1035C221.383 76.1137 223.196 76.6188 225.225 76.6188Z" fill="#002F8C"/>
<path d="M294.09 46.7082C301.647 46.7082 305.425 51.4957 305.425 61.0706V78.6612C305.425 79.5836 305.144 80.3522 304.583 80.9671C304.021 81.5381 303.287 81.8236 302.381 81.8236C301.474 81.8236 300.718 81.5161 300.114 80.9012C299.552 80.2863 299.272 79.5396 299.272 78.6612V61.1365C299.272 55.3828 296.897 52.5059 292.147 52.5059C290.463 52.5059 288.93 52.9012 287.549 53.6918C286.21 54.4384 285.152 55.4706 284.375 56.7882C283.641 58.1059 283.274 59.5553 283.274 61.1365V78.6612C283.274 79.5396 282.972 80.2863 282.367 80.9012C281.806 81.5161 281.072 81.8236 280.165 81.8236C279.258 81.8236 278.524 81.5381 277.963 80.9671C277.402 80.3522 277.121 79.5836 277.121 78.6612V61.0706C277.121 58.4792 276.581 56.4149 275.502 54.8777C274.422 53.2965 272.631 52.5059 270.126 52.5059C267.579 52.5059 265.463 53.3404 263.779 55.0094C262.138 56.6345 261.318 58.6549 261.318 61.0706V78.6612C261.318 79.5396 261.016 80.2863 260.411 80.9012C259.85 81.5161 259.116 81.8236 258.209 81.8236C257.302 81.8236 256.568 81.5381 256.007 80.9671C255.446 80.3522 255.165 79.5836 255.165 78.6612V50.4635C255.165 49.5851 255.446 48.8384 256.007 48.2235C256.611 47.6086 257.345 47.3012 258.209 47.3012C259.116 47.3012 259.85 47.6086 260.411 48.2235C261.016 48.8384 261.318 49.5851 261.318 50.4635V52.7694C262.44 51.0565 263.93 49.629 265.787 48.4871C267.687 47.3012 269.738 46.7082 271.94 46.7082C277.294 46.7082 280.77 49.1239 282.367 53.9553C283.317 52.1106 284.893 50.4416 287.095 48.9482C289.297 47.4549 291.629 46.7082 294.09 46.7082Z" fill="#002F8C"/>
<path d="M348.623 46.84C349.529 46.84 350.263 47.1475 350.825 47.7624C351.429 48.3333 351.732 49.102 351.732 50.0682V78.6612C351.732 79.5396 351.429 80.2863 350.825 80.9012C350.263 81.5161 349.529 81.8236 348.623 81.8236C347.716 81.8236 346.982 81.5381 346.421 80.9671C345.859 80.3522 345.579 79.5836 345.579 78.6612V76.9483C344.456 78.4855 342.923 79.8032 340.98 80.9012C339.037 81.9553 336.943 82.4824 334.698 82.4824C331.762 82.4824 329.084 81.7138 326.666 80.1765C324.292 78.6392 322.413 76.509 321.032 73.7859C319.693 71.0188 319.024 67.9224 319.024 64.4965C319.024 61.0706 319.693 57.9961 321.032 55.2729C322.413 52.5059 324.292 50.3537 326.666 48.8165C329.041 47.2792 331.654 46.5106 334.503 46.5106C336.792 46.5106 338.908 46.9937 340.851 47.96C342.837 48.9263 344.413 50.1561 345.579 51.6494V50.0682C345.579 49.1459 345.859 48.3773 346.421 47.7624C346.982 47.1475 347.716 46.84 348.623 46.84ZM335.41 76.6847C337.439 76.6847 339.231 76.1577 340.786 75.1035C342.383 74.0494 343.614 72.6 344.478 70.7553C345.384 68.9106 345.838 66.8243 345.838 64.4965C345.838 62.2126 345.384 60.1482 344.478 58.3035C343.614 56.4588 342.383 55.0094 340.786 53.9553C339.231 52.8573 337.439 52.3082 335.41 52.3082C333.381 52.3082 331.567 52.8353 329.97 53.8894C328.415 54.9435 327.185 56.393 326.278 58.2377C325.414 60.0824 324.982 62.1686 324.982 64.4965C324.982 66.8243 325.414 68.9106 326.278 70.7553C327.185 72.6 328.415 74.0494 329.97 75.1035C331.567 76.1577 333.381 76.6847 335.41 76.6847Z" fill="#002F8C"/>
<path d="M384.391 46.7082C387.327 46.7082 389.983 47.4769 392.358 49.0141C394.732 50.5075 396.589 52.6157 397.928 55.3388C399.309 58.062 400 61.1365 400 64.5624C400 67.9883 399.309 71.0628 397.928 73.7859C396.589 76.4651 394.732 78.5734 392.358 80.1106C389.983 81.6479 387.371 82.4165 384.521 82.4165C382.275 82.4165 380.181 81.9114 378.238 80.9012C376.295 79.891 374.719 78.6612 373.51 77.2118V91.8377C373.51 92.7161 373.208 93.4628 372.603 94.0777C372.042 94.6926 371.308 95 370.401 95C369.538 95 368.804 94.6926 368.199 94.0777C367.638 93.5067 367.357 92.76 367.357 91.8377V50.3977C367.357 49.4753 367.638 48.7067 368.199 48.0918C368.761 47.4769 369.495 47.1694 370.401 47.1694C371.308 47.1694 372.042 47.4769 372.603 48.0918C373.208 48.7067 373.51 49.4753 373.51 50.3977V52.3082C374.547 50.771 376.058 49.4533 378.044 48.3553C380.03 47.2573 382.146 46.7082 384.391 46.7082ZM383.679 76.6188C385.665 76.6188 387.457 76.0918 389.054 75.0377C390.652 73.9835 391.883 72.5561 392.746 70.7553C393.653 68.9106 394.106 66.8463 394.106 64.5624C394.106 62.2784 393.653 60.2361 392.746 58.4353C391.883 56.5906 390.652 55.1412 389.054 54.0871C387.457 53.0329 385.665 52.5059 383.679 52.5059C381.649 52.5059 379.836 53.0329 378.238 54.0871C376.641 55.0973 375.389 56.5247 374.482 58.3694C373.618 60.2141 373.186 62.2784 373.186 64.5624C373.186 66.8463 373.618 68.9106 374.482 70.7553C375.389 72.6 376.641 74.0494 378.238 75.1035C379.836 76.1137 381.649 76.6188 383.679 76.6188Z" fill="#002F8C"/>
<path fill-rule="evenodd" clip-rule="evenodd" d="M38.1824 110.182L56.0006 127.999L73.8188 110.182L91.637 127.999H20.3643L38.1824 110.182Z" fill="url(#paint0_linear)"/>
<path d="M84 100L112 128H101.818L78.909 105.091L84 100Z" fill="url(#paint1_linear)"/>
<path d="M28 100L0 128H10.1816L33.0907 105.091L28 100Z" fill="url(#paint2_linear)"/>
<path fill-rule="evenodd" clip-rule="evenodd" d="M47.2914 63.1117C46.6133 62.1184 46.7173 60.6361 47.5237 59.8009C49.5942 57.6563 52.694 56.4297 56.001 56.4297C59.308 56.4297 62.4077 57.6563 64.4782 59.8009C65.2846 60.6361 65.3886 62.1184 64.7105 63.1117C64.0324 64.105 62.829 64.2331 62.0226 63.3978C60.7869 62.1179 58.6228 61.1294 56.001 61.1294C53.3791 61.1294 51.215 62.1179 49.9794 63.3978C49.173 64.2331 47.9695 64.105 47.2914 63.1117Z" fill="url(#paint3_linear)"/>
<path fill-rule="evenodd" clip-rule="evenodd" d="M41.5137 54.1693C40.8597 53.1519 40.9991 51.674 41.8251 50.8684C45.5362 47.249 50.6238 45.1912 55.9917 45.1912C61.3259 45.1912 66.456 47.3021 70.1492 50.8596C70.9792 51.659 71.1258 53.1359 70.4768 54.1582C69.8277 55.1805 68.6288 55.3611 67.7988 54.5616C64.8402 51.7118 60.5583 49.8908 55.9917 49.8908C51.3755 49.8908 47.1505 51.6691 44.1936 54.5529C43.3676 55.3585 42.1678 55.1868 41.5137 54.1693Z" fill="url(#paint4_linear)"/>
<path fill-rule="evenodd" clip-rule="evenodd" d="M36.125 45.4219C35.5126 44.3658 35.7113 42.8983 36.5687 42.144C41.7413 37.5937 48.5846 34.4219 55.9918 34.4219C63.3603 34.4219 70.2553 37.6442 75.4085 42.1385C76.2684 42.8884 76.4719 44.355 75.8631 45.4141C75.2542 46.4733 74.0636 46.7239 73.2037 45.974C68.6171 41.9739 62.48 39.1216 55.9918 39.1216C49.4563 39.1216 43.377 41.93 38.7862 45.9685C37.9288 46.7227 36.7373 46.478 36.125 45.4219Z" fill="url(#paint5_linear)"/>
<path fill-rule="evenodd" clip-rule="evenodd" d="M56.0124 118.143L56.0059 118.136L55.9993 118.143V118.129C55.5519 117.65 43.4503 104.695 42.2096 103.375C24 84 12.9991 69.065 10.7626 50.1491C7.49835 22.5412 29.9002 0 56.0124 0C82.119 0.00753932 104.512 22.5458 101.249 50.1491C99.0126 69.065 88.0117 84 69.8021 103.375C68.5615 104.695 56.4598 117.65 56.0121 118.129L56.0124 118.143ZM24.4974 50.1491C25.2146 56.2159 28.0134 63.5607 31.3472 69.065C35.1366 75.3192 37.6085 78.7618 51.4113 93.5297L56.0059 98.4453L60.6004 93.5297C74.4032 78.7618 76.8751 75.3192 80.6645 69.065C83.9984 63.5607 86.7971 56.2159 87.5143 50.1491C89.6205 32.3376 74.8649 14.6222 56.0124 14.614C37.1537 14.614 22.3907 32.3335 24.4974 50.1491Z" fill="url(#paint6_linear)"/>
<defs>
<linearGradient id="paint0_linear" x1="56" y1="-1.17952e-05" x2="56" y2="128" gradientUnits="userSpaceOnUse">
<stop stop-color="#0C8EED"/>
<stop offset="1" stop-color="#90E0F1"/>
</linearGradient>
<linearGradient id="paint1_linear" x1="65.0001" y1="-7.62939e-06" x2="65.0001" y2="128" gradientUnits="userSpaceOnUse">
<stop stop-color="#0C8EED"/>
<stop offset="1" stop-color="#90E0F1"/>
</linearGradient>
<linearGradient id="paint2_linear" x1="65.0001" y1="-7.62939e-06" x2="65.0001" y2="128" gradientUnits="userSpaceOnUse">
<stop stop-color="#0C8EED"/>
<stop offset="1" stop-color="#90E0F1"/>
</linearGradient>
<linearGradient id="paint3_linear" x1="56" y1="2.36323e-07" x2="56" y2="128" gradientUnits="userSpaceOnUse">
<stop stop-color="#0C8EED"/>
<stop offset="1" stop-color="#90E0F1"/>
</linearGradient>
<linearGradient id="paint4_linear" x1="56" y1="4.36682e-06" x2="56" y2="128" gradientUnits="userSpaceOnUse">
<stop stop-color="#0C8EED"/>
<stop offset="1" stop-color="#90E0F1"/>
</linearGradient>
<linearGradient id="paint5_linear" x1="56" y1="9.29306e-06" x2="56" y2="128" gradientUnits="userSpaceOnUse">
<stop stop-color="#0C8EED"/>
<stop offset="1" stop-color="#90E0F1"/>
</linearGradient>
<linearGradient id="paint6_linear" x1="101.541" y1="0" x2="101.541" y2="128" gradientUnits="userSpaceOnUse">
<stop stop-color="#0C8EED"/>
<stop offset="1" stop-color="#90E0F1"/>
</linearGradient>
</defs>
</svg>
