<svg width="185" height="40" viewBox="0 0 185 40" fill="none" xmlns="http://www.w3.org/2000/svg">
<rect width="185" height="40" fill="black" fill-opacity="0"/>
<rect width="185" height="40" fill="black" fill-opacity="0"/>
<rect width="185" height="40" fill="black" fill-opacity="0"/>
<rect width="185" height="40" fill="black" fill-opacity="0"/>
<rect width="185" height="40" fill="black" fill-opacity="0"/>
<path d="M183 0H2C0.89543 0 0 0.89543 0 2V38C0 39.1046 0.89543 40 2 40H183C184.105 40 185 39.1046 185 38V2C185 0.89543 184.105 0 183 0Z" fill="black"/>
<path d="M183 0H2C0.89543 0 0 0.89543 0 2V38C0 39.1046 0.89543 40 2 40H183C184.105 40 185 39.1046 185 38V2C185 0.89543 184.105 0 183 0Z" fill="white"/>
<rect width="18" height="18" fill="black" fill-opacity="0" transform="translate(11 11)"/>
<path fill-rule="evenodd" clip-rule="evenodd" d="M28.64 20.2046C28.64 19.5664 28.5827 18.9527 28.4764 18.3636H20V21.845H24.8436C24.635 22.97 24.0009 23.9232 23.0477 24.5614V26.8196H25.9564C27.6582 25.2527 28.64 22.9455 28.64 20.2046Z" fill="#4285F4"/>
<path fill-rule="evenodd" clip-rule="evenodd" d="M20 29C22.43 29 24.4673 28.1941 25.9564 26.8195L23.0477 24.5613C22.2418 25.1013 21.2109 25.4204 20 25.4204C17.6559 25.4204 15.6718 23.8372 14.9641 21.71H11.9573V24.0418C13.4382 26.9831 16.4818 29 20 29Z" fill="#34A853"/>
<path fill-rule="evenodd" clip-rule="evenodd" d="M14.9641 21.7099C14.7841 21.1699 14.6818 20.5931 14.6818 19.9999C14.6818 19.4068 14.7841 18.8299 14.9641 18.2899V15.9581H11.9573C11.3477 17.1731 11 18.5477 11 19.9999C11 21.4522 11.3477 22.8268 11.9573 24.0418L14.9641 21.7099Z" fill="#FBBC05"/>
<path fill-rule="evenodd" clip-rule="evenodd" d="M20 14.5795C21.3214 14.5795 22.5077 15.0336 23.4405 15.9255L26.0218 13.3441C24.4632 11.8918 22.4259 11 20 11C16.4818 11 13.4382 13.0168 11.9573 15.9582L14.9641 18.29C15.6718 16.1627 17.6559 14.5795 20 14.5795Z" fill="#EA4335"/>
<path d="M54.0879 19.5635C52.9622 19.2399 52.1419 18.8434 51.627 18.374C51.1165 17.9001 50.8613 17.3167 50.8613 16.624C50.8613 15.8402 51.1735 15.193 51.7979 14.6826C52.4268 14.1676 53.2425 13.9102 54.2451 13.9102C54.9287 13.9102 55.5371 14.0423 56.0703 14.3066C56.6081 14.571 57.0228 14.9355 57.3145 15.4004C57.6107 15.8652 57.7588 16.3734 57.7588 16.9248H56.4395C56.4395 16.3232 56.248 15.8516 55.8652 15.5098C55.4824 15.1634 54.9424 14.9902 54.2451 14.9902C53.598 14.9902 53.0921 15.1338 52.7275 15.4209C52.3675 15.7035 52.1875 16.0977 52.1875 16.6035C52.1875 17.0091 52.3584 17.3532 52.7002 17.6357C53.0465 17.9137 53.6322 18.1689 54.457 18.4014C55.2865 18.6338 55.9336 18.8913 56.3984 19.1738C56.8678 19.4518 57.2142 19.7777 57.4375 20.1514C57.6654 20.5251 57.7793 20.9648 57.7793 21.4707C57.7793 22.2773 57.4648 22.9245 56.8359 23.4121C56.207 23.8952 55.3662 24.1367 54.3135 24.1367C53.6299 24.1367 52.9919 24.0068 52.3994 23.7471C51.807 23.4827 51.349 23.1227 51.0254 22.667C50.7064 22.2113 50.5469 21.694 50.5469 21.1152H51.8662C51.8662 21.7168 52.0872 22.193 52.5293 22.5439C52.9759 22.8903 53.5706 23.0635 54.3135 23.0635C55.0062 23.0635 55.5371 22.9222 55.9062 22.6396C56.2754 22.3571 56.46 21.972 56.46 21.4844C56.46 20.9967 56.2891 20.6208 55.9473 20.3564C55.6055 20.0876 54.9857 19.8232 54.0879 19.5635ZM60.6436 24H59.3789V16.6035H60.6436V24ZM59.2764 14.6416C59.2764 14.4365 59.3379 14.2633 59.4609 14.1221C59.5885 13.9808 59.7754 13.9102 60.0215 13.9102C60.2676 13.9102 60.4544 13.9808 60.582 14.1221C60.7096 14.2633 60.7734 14.4365 60.7734 14.6416C60.7734 14.8467 60.7096 15.0176 60.582 15.1543C60.4544 15.291 60.2676 15.3594 60.0215 15.3594C59.7754 15.3594 59.5885 15.291 59.4609 15.1543C59.3379 15.0176 59.2764 14.8467 59.2764 14.6416ZM62.373 20.2402C62.373 19.0872 62.6396 18.1712 63.1729 17.4922C63.7061 16.8086 64.4124 16.4668 65.292 16.4668C66.1943 16.4668 66.8984 16.7858 67.4043 17.4238L67.4658 16.6035H68.6211V23.8223C68.6211 24.7793 68.3363 25.5335 67.7666 26.085C67.2015 26.6364 66.4404 26.9121 65.4834 26.9121C64.9502 26.9121 64.4284 26.7982 63.918 26.5703C63.4076 26.3424 63.0179 26.0303 62.749 25.6338L63.4053 24.875C63.9476 25.5449 64.6107 25.8799 65.3945 25.8799C66.0098 25.8799 66.4883 25.7067 66.8301 25.3604C67.1764 25.014 67.3496 24.5264 67.3496 23.8975V23.2617C66.8438 23.8451 66.1533 24.1367 65.2783 24.1367C64.4124 24.1367 63.7106 23.7881 63.1729 23.0908C62.6396 22.3936 62.373 21.4434 62.373 20.2402ZM63.6445 20.3838C63.6445 21.2178 63.8154 21.874 64.1572 22.3525C64.499 22.8265 64.9775 23.0635 65.5928 23.0635C66.3903 23.0635 66.9759 22.7012 67.3496 21.9766V18.5996C66.9622 17.8932 66.3812 17.54 65.6064 17.54C64.9912 17.54 64.5104 17.7793 64.1641 18.2578C63.8177 18.7363 63.6445 19.445 63.6445 20.3838ZM71.7314 16.6035L71.7725 17.5332C72.3376 16.8223 73.0758 16.4668 73.9873 16.4668C75.5505 16.4668 76.3389 17.3486 76.3525 19.1123V24H75.0879V19.1055C75.0833 18.5723 74.9603 18.1781 74.7188 17.9229C74.4818 17.6676 74.1104 17.54 73.6045 17.54C73.1943 17.54 72.8343 17.6494 72.5244 17.8682C72.2145 18.0869 71.973 18.374 71.7998 18.7295V24H70.5352V16.6035H71.7314ZM86.2988 23.2686C85.8066 23.8473 85.0843 24.1367 84.1318 24.1367C83.3434 24.1367 82.7419 23.9089 82.3271 23.4531C81.917 22.9928 81.7096 22.3138 81.7051 21.416V16.6035H82.9697V21.3818C82.9697 22.5029 83.4255 23.0635 84.3369 23.0635C85.3031 23.0635 85.9456 22.7035 86.2646 21.9834V16.6035H87.5293V24H86.3262L86.2988 23.2686ZM95.7051 20.3838C95.7051 21.5094 95.4476 22.4163 94.9326 23.1045C94.4176 23.7926 93.7204 24.1367 92.8408 24.1367C91.943 24.1367 91.2367 23.8519 90.7217 23.2822V26.8438H89.457V16.6035H90.6123L90.6738 17.4238C91.1888 16.7858 91.9043 16.4668 92.8203 16.4668C93.709 16.4668 94.4108 16.8018 94.9258 17.4717C95.4453 18.1416 95.7051 19.0736 95.7051 20.2676V20.3838ZM94.4404 20.2402C94.4404 19.4062 94.2627 18.7477 93.9072 18.2646C93.5518 17.7816 93.0641 17.54 92.4443 17.54C91.6787 17.54 91.1045 17.8796 90.7217 18.5586V22.0928C91.0999 22.7673 91.6787 23.1045 92.458 23.1045C93.0641 23.1045 93.5449 22.8652 93.9004 22.3867C94.2604 21.9036 94.4404 21.1882 94.4404 20.2402ZM107.34 22.2568L108.762 16.6035H110.026L107.873 24H106.848L105.05 18.3945L103.3 24H102.274L100.128 16.6035H101.386L102.842 22.1406L104.564 16.6035H105.583L107.34 22.2568ZM112.692 24H111.428V16.6035H112.692V24ZM111.325 14.6416C111.325 14.4365 111.387 14.2633 111.51 14.1221C111.637 13.9808 111.824 13.9102 112.07 13.9102C112.316 13.9102 112.503 13.9808 112.631 14.1221C112.758 14.2633 112.822 14.4365 112.822 14.6416C112.822 14.8467 112.758 15.0176 112.631 15.1543C112.503 15.291 112.316 15.3594 112.07 15.3594C111.824 15.3594 111.637 15.291 111.51 15.1543C111.387 15.0176 111.325 14.8467 111.325 14.6416ZM116.438 14.8125V16.6035H117.819V17.5811H116.438V22.168C116.438 22.4642 116.5 22.6875 116.623 22.8379C116.746 22.9837 116.956 23.0566 117.252 23.0566C117.398 23.0566 117.598 23.0293 117.854 22.9746V24C117.521 24.0911 117.197 24.1367 116.883 24.1367C116.318 24.1367 115.892 23.9658 115.604 23.624C115.317 23.2822 115.174 22.7969 115.174 22.168V17.5811H113.827V16.6035H115.174V14.8125H116.438ZM120.567 17.499C121.128 16.8109 121.857 16.4668 122.755 16.4668C124.318 16.4668 125.106 17.3486 125.12 19.1123V24H123.855V19.1055C123.851 18.5723 123.728 18.1781 123.486 17.9229C123.249 17.6676 122.878 17.54 122.372 17.54C121.962 17.54 121.602 17.6494 121.292 17.8682C120.982 18.0869 120.741 18.374 120.567 18.7295V24H119.303V13.5H120.567V17.499ZM138.033 22.6943C137.696 23.1774 137.224 23.5397 136.618 23.7812C136.017 24.0182 135.315 24.1367 134.513 24.1367C133.701 24.1367 132.981 23.9476 132.353 23.5693C131.724 23.1865 131.236 22.6442 130.89 21.9424C130.548 21.2406 130.372 20.4271 130.363 19.502V18.6338C130.363 17.1344 130.712 15.9723 131.409 15.1475C132.111 14.3226 133.095 13.9102 134.362 13.9102C135.401 13.9102 136.238 14.1768 136.871 14.71C137.505 15.2386 137.892 15.9906 138.033 16.9658H136.721C136.475 15.6488 135.691 14.9902 134.369 14.9902C133.49 14.9902 132.822 15.3001 132.366 15.9199C131.915 16.5352 131.687 17.4284 131.683 18.5996V19.4131C131.683 20.5296 131.938 21.4183 132.448 22.0791C132.959 22.7354 133.649 23.0635 134.52 23.0635C135.012 23.0635 135.442 23.0088 135.812 22.8994C136.181 22.79 136.486 22.6055 136.728 22.3457V20.1104H134.424V19.0439H138.033V22.6943ZM139.694 20.2334C139.694 19.5088 139.836 18.8571 140.118 18.2783C140.405 17.6995 140.802 17.2529 141.308 16.9385C141.818 16.624 142.399 16.4668 143.051 16.4668C144.058 16.4668 144.871 16.8154 145.491 17.5127C146.116 18.21 146.428 19.1374 146.428 20.2949V20.3838C146.428 21.1038 146.289 21.751 146.011 22.3252C145.737 22.8949 145.343 23.3392 144.828 23.6582C144.318 23.9772 143.73 24.1367 143.064 24.1367C142.062 24.1367 141.248 23.7881 140.624 23.0908C140.004 22.3936 139.694 21.4707 139.694 20.3223V20.2334ZM140.966 20.3838C140.966 21.2041 141.155 21.8626 141.533 22.3594C141.916 22.8561 142.426 23.1045 143.064 23.1045C143.707 23.1045 144.217 22.8538 144.596 22.3525C144.974 21.8467 145.163 21.1403 145.163 20.2334C145.163 19.4222 144.969 18.766 144.582 18.2646C144.199 17.7588 143.689 17.5059 143.051 17.5059C142.426 17.5059 141.923 17.7542 141.54 18.251C141.157 18.7477 140.966 19.4587 140.966 20.3838ZM147.679 20.2334C147.679 19.5088 147.82 18.8571 148.103 18.2783C148.39 17.6995 148.786 17.2529 149.292 16.9385C149.802 16.624 150.383 16.4668 151.035 16.4668C152.042 16.4668 152.856 16.8154 153.476 17.5127C154.1 18.21 154.412 19.1374 154.412 20.2949V20.3838C154.412 21.1038 154.273 21.751 153.995 22.3252C153.722 22.8949 153.327 23.3392 152.812 23.6582C152.302 23.9772 151.714 24.1367 151.049 24.1367C150.046 24.1367 149.233 23.7881 148.608 23.0908C147.989 22.3936 147.679 21.4707 147.679 20.3223V20.2334ZM148.95 20.3838C148.95 21.2041 149.139 21.8626 149.518 22.3594C149.9 22.8561 150.411 23.1045 151.049 23.1045C151.691 23.1045 152.202 22.8538 152.58 22.3525C152.958 21.8467 153.147 21.1403 153.147 20.2334C153.147 19.4222 152.954 18.766 152.566 18.2646C152.184 17.7588 151.673 17.5059 151.035 17.5059C150.411 17.5059 149.907 17.7542 149.524 18.251C149.142 18.7477 148.95 19.4587 148.95 20.3838ZM155.697 20.2402C155.697 19.0872 155.964 18.1712 156.497 17.4922C157.03 16.8086 157.737 16.4668 158.616 16.4668C159.519 16.4668 160.223 16.7858 160.729 17.4238L160.79 16.6035H161.945V23.8223C161.945 24.7793 161.66 25.5335 161.091 26.085C160.526 26.6364 159.765 26.9121 158.808 26.9121C158.274 26.9121 157.753 26.7982 157.242 26.5703C156.732 26.3424 156.342 26.0303 156.073 25.6338L156.729 24.875C157.272 25.5449 157.935 25.8799 158.719 25.8799C159.334 25.8799 159.812 25.7067 160.154 25.3604C160.501 25.014 160.674 24.5264 160.674 23.8975V23.2617C160.168 23.8451 159.478 24.1367 158.603 24.1367C157.737 24.1367 157.035 23.7881 156.497 23.0908C155.964 22.3936 155.697 21.4434 155.697 20.2402ZM156.969 20.3838C156.969 21.2178 157.14 21.874 157.481 22.3525C157.823 22.8265 158.302 23.0635 158.917 23.0635C159.715 23.0635 160.3 22.7012 160.674 21.9766V18.5996C160.286 17.8932 159.705 17.54 158.931 17.54C158.315 17.54 157.835 17.7793 157.488 18.2578C157.142 18.7363 156.969 19.445 156.969 20.3838ZM165.233 24H163.969V13.5H165.233V24ZM170.333 24.1367C169.33 24.1367 168.515 23.8086 167.886 23.1523C167.257 22.4915 166.942 21.6097 166.942 20.5068V20.2744C166.942 19.5407 167.081 18.8867 167.359 18.3125C167.642 17.7337 168.034 17.2826 168.535 16.959C169.041 16.6309 169.588 16.4668 170.176 16.4668C171.137 16.4668 171.885 16.7835 172.418 17.417C172.951 18.0505 173.218 18.9574 173.218 20.1377V20.6641H168.207C168.225 21.3932 168.437 21.9834 168.843 22.4346C169.253 22.8812 169.772 23.1045 170.401 23.1045C170.848 23.1045 171.226 23.0133 171.536 22.8311C171.846 22.6488 172.117 22.4072 172.35 22.1064L173.122 22.708C172.502 23.6605 171.573 24.1367 170.333 24.1367ZM170.176 17.5059C169.665 17.5059 169.237 17.6927 168.891 18.0664C168.544 18.4355 168.33 18.9551 168.248 19.625H171.953V19.5293C171.917 18.8867 171.743 18.39 171.434 18.0391C171.124 17.6836 170.704 17.5059 170.176 17.5059Z" fill="black" fill-opacity="0.54"/>
</svg>
