<svg width="200" height="64" viewBox="0 0 200 64" fill="none" xmlns="http://www.w3.org/2000/svg">
<rect width="200" height="64.001" fill="black" fill-opacity="0"/>
<rect width="200" height="64.001" fill="black" fill-opacity="0"/>
<rect width="55.9999" height="64.001" fill="black" fill-opacity="0"/>
<mask id="mask0" mask-type="alpha" maskUnits="userSpaceOnUse" x="0" y="0" width="56" height="65">
<rect width="55.9999" height="64.001" fill="black" fill-opacity="0"/>
<path d="M19.0917 55.0906L28.0008 63.9993L36.9099 55.0906L45.819 63.9992H10.1826L19.0917 55.0906Z" fill="#C4C4C4"/>
<path fill-rule="evenodd" clip-rule="evenodd" d="M16.5439 52.5469L14 50L0 64L5.08983 64.001L16.5439 52.5469ZM50.9081 64.001L55.9999 64L41.9999 50L39.453 52.5469L50.9081 64.001Z" fill="#C4C4C4"/>
<path d="M28.0062 0C14.9501 0 3.74916 11.2706 5.38128 25.0746C6.49954 34.5325 12 42 21.1048 51.6875C21.7368 52.36 28.0062 59.0714 28.0062 59.0714V49.2262L25.7057 46.7649C18.8043 39.381 17.5683 37.6596 15.6736 34.5325C14.0067 31.7804 12.6073 28.108 12.2487 25.0746C11.1954 16.1668 18.5769 7.30701 28.0062 7.30701V0Z" fill="#3396F2"/>
<path d="M27.9997 0C41.0558 0 52.2567 11.2706 50.6246 25.0746C49.5063 34.5325 44.0059 42 34.9011 51.6875C34.269 52.36 27.9997 59.0714 27.9997 59.0714V49.2262L30.3002 46.7649C37.2016 39.381 38.4376 37.6596 40.3323 34.5325C41.9992 31.7804 43.3986 28.108 43.7572 25.0746C44.8105 16.1668 37.429 7.30701 27.9997 7.30701V0Z" fill="#3396F2"/>
<rect width="14.7646" height="20.2222" fill="black" fill-opacity="0" transform="translate(17.8847 31.9745) rotate(-90)"/>
<path fill-rule="evenodd" clip-rule="evenodd" d="M23.6447 31.5556C23.3056 31.059 23.3576 30.3179 23.7608 29.9002C24.7961 28.8279 26.3459 28.2147 27.9994 28.2147C29.6529 28.2147 31.2028 28.8279 32.2381 29.9002C32.6413 30.3179 32.6933 31.059 32.3542 31.5556C32.0152 32.0523 31.4134 32.1163 31.0102 31.6987C30.3924 31.0588 29.3104 30.5645 27.9994 30.5645C26.6885 30.5645 25.6065 31.0588 24.9886 31.6987C24.5854 32.1163 23.9837 32.0523 23.6447 31.5556Z" fill="#3396F2"/>
<path fill-rule="evenodd" clip-rule="evenodd" d="M20.7558 27.0844C20.4288 26.5757 20.4985 25.8368 20.9115 25.434C22.7671 23.6243 25.3109 22.5954 27.9948 22.5954C30.6619 22.5954 33.2269 23.6508 35.0736 25.4296C35.4886 25.8293 35.5619 26.5677 35.2374 27.0789C34.9128 27.59 34.3133 27.6803 33.8984 27.2806C32.4191 25.8557 30.2781 24.9452 27.9948 24.9452C25.6867 24.9452 23.5742 25.8343 22.0958 27.2762C21.6828 27.679 21.0828 27.5932 20.7558 27.0844Z" fill="#3396F2"/>
<path fill-rule="evenodd" clip-rule="evenodd" d="M18.0624 22.7098C17.7562 22.1818 17.8556 21.448 18.2843 21.0709C20.8706 18.7957 24.2922 17.2098 27.9958 17.2098C31.6801 17.2098 35.1276 18.8209 37.7042 21.0681C38.1341 21.4431 38.2359 22.1763 37.9315 22.7059C37.627 23.2355 37.0317 23.3608 36.6018 22.9858C34.3085 20.9858 31.24 19.5596 27.9958 19.5596C24.7281 19.5596 21.6884 20.9638 19.393 22.9831C18.9643 23.3602 18.3686 23.2379 18.0624 22.7098Z" fill="#3396F2"/>
</mask>
<g mask="url(#mask0)">
<path d="M0 0H56V64.0001H0V0Z" fill="url(#paint0_linear)"/>
</g>
<path d="M70.3796 26.7141V36.5306C70.3796 37.6287 70.8653 38.1777 71.8368 38.1777C71.988 38.1777 72.1931 38.1447 72.4521 38.0789C72.7112 37.991 72.9163 37.9471 73.0674 37.9471C73.3481 37.9471 73.5856 38.0679 73.7799 38.3094C73.9742 38.551 74.0713 38.8585 74.0713 39.2318C74.0713 39.693 73.8122 40.0883 73.2941 40.4177C72.776 40.7471 72.1931 40.9118 71.5454 40.9118C70.8329 40.9118 70.1745 40.8349 69.57 40.6812C68.9871 40.5275 68.4581 40.1432 67.9832 39.5283C67.5298 38.8914 67.3031 37.9361 67.3031 36.6624V26.7141H65.4248C65.0146 26.7141 64.6692 26.5824 64.3885 26.3188C64.1295 26.0334 63.9999 25.682 63.9999 25.2647C63.9999 24.8475 64.1295 24.5071 64.3885 24.2435C64.6692 23.98 65.0146 23.8483 65.4248 23.8483H67.3031V21.0812C67.3031 20.642 67.4434 20.2686 67.7241 19.9612C68.0263 19.6537 68.4041 19.5 68.8575 19.5C69.2893 19.5 69.6455 19.6537 69.9262 19.9612C70.2284 20.2686 70.3796 20.642 70.3796 21.0812V23.8483H73.0674C73.4776 23.8483 73.8122 23.991 74.0713 24.2765C74.352 24.54 74.4923 24.8804 74.4923 25.2977C74.4923 25.7149 74.352 26.0553 74.0713 26.3188C73.8122 26.5824 73.4776 26.7141 73.0674 26.7141H70.3796Z" fill="#002F8C"/>
<path d="M95.0846 23.42C95.538 23.42 95.905 23.5737 96.1857 23.8812C96.4879 24.1667 96.6391 24.551 96.6391 25.0341V39.3306C96.6391 39.7698 96.4879 40.1432 96.1857 40.4506C95.905 40.7581 95.538 40.9118 95.0846 40.9118C94.6313 40.9118 94.2643 40.7691 93.9836 40.4836C93.7029 40.1761 93.5626 39.7918 93.5626 39.3306V38.4741C93.0013 39.2428 92.2349 39.9016 91.2634 40.4506C90.2918 40.9777 89.2448 41.2412 88.1221 41.2412C86.654 41.2412 85.3155 40.8569 84.1065 40.0883C82.9191 39.3196 81.98 38.2545 81.2891 36.893C80.6199 35.5094 80.2852 33.9612 80.2852 32.2483C80.2852 30.5353 80.6199 28.9981 81.2891 27.6365C81.98 26.253 82.9191 25.1769 84.1065 24.4083C85.2939 23.6396 86.6001 23.2553 88.025 23.2553C89.1692 23.2553 90.2271 23.4969 91.1986 23.98C92.1917 24.4632 92.9797 25.0781 93.5626 25.8247V25.0341C93.5626 24.573 93.7029 24.1886 93.9836 23.8812C94.2643 23.5737 94.6313 23.42 95.0846 23.42ZM88.4783 38.3424C89.493 38.3424 90.389 38.0789 91.1662 37.5518C91.965 37.0247 92.5803 36.3 93.0121 35.3777C93.4655 34.4553 93.6921 33.4122 93.6921 32.2483C93.6921 31.1063 93.4655 30.0741 93.0121 29.1518C92.5803 28.2294 91.965 27.5047 91.1662 26.9777C90.389 26.4286 89.493 26.1541 88.4783 26.1541C87.4636 26.1541 86.5569 26.4177 85.7581 26.9447C84.9809 27.4718 84.3656 28.1965 83.9122 29.1188C83.4804 30.0412 83.2645 31.0843 83.2645 32.2483C83.2645 33.4122 83.4804 34.4553 83.9122 35.3777C84.3656 36.3 84.9809 37.0247 85.7581 37.5518C86.5569 38.0789 87.4636 38.3424 88.4783 38.3424Z" fill="#002F8C"/>
<path d="M112.969 23.3541C114.437 23.3541 115.765 23.7384 116.952 24.5071C118.14 25.2537 119.068 26.3079 119.737 27.6694C120.428 29.031 120.773 30.5683 120.773 32.2812C120.773 33.9941 120.428 35.5314 119.737 36.893C119.068 38.2326 118.14 39.2867 116.952 40.0553C115.765 40.824 114.459 41.2083 113.034 41.2083C111.911 41.2083 110.864 40.9557 109.892 40.4506C108.921 39.9455 108.133 39.3306 107.528 38.6059V45.9189C107.528 46.3581 107.377 46.7314 107.075 47.0389C106.794 47.3463 106.427 47.5 105.974 47.5C105.542 47.5 105.175 47.3463 104.873 47.0389C104.592 46.7534 104.452 46.38 104.452 45.9189V25.1988C104.452 24.7377 104.592 24.3534 104.873 24.0459C105.154 23.7384 105.521 23.5847 105.974 23.5847C106.427 23.5847 106.794 23.7384 107.075 24.0459C107.377 24.3534 107.528 24.7377 107.528 25.1988V26.1541C108.047 25.3855 108.802 24.7267 109.795 24.1777C110.788 23.6286 111.846 23.3541 112.969 23.3541ZM112.613 38.3094C113.606 38.3094 114.502 38.0459 115.301 37.5189C116.099 36.9918 116.715 36.2781 117.146 35.3777C117.6 34.4553 117.826 33.4232 117.826 32.2812C117.826 31.1392 117.6 30.1181 117.146 29.2177C116.715 28.2953 116.099 27.5706 115.301 27.0435C114.502 26.5165 113.606 26.253 112.613 26.253C111.598 26.253 110.691 26.5165 109.892 27.0435C109.094 27.5486 108.468 28.2624 108.014 29.1847C107.582 30.1071 107.366 31.1392 107.366 32.2812C107.366 33.4232 107.582 34.4553 108.014 35.3777C108.468 36.3 109.094 37.0247 109.892 37.5518C110.691 38.0569 111.598 38.3094 112.613 38.3094Z" fill="#002F8C"/>
<path d="M147.045 23.3541C150.823 23.3541 152.712 25.7479 152.712 30.5353V39.3306C152.712 39.7918 152.572 40.1761 152.291 40.4836C152.011 40.7691 151.644 40.9118 151.19 40.9118C150.737 40.9118 150.359 40.7581 150.057 40.4506C149.776 40.1432 149.636 39.7698 149.636 39.3306V30.5683C149.636 27.6914 148.448 26.253 146.074 26.253C145.232 26.253 144.465 26.4506 143.774 26.8459C143.105 27.2192 142.576 27.7353 142.187 28.3941C141.82 29.053 141.637 29.7777 141.637 30.5683V39.3306C141.637 39.7698 141.486 40.1432 141.184 40.4506C140.903 40.7581 140.536 40.9118 140.083 40.9118C139.629 40.9118 139.262 40.7691 138.981 40.4836C138.701 40.1761 138.56 39.7918 138.56 39.3306V30.5353C138.56 29.2396 138.291 28.2075 137.751 27.4388C137.211 26.6483 136.315 26.253 135.063 26.253C133.789 26.253 132.731 26.6702 131.889 27.5047C131.069 28.3173 130.659 29.3275 130.659 30.5353V39.3306C130.659 39.7698 130.508 40.1432 130.205 40.4506C129.925 40.7581 129.558 40.9118 129.104 40.9118C128.651 40.9118 128.284 40.7691 128.003 40.4836C127.723 40.1761 127.582 39.7918 127.582 39.3306V25.2318C127.582 24.7926 127.723 24.4192 128.003 24.1118C128.306 23.8043 128.673 23.6506 129.104 23.6506C129.558 23.6506 129.925 23.8043 130.205 24.1118C130.508 24.4192 130.659 24.7926 130.659 25.2318V26.3847C131.22 25.5283 131.965 24.8145 132.893 24.2435C133.843 23.6506 134.869 23.3541 135.97 23.3541C138.647 23.3541 140.385 24.562 141.184 26.9777C141.659 26.0553 142.447 25.2208 143.548 24.4741C144.649 23.7275 145.814 23.3541 147.045 23.3541Z" fill="#002F8C"/>
<path d="M174.311 23.42C174.765 23.42 175.132 23.5737 175.412 23.8812C175.715 24.1667 175.866 24.551 175.866 25.0341V39.3306C175.866 39.7698 175.715 40.1432 175.412 40.4506C175.132 40.7581 174.765 40.9118 174.311 40.9118C173.858 40.9118 173.491 40.7691 173.21 40.4836C172.93 40.1761 172.789 39.7918 172.789 39.3306V38.4741C172.228 39.2428 171.461 39.9016 170.49 40.4506C169.518 40.9777 168.471 41.2412 167.349 41.2412C165.881 41.2412 164.542 40.8569 163.333 40.0883C162.146 39.3196 161.207 38.2545 160.516 36.893C159.846 35.5094 159.512 33.9612 159.512 32.2483C159.512 30.5353 159.846 28.9981 160.516 27.6365C161.207 26.253 162.146 25.1769 163.333 24.4083C164.521 23.6396 165.827 23.2553 167.252 23.2553C168.396 23.2553 169.454 23.4969 170.425 23.98C171.418 24.4632 172.206 25.0781 172.789 25.8247V25.0341C172.789 24.573 172.93 24.1886 173.21 23.8812C173.491 23.5737 173.858 23.42 174.311 23.42ZM167.705 38.3424C168.72 38.3424 169.616 38.0789 170.393 37.5518C171.192 37.0247 171.807 36.3 172.239 35.3777C172.692 34.4553 172.919 33.4122 172.919 32.2483C172.919 31.1063 172.692 30.0741 172.239 29.1518C171.807 28.2294 171.192 27.5047 170.393 26.9777C169.616 26.4286 168.72 26.1541 167.705 26.1541C166.69 26.1541 165.784 26.4177 164.985 26.9447C164.207 27.4718 163.592 28.1965 163.139 29.1188C162.707 30.0412 162.491 31.0843 162.491 32.2483C162.491 33.4122 162.707 34.4553 163.139 35.3777C163.592 36.3 164.207 37.0247 164.985 37.5518C165.784 38.0789 166.69 38.3424 167.705 38.3424Z" fill="#002F8C"/>
<path d="M192.195 23.3541C193.664 23.3541 194.991 23.7384 196.179 24.5071C197.366 25.2537 198.294 26.3079 198.964 27.6694C199.655 29.031 200 30.5683 200 32.2812C200 33.9941 199.655 35.5314 198.964 36.893C198.294 38.2326 197.366 39.2867 196.179 40.0553C194.991 40.824 193.685 41.2083 192.26 41.2083C191.138 41.2083 190.091 40.9557 189.119 40.4506C188.148 39.9455 187.36 39.3306 186.755 38.6059V45.9189C186.755 46.3581 186.604 46.7314 186.302 47.0389C186.021 47.3463 185.654 47.5 185.201 47.5C184.769 47.5 184.402 47.3463 184.1 47.0389C183.819 46.7534 183.679 46.38 183.679 45.9189V25.1988C183.679 24.7377 183.819 24.3534 184.1 24.0459C184.38 23.7384 184.747 23.5847 185.201 23.5847C185.654 23.5847 186.021 23.7384 186.302 24.0459C186.604 24.3534 186.755 24.7377 186.755 25.1988V26.1541C187.273 25.3855 188.029 24.7267 189.022 24.1777C190.015 23.6286 191.073 23.3541 192.195 23.3541ZM191.839 38.3094C192.832 38.3094 193.728 38.0459 194.527 37.5189C195.326 36.9918 195.941 36.2781 196.373 35.3777C196.826 34.4553 197.053 33.4232 197.053 32.2812C197.053 31.1392 196.826 30.1181 196.373 29.2177C195.941 28.2953 195.326 27.5706 194.527 27.0435C193.728 26.5165 192.832 26.253 191.839 26.253C190.825 26.253 189.918 26.5165 189.119 27.0435C188.32 27.5486 187.694 28.2624 187.241 29.1847C186.809 30.1071 186.593 31.1392 186.593 32.2812C186.593 33.4232 186.809 34.4553 187.241 35.3777C187.694 36.3 188.32 37.0247 189.119 37.5518C189.918 38.0569 190.825 38.3094 191.839 38.3094Z" fill="#002F8C"/>
<defs>
<linearGradient id="paint0_linear" x1="28" y1="0" x2="28" y2="64.0001" gradientUnits="userSpaceOnUse">
<stop stop-color="#0C8EED"/>
<stop offset="1" stop-color="#90E0F1"/>
</linearGradient>
</defs>
</svg>
