<svg width="100" height="32" viewBox="0 0 100 32" fill="none" xmlns="http://www.w3.org/2000/svg">
<rect width="100" height="32.0005" fill="black" fill-opacity="0"/>
<rect width="100" height="32.0005" fill="black" fill-opacity="0"/>
<rect width="27.9999" height="32.0005" fill="black" fill-opacity="0"/>
<mask id="mask0" mask-type="alpha" maskUnits="userSpaceOnUse" x="0" y="0" width="28" height="33">
<rect width="27.9999" height="32.0005" fill="black" fill-opacity="0"/>
<path d="M9.54586 27.5453L14.0004 31.9996L18.4549 27.5453L22.9095 31.9996H5.09131L9.54586 27.5453Z" fill="white"/>
<path fill-rule="evenodd" clip-rule="evenodd" d="M8.27196 26.2734L6.99999 25L0 32L2.54492 32.0005L8.27196 26.2734ZM25.4541 32.0005L27.9999 32L21 25L19.7265 26.2734L25.4541 32.0005Z" fill="white"/>
<path d="M14.0031 0C7.47505 0 1.87458 5.63529 2.69064 12.5373C3.24977 17.2663 6 21 10.5524 25.8438C10.8684 26.18 14.0031 29.5357 14.0031 29.5357V24.6131L12.8528 23.3824C9.40213 19.6905 8.78415 18.8298 7.83681 17.2663C7.00334 15.8902 6.30366 14.054 6.12436 12.5373C5.59769 8.08338 9.28843 3.65351 14.0031 3.65351V0Z" fill="white"/>
<path d="M13.9998 0C20.5279 0 26.1284 5.63529 25.3123 12.5373C24.7532 17.2663 22.0029 21 17.4505 25.8438C17.1345 26.18 13.9998 29.5357 13.9998 29.5357V24.6131L15.1501 23.3824C18.6008 19.6905 19.2188 18.8298 20.1661 17.2663C20.9996 15.8902 21.6993 14.054 21.8786 12.5373C22.4053 8.08338 18.7145 3.65351 13.9998 3.65351V0Z" fill="white"/>
<rect width="7.3823" height="10.1111" fill="black" fill-opacity="0" transform="translate(8.94235 15.9872) rotate(-90)"/>
<path fill-rule="evenodd" clip-rule="evenodd" d="M11.8223 15.7779C11.6528 15.5295 11.6788 15.159 11.8804 14.9502C12.398 14.414 13.173 14.1074 13.9997 14.1074C14.8265 14.1074 15.6014 14.414 16.119 14.9502C16.3206 15.159 16.3466 15.5295 16.1771 15.7779C16.0076 16.0262 15.7067 16.0582 15.5051 15.8494C15.1962 15.5294 14.6552 15.2823 13.9997 15.2823C13.3443 15.2823 12.8032 15.5294 12.4943 15.8494C12.2927 16.0582 11.9919 16.0262 11.8223 15.7779Z" fill="white"/>
<path fill-rule="evenodd" clip-rule="evenodd" d="M10.3779 13.5422C10.2144 13.2878 10.2493 12.9184 10.4558 12.717C11.3835 11.8121 12.6554 11.2977 13.9974 11.2977C15.3309 11.2977 16.6135 11.8254 17.5368 12.7148C17.7443 12.9146 17.7809 13.2838 17.6187 13.5394C17.4564 13.795 17.1567 13.8402 16.9492 13.6403C16.2095 12.9278 15.1391 12.4726 13.9974 12.4726C12.8434 12.4726 11.7871 12.9171 11.0479 13.6381C10.8414 13.8395 10.5414 13.7966 10.3779 13.5422Z" fill="white"/>
<path fill-rule="evenodd" clip-rule="evenodd" d="M9.03121 11.3549C8.87812 11.0909 8.92779 10.724 9.14214 10.5355C10.4353 9.39787 12.1461 8.60493 13.9979 8.60493C15.8401 8.60493 17.5638 9.41049 18.8521 10.5341C19.0671 10.7216 19.1179 11.0882 18.9657 11.353C18.8135 11.6178 18.5159 11.6804 18.3009 11.4929C17.1542 10.4929 15.62 9.77985 13.9979 9.77985C12.3641 9.77985 10.8442 10.4819 9.69651 11.4916C9.48216 11.6801 9.18429 11.619 9.03121 11.3549Z" fill="white"/>
</mask>
<g mask="url(#mask0)">
<path d="M0 0H28V32H0V0Z" fill="white"/>
</g>
<path d="M35.1898 13.3571V18.2653C35.1898 18.8143 35.4327 19.0888 35.9184 19.0888C35.994 19.0888 36.0965 19.0724 36.2261 19.0394C36.3556 18.9955 36.4581 18.9735 36.5337 18.9735C36.674 18.9735 36.7928 19.0339 36.8899 19.1547C36.9871 19.2755 37.0357 19.4292 37.0357 19.6159C37.0357 19.8465 36.9061 20.0441 36.6471 20.2088C36.388 20.3735 36.0965 20.4559 35.7727 20.4559C35.4165 20.4559 35.0872 20.4175 34.785 20.3406C34.4935 20.2637 34.2291 20.0716 33.9916 19.7641C33.7649 19.4457 33.6515 18.968 33.6515 18.3312V13.3571H32.7124C32.5073 13.3571 32.3346 13.2912 32.1943 13.1594C32.0647 13.0167 32 12.841 32 12.6324C32 12.4237 32.0647 12.2535 32.1943 12.1218C32.3346 11.99 32.5073 11.9241 32.7124 11.9241H33.6515V10.5406C33.6515 10.321 33.7217 10.1343 33.862 9.98059C34.0132 9.82686 34.2021 9.75 34.4288 9.75C34.6447 9.75 34.8228 9.82686 34.9631 9.98059C35.1142 10.1343 35.1898 10.321 35.1898 10.5406V11.9241H36.5337C36.7388 11.9241 36.9061 11.9955 37.0357 12.1382C37.176 12.27 37.2462 12.4402 37.2462 12.6488C37.2462 12.8575 37.176 13.0276 37.0357 13.1594C36.9061 13.2912 36.7388 13.3571 36.5337 13.3571H35.1898Z" fill="white"/>
<path d="M47.5423 11.71C47.769 11.71 47.9525 11.7869 48.0928 11.9406C48.244 12.0833 48.3195 12.2755 48.3195 12.5171V19.6653C48.3195 19.8849 48.244 20.0716 48.0928 20.2253C47.9525 20.379 47.769 20.4559 47.5423 20.4559C47.3156 20.4559 47.1321 20.3845 46.9918 20.2418C46.8515 20.088 46.7813 19.8959 46.7813 19.6653V19.2371C46.5006 19.6214 46.1174 19.9508 45.6317 20.2253C45.1459 20.4888 44.6224 20.6206 44.0611 20.6206C43.327 20.6206 42.6578 20.4284 42.0533 20.0441C41.4596 19.6598 40.99 19.1273 40.6446 18.4465C40.3099 17.7547 40.1426 16.9806 40.1426 16.1241C40.1426 15.2677 40.3099 14.499 40.6446 13.8182C40.99 13.1265 41.4596 12.5884 42.0533 12.2041C42.647 11.8198 43.3 11.6276 44.0125 11.6276C44.5846 11.6276 45.1135 11.7484 45.5993 11.99C46.0958 12.2316 46.4898 12.539 46.7813 12.9124V12.5171C46.7813 12.2865 46.8515 12.0943 46.9918 11.9406C47.1321 11.7869 47.3156 11.71 47.5423 11.71ZM44.2392 19.1712C44.7465 19.1712 45.1945 19.0394 45.5831 18.7759C45.9825 18.5124 46.2901 18.15 46.506 17.6888C46.7327 17.2277 46.8461 16.7061 46.8461 16.1241C46.8461 15.5531 46.7327 15.0371 46.506 14.5759C46.2901 14.1147 45.9825 13.7524 45.5831 13.4888C45.1945 13.2143 44.7465 13.0771 44.2392 13.0771C43.7318 13.0771 43.2784 13.2088 42.879 13.4724C42.4904 13.7359 42.1828 14.0982 41.9561 14.5594C41.7402 15.0206 41.6323 15.5422 41.6323 16.1241C41.6323 16.7061 41.7402 17.2277 41.9561 17.6888C42.1828 18.15 42.4904 18.5124 42.879 18.7759C43.2784 19.0394 43.7318 19.1712 44.2392 19.1712Z" fill="white"/>
<path d="M56.4844 11.6771C57.2185 11.6771 57.8823 11.8692 58.476 12.2535C59.0698 12.6269 59.5339 13.1539 59.8686 13.8347C60.214 14.5155 60.3867 15.2841 60.3867 16.1406C60.3867 16.9971 60.214 17.7657 59.8686 18.4465C59.5339 19.1163 59.0698 19.6433 58.476 20.0277C57.8823 20.412 57.2293 20.6041 56.5168 20.6041C55.9555 20.6041 55.432 20.4779 54.9462 20.2253C54.4605 19.9728 54.0664 19.6653 53.7642 19.3029V22.9594C53.7642 23.179 53.6886 23.3657 53.5375 23.5194C53.3972 23.6731 53.2137 23.75 52.987 23.75C52.7711 23.75 52.5876 23.6731 52.4365 23.5194C52.2961 23.3767 52.226 23.19 52.226 22.9594V12.5994C52.226 12.3688 52.2961 12.1767 52.4365 12.0229C52.5768 11.8692 52.7603 11.7924 52.987 11.7924C53.2137 11.7924 53.3972 11.8692 53.5375 12.0229C53.6886 12.1767 53.7642 12.3688 53.7642 12.5994V13.0771C54.0233 12.6927 54.4011 12.3633 54.8976 12.0888C55.3942 11.8143 55.9231 11.6771 56.4844 11.6771ZM56.3063 19.1547C56.8029 19.1547 57.2509 19.0229 57.6503 18.7594C58.0497 18.4959 58.3573 18.139 58.5732 17.6888C58.7999 17.2277 58.9132 16.7116 58.9132 16.1406C58.9132 15.5696 58.7999 15.059 58.5732 14.6088C58.3573 14.1477 58.0497 13.7853 57.6503 13.5218C57.2509 13.2582 56.8029 13.1265 56.3063 13.1265C55.799 13.1265 55.3456 13.2582 54.9462 13.5218C54.5468 13.7743 54.2338 14.1312 54.0071 14.5924C53.7912 15.0535 53.6832 15.5696 53.6832 16.1406C53.6832 16.7116 53.7912 17.2277 54.0071 17.6888C54.2338 18.15 54.5468 18.5124 54.9462 18.7759C55.3456 19.0284 55.799 19.1547 56.3063 19.1547Z" fill="white"/>
<path d="M73.5225 11.6771C75.4116 11.6771 76.3561 12.8739 76.3561 15.2677V19.6653C76.3561 19.8959 76.2859 20.088 76.1456 20.2418C76.0053 20.3845 75.8218 20.4559 75.5951 20.4559C75.3684 20.4559 75.1795 20.379 75.0284 20.2253C74.888 20.0716 74.8179 19.8849 74.8179 19.6653V15.2841C74.8179 13.8457 74.2242 13.1265 73.0368 13.1265C72.6158 13.1265 72.2326 13.2253 71.8871 13.4229C71.5525 13.6096 71.288 13.8677 71.0937 14.1971C70.9102 14.5265 70.8185 14.8888 70.8185 15.2841V19.6653C70.8185 19.8849 70.7429 20.0716 70.5918 20.2253C70.4515 20.379 70.2679 20.4559 70.0413 20.4559C69.8146 20.4559 69.6311 20.3845 69.4907 20.2418C69.3504 20.088 69.2802 19.8959 69.2802 19.6653V15.2677C69.2802 14.6198 69.1453 14.1037 68.8754 13.7194C68.6056 13.3241 68.1576 13.1265 67.5315 13.1265C66.8946 13.1265 66.3657 13.3351 65.9447 13.7524C65.5345 14.1586 65.3294 14.6637 65.3294 15.2677V19.6653C65.3294 19.8849 65.2538 20.0716 65.1027 20.2253C64.9624 20.379 64.7789 20.4559 64.5522 20.4559C64.3255 20.4559 64.142 20.3845 64.0017 20.2418C63.8613 20.088 63.7912 19.8959 63.7912 19.6653V12.6159C63.7912 12.3963 63.8613 12.2096 64.0017 12.0559C64.1528 11.9022 64.3363 11.8253 64.5522 11.8253C64.7789 11.8253 64.9624 11.9022 65.1027 12.0559C65.2538 12.2096 65.3294 12.3963 65.3294 12.6159V13.1924C65.6101 12.7641 65.9825 12.4073 66.4467 12.1218C66.9216 11.8253 67.4344 11.6771 67.9849 11.6771C69.3234 11.6771 70.1924 12.281 70.5918 13.4888C70.8293 13.0276 71.2233 12.6104 71.7738 12.2371C72.3243 11.8637 72.9072 11.6771 73.5225 11.6771Z" fill="white"/>
<path d="M87.1556 11.71C87.3823 11.71 87.5658 11.7869 87.7062 11.9406C87.8573 12.0833 87.9328 12.2755 87.9328 12.5171V19.6653C87.9328 19.8849 87.8573 20.0716 87.7062 20.2253C87.5658 20.379 87.3823 20.4559 87.1556 20.4559C86.9289 20.4559 86.7454 20.3845 86.6051 20.2418C86.4648 20.088 86.3946 19.8959 86.3946 19.6653V19.2371C86.1139 19.6214 85.7307 19.9508 85.245 20.2253C84.7592 20.4888 84.2357 20.6206 83.6744 20.6206C82.9403 20.6206 82.2711 20.4284 81.6666 20.0441C81.0729 19.6598 80.6033 19.1273 80.2579 18.4465C79.9232 17.7547 79.7559 16.9806 79.7559 16.1241C79.7559 15.2677 79.9232 14.499 80.2579 13.8182C80.6033 13.1265 81.0729 12.5884 81.6666 12.2041C82.2603 11.8198 82.9133 11.6276 83.6258 11.6276C84.1979 11.6276 84.7268 11.7484 85.2126 11.99C85.7091 12.2316 86.1031 12.539 86.3946 12.9124V12.5171C86.3946 12.2865 86.4648 12.0943 86.6051 11.9406C86.7454 11.7869 86.9289 11.71 87.1556 11.71ZM83.8525 19.1712C84.3598 19.1712 84.8078 19.0394 85.1964 18.7759C85.5958 18.5124 85.9034 18.15 86.1193 17.6888C86.346 17.2277 86.4594 16.7061 86.4594 16.1241C86.4594 15.5531 86.346 15.0371 86.1193 14.5759C85.9034 14.1147 85.5958 13.7524 85.1964 13.4888C84.8078 13.2143 84.3598 13.0771 83.8525 13.0771C83.3451 13.0771 82.8918 13.2088 82.4923 13.4724C82.1037 13.7359 81.7961 14.0982 81.5694 14.5594C81.3535 15.0206 81.2456 15.5422 81.2456 16.1241C81.2456 16.7061 81.3535 17.2277 81.5694 17.6888C81.7961 18.15 82.1037 18.5124 82.4923 18.7759C82.8918 19.0394 83.3451 19.1712 83.8525 19.1712Z" fill="white"/>
<path d="M96.0977 11.6771C96.8318 11.6771 97.4957 11.8692 98.0894 12.2535C98.6831 12.6269 99.1472 13.1539 99.4819 13.8347C99.8273 14.5155 100 15.2841 100 16.1406C100 16.9971 99.8273 17.7657 99.4819 18.4465C99.1472 19.1163 98.6831 19.6433 98.0894 20.0277C97.4957 20.412 96.8426 20.6041 96.1301 20.6041C95.5688 20.6041 95.0453 20.4779 94.5595 20.2253C94.0738 19.9728 93.6798 19.6653 93.3775 19.3029V22.9594C93.3775 23.179 93.3019 23.3657 93.1508 23.5194C93.0105 23.6731 92.827 23.75 92.6003 23.75C92.3844 23.75 92.2009 23.6731 92.0498 23.5194C91.9094 23.3767 91.8393 23.19 91.8393 22.9594V12.5994C91.8393 12.3688 91.9094 12.1767 92.0498 12.0229C92.1901 11.8692 92.3736 11.7924 92.6003 11.7924C92.827 11.7924 93.0105 11.8692 93.1508 12.0229C93.3019 12.1767 93.3775 12.3688 93.3775 12.5994V13.0771C93.6366 12.6927 94.0144 12.3633 94.5109 12.0888C95.0075 11.8143 95.5364 11.6771 96.0977 11.6771ZM95.9196 19.1547C96.4162 19.1547 96.8642 19.0229 97.2636 18.7594C97.663 18.4959 97.9706 18.139 98.1865 17.6888C98.4132 17.2277 98.5265 16.7116 98.5265 16.1406C98.5265 15.5696 98.4132 15.059 98.1865 14.6088C97.9706 14.1477 97.663 13.7853 97.2636 13.5218C96.8642 13.2582 96.4162 13.1265 95.9196 13.1265C95.4123 13.1265 94.9589 13.2582 94.5595 13.5218C94.1601 13.7743 93.8471 14.1312 93.6204 14.5924C93.4045 15.0535 93.2965 15.5696 93.2965 16.1406C93.2965 16.7116 93.4045 17.2277 93.6204 17.6888C93.8471 18.15 94.1601 18.5124 94.5595 18.7759C94.9589 19.0284 95.4123 19.1547 95.9196 19.1547Z" fill="white"/>
</svg>
