<svg width="375" height="20" viewBox="0 0 375 20" fill="none" xmlns="http://www.w3.org/2000/svg">
<rect width="375" height="20" fill="black" fill-opacity="0"/>
<rect width="60.5" height="14" fill="black" fill-opacity="0" transform="translate(310 3.5)"/>
<path d="M315.168 14.5H316.223V6.04492H315.174L312.924 7.66211V8.77539L315.074 7.2168H315.168V14.5ZM321.59 14.6992C323.488 14.6992 324.578 13.0938 324.578 10.2871C324.578 7.48633 323.471 5.8457 321.59 5.8457C319.697 5.8457 318.59 7.48047 318.59 10.2695C318.59 13.082 319.686 14.6992 321.59 14.6992ZM321.59 13.7793C320.342 13.7793 319.65 12.5312 319.65 10.2695C319.65 8.03711 320.354 6.77148 321.59 6.77148C322.826 6.77148 323.518 8.02539 323.518 10.2695C323.518 12.5371 322.838 13.7793 321.59 13.7793ZM329.148 14.6992C331.047 14.6992 332.137 13.0938 332.137 10.2871C332.137 7.48633 331.029 5.8457 329.148 5.8457C327.256 5.8457 326.148 7.48047 326.148 10.2695C326.148 13.082 327.244 14.6992 329.148 14.6992ZM329.148 13.7793C327.9 13.7793 327.209 12.5312 327.209 10.2695C327.209 8.03711 327.912 6.77148 329.148 6.77148C330.385 6.77148 331.076 8.02539 331.076 10.2695C331.076 12.5371 330.396 13.7793 329.148 13.7793ZM335.137 9.87109C336.279 9.87109 336.971 9.12695 336.971 7.87891C336.971 6.64844 336.273 5.89258 335.137 5.89258C334 5.89258 333.297 6.64844 333.297 7.87891C333.297 9.12109 333.988 9.87109 335.137 9.87109ZM335.137 9.10352C334.545 9.10352 334.205 8.6582 334.205 7.88477C334.205 7.11719 334.545 6.66602 335.137 6.66602C335.723 6.66602 336.062 7.11719 336.062 7.88477C336.062 8.65234 335.729 9.10352 335.137 9.10352ZM335.518 14.5L341.359 6.04492H340.404L334.562 14.5H335.518ZM340.791 14.582C341.934 14.582 342.625 13.8379 342.625 12.5898C342.625 11.3594 341.928 10.6035 340.791 10.6035C339.654 10.6035 338.951 11.3594 338.951 12.5898C338.951 13.832 339.648 14.582 340.791 14.582ZM340.791 13.8145C340.199 13.8145 339.865 13.3691 339.865 12.5957C339.865 11.8281 340.199 11.377 340.791 11.377C341.383 11.377 341.717 11.8281 341.717 12.5957C341.717 13.3633 341.383 13.8145 340.791 13.8145Z" fill="#030303"/>
<rect width="24.5" height="10.5" fill="black" fill-opacity="0" transform="translate(346 5)"/>
<path opacity="0.4" d="M346.5 7.5C346.5 6.39543 347.395 5.5 348.5 5.5H365.5C366.605 5.5 367.5 6.39543 367.5 7.5V13C367.5 14.1046 366.605 15 365.5 15H364.469H348.5C347.395 15 346.5 14.1046 346.5 13V7.5Z" stroke="black"/>
<path opacity="0.4" fill-rule="evenodd" clip-rule="evenodd" d="M369 12.374C369.863 12.152 370.5 11.3689 370.5 10.437C370.5 9.50507 369.863 8.72202 369 8.5V12.374Z" fill="black"/>
<path fill-rule="evenodd" clip-rule="evenodd" d="M348 8C348 7.44772 348.448 7 349 7H365C365.552 7 366 7.44772 366 8V12.5C366 13.0523 365.552 13.5 365 13.5H349C348.448 13.5 348 13.0523 348 12.5V8Z" fill="black"/>
<path d="M168.174 13.7051C170.324 13.7051 171.602 12.0234 171.602 9.17578C171.602 6.38086 170.242 4.83398 168.221 4.83398C166.381 4.83398 165.08 6.07031 165.08 7.80469C165.08 9.42773 166.252 10.6113 167.863 10.6113C168.854 10.6113 169.656 10.1543 170.055 9.35156H170.154C170.137 11.3086 169.428 12.4395 168.191 12.4395C167.465 12.4395 166.885 12.0469 166.703 11.4141H165.197C165.443 12.7969 166.627 13.7051 168.174 13.7051ZM168.227 9.41602C167.242 9.41602 166.562 8.73633 166.562 7.75781C166.562 6.81445 167.277 6.09375 168.232 6.09375C169.188 6.09375 169.902 6.82617 169.902 7.78711C169.902 8.73047 169.205 9.41602 168.227 9.41602ZM174.256 12.334C174.812 12.334 175.193 11.9355 175.193 11.4082C175.193 10.875 174.812 10.4824 174.256 10.4824C173.705 10.4824 173.318 10.875 173.318 11.4082C173.318 11.9355 173.705 12.334 174.256 12.334ZM174.256 8.05664C174.812 8.05664 175.193 7.66406 175.193 7.13672C175.193 6.60352 174.812 6.21094 174.256 6.21094C173.705 6.21094 173.318 6.60352 173.318 7.13672C173.318 7.66406 173.705 8.05664 174.256 8.05664ZM181.035 13.5H182.482V11.8887H183.625V10.6113H182.482V5.04492H180.35C179.201 6.79102 178 8.71875 176.904 10.6289V11.8887H181.035V13.5ZM178.305 10.5645C179.131 9.14062 180.109 7.58789 180.977 6.27539H181.059V10.6465H178.305V10.5645ZM187.088 13.5H188.6V5.04492H187.094L184.885 6.5918V8.04492L186.988 6.56836H187.088V13.5ZM199.814 13.5H201.438L198.432 5.04492H196.732L193.732 13.5H195.262L195.988 11.3379H199.1L199.814 13.5ZM197.5 6.65625H197.6L198.748 10.1426H196.34L197.5 6.65625ZM211.621 13.5V5.04492H209.852L207.309 11.2441H207.203L204.66 5.04492H202.891V13.5H204.297V7.55273H204.379L206.717 13.207H207.795L210.133 7.55273H210.215V13.5H211.621Z" fill="#030303"/>
<path fill-rule="evenodd" clip-rule="evenodd" d="M74.9876 5.5C77.5506 5.5 79.863 6.53944 81.5 8.20688L80.4119 9.26404C79.0539 7.86553 77.126 6.99223 74.9876 6.99223C72.8629 6.99223 70.9461 7.85432 69.5896 9.23709L68.5 8.18164C70.1356 6.52896 72.4375 5.5 74.9876 5.5ZM79.3235 10.3214C78.2448 9.19175 76.7014 8.48446 74.9876 8.48446C73.2883 8.48446 71.7566 9.17976 70.6793 10.2927L71.7693 11.3486C72.5672 10.5054 73.7136 9.97668 74.9876 9.97668C76.2769 9.97668 77.4356 10.5182 78.2346 11.3793L79.3235 10.3214ZM77.1444 12.4385C76.6264 11.8454 75.8524 11.4689 74.9876 11.4689C74.139 11.4689 73.3779 11.8314 72.8602 12.4053L75.0225 14.5L77.1444 12.4385Z" fill="#030303"/>
<path d="M30.4824 13.6992C32.2812 13.6992 33.6172 12.6973 33.8984 11.1445H32.8262C32.5566 12.123 31.6602 12.7266 30.4824 12.7266C28.8535 12.7266 27.834 11.3965 27.834 9.27539C27.834 7.1543 28.8535 5.81836 30.4766 5.81836C31.6426 5.81836 32.5449 6.50391 32.8262 7.59375H33.8984C33.6465 5.96484 32.2578 4.8457 30.4766 4.8457C28.1797 4.8457 26.75 6.54492 26.75 9.27539C26.75 12 28.1855 13.6992 30.4824 13.6992ZM37.4844 12.7266C36.752 12.7266 36.207 12.3516 36.207 11.707C36.207 11.0742 36.6289 10.7402 37.5898 10.6758L39.2891 10.5645V11.1445C39.2891 12.0469 38.5215 12.7266 37.4844 12.7266ZM37.2969 13.6113C38.1406 13.6113 38.832 13.2422 39.2422 12.5684H39.3359V13.5H40.2969V9.17578C40.2969 7.86328 39.4355 7.07227 37.8945 7.07227C36.5469 7.07227 35.5508 7.74023 35.416 8.75391H36.4355C36.5762 8.25586 37.1035 7.96875 37.8594 7.96875C38.8027 7.96875 39.2891 8.39648 39.2891 9.17578V9.75L37.4668 9.86133C35.9961 9.94922 35.1641 10.5996 35.1641 11.7305C35.1641 12.8848 36.0723 13.6113 37.2969 13.6113ZM42.1602 13.5H43.168V9.58594C43.168 8.69531 43.8652 8.05078 44.8262 8.05078C45.0254 8.05078 45.3887 8.08594 45.4707 8.10938V7.10156C45.3418 7.08398 45.1309 7.07227 44.9668 7.07227C44.1289 7.07227 43.4023 7.50586 43.2148 8.12109H43.1211V7.18359H42.1602V13.5ZM46.8477 13.5H47.8555V9.58594C47.8555 8.69531 48.5527 8.05078 49.5137 8.05078C49.7129 8.05078 50.0762 8.08594 50.1582 8.10938V7.10156C50.0293 7.08398 49.8184 7.07227 49.6543 7.07227C48.8164 7.07227 48.0898 7.50586 47.9023 8.12109H47.8086V7.18359H46.8477V13.5ZM51.4414 13.5H52.4492V7.18359H51.4414V13.5ZM51.9453 5.96484C52.332 5.96484 52.6484 5.64844 52.6484 5.26172C52.6484 4.875 52.332 4.55859 51.9453 4.55859C51.5586 4.55859 51.2422 4.875 51.2422 5.26172C51.2422 5.64844 51.5586 5.96484 51.9453 5.96484ZM56.8906 7.96289C57.8926 7.96289 58.5605 8.70117 58.584 9.82031H55.1035C55.1797 8.70117 55.8828 7.96289 56.8906 7.96289ZM58.5547 11.8652C58.291 12.4219 57.7402 12.7207 56.9258 12.7207C55.8535 12.7207 55.1562 11.9297 55.1035 10.6816V10.6348H59.6445V10.248C59.6445 8.28516 58.6074 7.07227 56.9023 7.07227C55.168 7.07227 54.0547 8.36133 54.0547 10.3477C54.0547 12.3457 55.1504 13.6113 56.9023 13.6113C58.2852 13.6113 59.2695 12.9434 59.5625 11.8652H58.5547ZM61.2266 13.5H62.2344V9.58594C62.2344 8.69531 62.9316 8.05078 63.8926 8.05078C64.0918 8.05078 64.4551 8.08594 64.5371 8.10938V7.10156C64.4082 7.08398 64.1973 7.07227 64.0332 7.07227C63.1953 7.07227 62.4688 7.50586 62.2812 8.12109H62.1875V7.18359H61.2266V13.5Z" fill="black"/>
<path fill-rule="evenodd" clip-rule="evenodd" d="M19.5 5C19.2239 5 19 5.22386 19 5.5V14C19 14.2761 19.2239 14.5 19.5 14.5H21C21.2761 14.5 21.5 14.2761 21.5 14V5.5C21.5 5.22386 21.2761 5 21 5H19.5ZM15.5 7.5C15.2239 7.5 15 7.72386 15 8V14C15 14.2761 15.2239 14.5 15.5 14.5H17C17.2761 14.5 17.5 14.2761 17.5 14V8C17.5 7.72386 17.2761 7.5 17 7.5H15.5ZM11 10C11 9.72386 11.2239 9.5 11.5 9.5H13C13.2761 9.5 13.5 9.72386 13.5 10V14C13.5 14.2761 13.2761 14.5 13 14.5H11.5C11.2239 14.5 11 14.2761 11 14V10ZM7.5 11.5C7.22386 11.5 7 11.7239 7 12V14C7 14.2761 7.22386 14.5 7.5 14.5H9C9.27614 14.5 9.5 14.2761 9.5 14V12C9.5 11.7239 9.27614 11.5 9 11.5H7.5Z" fill="black"/>
</svg>
