<svg width="375" height="20" viewBox="0 0 375 20" fill="none" xmlns="http://www.w3.org/2000/svg">
<rect width="375" height="20" fill="black" fill-opacity="0"/>
<rect width="60.5" height="14" fill="black" fill-opacity="0" transform="translate(310 3.5)"/>
<path d="M315.812 14.5H316.867V6.04492H315.818L313.568 7.66211V8.77539L315.719 7.2168H315.812V14.5ZM322.234 14.6992C324.133 14.6992 325.223 13.0938 325.223 10.2871C325.223 7.48633 324.115 5.8457 322.234 5.8457C320.342 5.8457 319.234 7.48047 319.234 10.2695C319.234 13.082 320.33 14.6992 322.234 14.6992ZM322.234 13.7793C320.986 13.7793 320.295 12.5312 320.295 10.2695C320.295 8.03711 320.998 6.77148 322.234 6.77148C323.471 6.77148 324.162 8.02539 324.162 10.2695C324.162 12.5371 323.482 13.7793 322.234 13.7793ZM329.793 14.6992C331.691 14.6992 332.781 13.0938 332.781 10.2871C332.781 7.48633 331.674 5.8457 329.793 5.8457C327.9 5.8457 326.793 7.48047 326.793 10.2695C326.793 13.082 327.889 14.6992 329.793 14.6992ZM329.793 13.7793C328.545 13.7793 327.854 12.5312 327.854 10.2695C327.854 8.03711 328.557 6.77148 329.793 6.77148C331.029 6.77148 331.721 8.02539 331.721 10.2695C331.721 12.5371 331.041 13.7793 329.793 13.7793ZM337.639 7.93164C337.639 6.73633 336.895 5.89844 335.84 5.89844C334.785 5.89844 334.035 6.74219 334.035 7.93164C334.035 9.12695 334.785 9.9707 335.84 9.9707C336.895 9.9707 337.639 9.12695 337.639 7.93164ZM335.84 9.2207C335.318 9.2207 334.973 8.71094 334.973 7.93164C334.973 7.15234 335.312 6.64844 335.84 6.64844C336.367 6.64844 336.701 7.14062 336.701 7.93164C336.701 8.70508 336.355 9.2207 335.84 9.2207ZM335.746 14.5L338.646 10.5332L341.928 6.04492H340.861L337.896 10.0938L334.668 14.5H335.746ZM342.531 12.6074C342.531 11.4121 341.787 10.5742 340.732 10.5742C339.678 10.5742 338.928 11.418 338.928 12.6074C338.928 13.8027 339.678 14.6465 340.732 14.6465C341.787 14.6465 342.531 13.8027 342.531 12.6074ZM340.732 13.8965C340.211 13.8965 339.865 13.3867 339.865 12.6074C339.865 11.8281 340.205 11.3242 340.732 11.3242C341.26 11.3242 341.594 11.8164 341.594 12.6074C341.594 13.3809 341.248 13.8965 340.732 13.8965Z" fill="white"/>
<rect width="24.5" height="10.5" fill="black" fill-opacity="0" transform="translate(346 5)"/>
<path opacity="0.4" d="M346.5 7.5C346.5 6.39543 347.395 5.5 348.5 5.5H365.5C366.605 5.5 367.5 6.39543 367.5 7.5V13C367.5 14.1046 366.605 15 365.5 15H364.469H348.5C347.395 15 346.5 14.1046 346.5 13V7.5Z" stroke="white"/>
<path opacity="0.4" fill-rule="evenodd" clip-rule="evenodd" d="M369 12.374C369.863 12.152 370.5 11.3689 370.5 10.437C370.5 9.50513 369.863 8.72205 369 8.5V12.374Z" fill="white"/>
<path fill-rule="evenodd" clip-rule="evenodd" d="M348 8C348 7.44772 348.448 7 349 7H365C365.552 7 366 7.44772 366 8V12.5C366 13.0523 365.552 13.5 365 13.5H349C348.448 13.5 348 13.0523 348 12.5V8Z" fill="white"/>
<path d="M168.174 13.7051C170.324 13.7051 171.602 12.0234 171.602 9.17578C171.602 8.10352 171.396 7.20117 171.004 6.50391C170.436 5.41992 169.457 4.83398 168.221 4.83398C166.381 4.83398 165.08 6.07031 165.08 7.80469C165.08 9.43359 166.252 10.6172 167.863 10.6172C168.854 10.6172 169.656 10.1543 170.055 9.35156H170.072C170.072 9.35156 170.096 9.35156 170.102 9.35156C170.113 9.35156 170.154 9.35156 170.154 9.35156C170.154 11.2852 169.422 12.4395 168.186 12.4395C167.459 12.4395 166.896 12.041 166.703 11.4023H165.197C165.449 12.791 166.627 13.7051 168.174 13.7051ZM168.227 9.41602C167.254 9.41602 166.562 8.72461 166.562 7.75781C166.562 6.81445 167.289 6.09375 168.232 6.09375C169.176 6.09375 169.902 6.82617 169.902 7.78125C169.902 8.72461 169.193 9.41602 168.227 9.41602ZM174.256 12.6035C174.812 12.6035 175.193 12.2051 175.193 11.6777C175.193 11.1445 174.812 10.752 174.256 10.752C173.705 10.752 173.318 11.1445 173.318 11.6777C173.318 12.2051 173.705 12.6035 174.256 12.6035ZM174.256 8.20898C174.812 8.20898 175.193 7.81641 175.193 7.28906C175.193 6.75586 174.812 6.36328 174.256 6.36328C173.705 6.36328 173.318 6.75586 173.318 7.28906C173.318 7.81641 173.705 8.20898 174.256 8.20898ZM181.035 13.5H182.482V11.9238H183.625V10.6465H182.482V5.04492H180.35C178.855 7.29492 177.666 9.17578 176.904 10.5762V11.9238H181.035V13.5ZM178.305 10.5938C179.289 8.85938 180.168 7.4707 180.977 6.27539H181.059V10.6816H178.305V10.5938ZM187.088 13.5H188.6V5.04492H187.094L184.885 6.5918V8.04492L186.988 6.56836H187.088V13.5ZM199.814 13.5H201.438L198.432 5.04492H196.732L193.732 13.5H195.262L195.988 11.3379H199.1L199.814 13.5ZM197.5 6.65625H197.6L198.748 10.1426H196.34L197.5 6.65625ZM211.621 13.5V5.04492H209.852L207.309 11.2031H207.203L204.66 5.04492H202.891V13.5H204.297V7.55273H204.379L206.717 13.1719H207.795L210.133 7.55273H210.215V13.5H211.621Z" fill="white"/>
<path fill-rule="evenodd" clip-rule="evenodd" d="M74.9876 5.5C77.5506 5.5 79.863 6.53943 81.5 8.20691L80.4119 9.26404C79.0539 7.86554 77.126 6.99225 74.9876 6.99225C72.8629 6.99225 70.9461 7.85431 69.5896 9.23712L68.5 8.18164C70.1356 6.52893 72.4375 5.5 74.9876 5.5ZM79.3235 10.3214C78.2448 9.19171 76.7014 8.48444 74.9876 8.48444C73.2883 8.48444 71.7566 9.17975 70.6793 10.2927L71.7693 11.3486C72.5672 10.5054 73.7136 9.97668 74.9876 9.97668C76.2769 9.97668 77.4356 10.5182 78.2346 11.3793L79.3235 10.3214ZM77.1444 12.4385C76.6264 11.8455 75.8524 11.4689 74.9876 11.4689C74.139 11.4689 73.3779 11.8315 72.8602 12.4053L75.0225 14.5L77.1444 12.4385Z" fill="white"/>
<path d="M30.4824 13.6992C32.2812 13.6992 33.6172 12.6973 33.8984 11.1445H32.8262C32.5566 12.123 31.6602 12.7266 30.4824 12.7266C28.8535 12.7266 27.834 11.3965 27.834 9.27539C27.834 7.1543 28.8535 5.81836 30.4766 5.81836C31.6426 5.81836 32.5449 6.50391 32.8262 7.59375H33.8984C33.6465 5.96484 32.2578 4.8457 30.4766 4.8457C28.1797 4.8457 26.75 6.54492 26.75 9.27539C26.75 12 28.1855 13.6992 30.4824 13.6992ZM37.4844 12.7266C36.752 12.7266 36.207 12.3516 36.207 11.707C36.207 11.0742 36.6289 10.7402 37.5898 10.6758L39.2891 10.5645V11.1445C39.2891 12.0469 38.5215 12.7266 37.4844 12.7266ZM37.2969 13.6113C38.1406 13.6113 38.832 13.2422 39.2422 12.5684H39.3359V13.5H40.2969V9.17578C40.2969 7.86328 39.4355 7.07227 37.8945 7.07227C36.5469 7.07227 35.5508 7.74023 35.416 8.75391H36.4355C36.5762 8.25586 37.1035 7.96875 37.8594 7.96875C38.8027 7.96875 39.2891 8.39648 39.2891 9.17578V9.75L37.4668 9.86133C35.9961 9.94922 35.1641 10.5996 35.1641 11.7305C35.1641 12.8848 36.0723 13.6113 37.2969 13.6113ZM42.1602 13.5H43.168V9.58594C43.168 8.69531 43.8652 8.05078 44.8262 8.05078C45.0254 8.05078 45.3887 8.08594 45.4707 8.10938V7.10156C45.3418 7.08398 45.1309 7.07227 44.9668 7.07227C44.1289 7.07227 43.4023 7.50586 43.2148 8.12109H43.1211V7.18359H42.1602V13.5ZM46.8477 13.5H47.8555V9.58594C47.8555 8.69531 48.5527 8.05078 49.5137 8.05078C49.7129 8.05078 50.0762 8.08594 50.1582 8.10938V7.10156C50.0293 7.08398 49.8184 7.07227 49.6543 7.07227C48.8164 7.07227 48.0898 7.50586 47.9023 8.12109H47.8086V7.18359H46.8477V13.5ZM51.4414 13.5H52.4492V7.18359H51.4414V13.5ZM51.9453 5.90039C52.332 5.90039 52.6484 5.58398 52.6484 5.19727C52.6484 4.81055 52.332 4.49414 51.9453 4.49414C51.5586 4.49414 51.2422 4.81055 51.2422 5.19727C51.2422 5.58398 51.5586 5.90039 51.9453 5.90039ZM56.8906 7.96289C57.8926 7.96289 58.5605 8.70117 58.584 9.82031H55.1035C55.1797 8.70117 55.8828 7.96289 56.8906 7.96289ZM58.5547 11.8652C58.291 12.4219 57.7402 12.7207 56.9258 12.7207C55.8535 12.7207 55.1562 11.9297 55.1035 10.6816V10.6348H59.6445V10.248C59.6445 8.28516 58.6074 7.07227 56.9023 7.07227C55.168 7.07227 54.0547 8.36133 54.0547 10.3477C54.0547 12.3457 55.1504 13.6113 56.9023 13.6113C58.2852 13.6113 59.2578 12.9492 59.5625 11.8652H58.5547ZM61.2266 13.5H62.2344V9.58594C62.2344 8.69531 62.9316 8.05078 63.8926 8.05078C64.0918 8.05078 64.4551 8.08594 64.5371 8.10938V7.10156C64.4082 7.08398 64.1973 7.07227 64.0332 7.07227C63.1953 7.07227 62.4688 7.50586 62.2812 8.12109H62.1875V7.18359H61.2266V13.5Z" fill="white"/>
<path fill-rule="evenodd" clip-rule="evenodd" d="M19.5 5C19.2239 5 19 5.22388 19 5.5V14C19 14.2761 19.2239 14.5 19.5 14.5H21C21.2761 14.5 21.5 14.2761 21.5 14V5.5C21.5 5.22388 21.2761 5 21 5H19.5ZM15.5 7.5C15.2239 7.5 15 7.72388 15 8V14C15 14.2761 15.2239 14.5 15.5 14.5H17C17.2761 14.5 17.5 14.2761 17.5 14V8C17.5 7.72388 17.2761 7.5 17 7.5H15.5ZM11 10C11 9.72388 11.2239 9.5 11.5 9.5H13C13.2761 9.5 13.5 9.72388 13.5 10V14C13.5 14.2761 13.2761 14.5 13 14.5H11.5C11.2239 14.5 11 14.2761 11 14V10ZM7.5 11.5C7.22386 11.5 7 11.7239 7 12V14C7 14.2761 7.22386 14.5 7.5 14.5H9C9.27614 14.5 9.5 14.2761 9.5 14V12C9.5 11.7239 9.27614 11.5 9 11.5H7.5Z" fill="white"/>
</svg>
