<svg width="14" height="14" viewBox="0 0 14 14" fill="none" xmlns="http://www.w3.org/2000/svg">
<path fill-rule="evenodd" clip-rule="evenodd" d="M9.59484 10.8043C8.59292 11.5552 7.34842 12 6 12C2.68628 12 0 9.31371 0 6C0 2.68629 2.68628 0 6 0C9.31372 0 12 2.68629 12 6C12 7.34846 11.5551 8.59302 10.8042 9.59494L13.7495 12.5402C14.0835 12.8742 14.0835 13.4156 13.7495 13.7496C13.4156 14.0835 12.8741 14.0835 12.5402 13.7496L9.59484 10.8043ZM9.99999 6C9.99999 8.20914 8.20913 10 6 10C3.79086 10 2 8.20914 2 6C2 3.79086 3.79086 2 6 2C8.20913 2 9.99999 3.79086 9.99999 6Z" fill="#0C8EED"/>
</svg>
