<svg width="22" height="16" viewBox="0 0 22 16" fill="none" xmlns="http://www.w3.org/2000/svg">
<rect width="22" height="14" fill="black" fill-opacity="0" transform="translate(0 1)"/>
<rect width="8" height="14" fill="black" fill-opacity="0" transform="translate(4 1)"/>
<path d="M10.8 0.5H5.2C4.22013 0.5 3.5 1.35487 3.5 2.3125V13.6875C3.5 14.6451 4.22013 15.5 5.2 15.5H10.8C11.7799 15.5 12.5 14.6451 12.5 13.6875V2.3125C12.5 1.35487 11.7799 0.5 10.8 0.5ZM8 13.625C7.87487 13.625 7.7 13.501 7.7 13.25C7.7 12.999 7.87487 12.875 8 12.875C8.12513 12.875 8.3 12.999 8.3 13.25C8.3 13.501 8.12513 13.625 8 13.625ZM10.3 2.8125V11H5.7V2.8125H10.3Z" fill="#70848F" stroke="white"/>
<path d="M20.3536 12.3536L20.7071 12L20.3536 11.6464L16.7071 8L20.3536 4.35355L20.7071 4L20.3536 3.64645L19.3536 2.64645L19 2.29289L18.6464 2.64645L15 6.29289L11.3536 2.64645L11 2.29289L10.6464 2.64645L9.64645 3.64645L9.29289 4L9.64645 4.35355L13.2929 8L9.64645 11.6464L9.29289 12L9.64645 12.3536L10.6464 13.3536L11 13.7071L11.3536 13.3536L15 9.70711L18.6464 13.3536L19 13.7071L19.3536 13.3536L20.3536 12.3536Z" fill="#DE3C3C" stroke="white"/>
</svg>
